{
.appVersion = "911";
DisplayStrings = (
E
);
copyright = "Copyright (c) 2011 by Pablo Impallari. www.impallari.com. All rights reserved.";
customParameters = (
{
name = licenseURL;
value = "http://scripts.sil.org/OFL";
},
{
name = description;
value = "Copyright (c) 2011 by Pablo Impallari. All rights reserved.";
},
{
name = trademark;
value = "Dancing Script is a trademark of Pablo Impallari. www.impallari.com.";
},
{
name = license;
value = "Copyright (c) 2011, Pablo Impallari (www.impallari.com|impallari@gmail.com),\012with Reserved Font Name Dancing Script.\012This Font Software is licensed under the SIL Open Font License, Version 1.1.\012This license is available with a FAQ at: http://scripts.sil.org/OFL";
},
{
name = panose;
value = (
3,
8,
6,
0,
4,
5,
7,
0,
13,
0
);
},
{
name = glyphOrder;
value = (
A,
AE,
Aacute,
Acircumflex,
Adieresis,
Agrave,
Aring,
Atilde,
B,
C,
Ccedilla,
D,
E,
Eacute,
Ecircumflex,
Edieresis,
Egrave,
Eth,
Euro,
F,
F.salt,
G,
H,
I,
Iacute,
Icircumflex,
Idieresis,
Igrave,
J,
K,
L,
M,
M.salt,
N,
Ntilde,
O,
OE,
Oacute,
Ocircumflex,
Odieresis,
Ograve,
Oslash,
Otilde,
P,
Q,
R,
S,
Scaron,
T,
Thorn,
U,
U.salt,
Uacute,
Ucircumflex,
Udieresis,
Ugrave,
V,
W,
X,
Y,
Yacute,
Ydieresis,
Z,
Zcaron,
a,
aacute,
acircumflex,
acute,
adieresis,
ae,
agrave,
ampersand,
aring,
asciicircum,
asciitilde,
asterisk,
at,
atilde,
b,
b_r,
backslash,
bar,
braceleft,
braceright,
bracketleft,
bracketright,
brokenbar,
bullet,
c,
caron,
ccedilla,
cedilla,
cent,
circumflex,
colon,
comma,
copyright,
currency,
d,
dagger,
daggerdbl,
degree,
dieresis,
divide,
dollar,
dotlessi,
e,
e_e,
eacute,
ecircumflex,
edieresis,
egrave,
eight,
ellipsis,
emdash,
endash,
equal,
eth,
exclam,
exclamdown,
f,
fi,
five,
fl,
florin,
four,
foursuperior,
g,
germandbls,
grave,
greater,
guillemotleft,
guillemotright,
guilsinglleft,
guilsinglright,
h,
hyphen,
i,
iacute,
icircumflex,
idieresis,
igrave,
j,
k,
l,
l_l,
less,
logicalnot,
m,
mu,
multiply,
n,
nine,
ntilde,
numbersign,
o,
o_r,
oacute,

glyphs = (
{
glyphname = A;
lastChange = "2016-08-08 09:29:10 +0000";
layers = (
{
background = {
paths = (
{
closed = 1;
nodes = (
"27 283 LINE SMOOTH",
"52 283 OFFCURVE",
"86 282 OFFCURVE",
"135 278 CURVE",
"50 145 OFFCURVE",
"-17 20 OFFCURVE",
"-17 -35 CURVE SMOOTH",
"-17 -48 OFFCURVE",
"-13 -70 OFFCURVE",
"17 -87 CURVE",
"67 31 OFFCURVE",
"128 157 OFFCURVE",
"191 273 CURVE",
"232 268 OFFCURVE",
"280 262 OFFCURVE",
"339 253 CURVE",
"328 198 OFFCURVE",
"322 147 OFFCURVE",
"322 104 CURVE SMOOTH",
"322 23 OFFCURVE",
"345 -30 OFFCURVE",
"400 -30 CURVE SMOOTH",
"466 -30 OFFCURVE",
"533 45 OFFCURVE",
"573 152 CURVE",
"563 162 LINE",
"511 61 OFFCURVE",
"467 14 OFFCURVE",
"432 14 CURVE SMOOTH",
"405 14 OFFCURVE",
"395 43 OFFCURVE",
"395 94 CURVE SMOOTH",
"395 269 OFFCURVE",
"511 656 OFFCURVE",
"551 688 CURVE",
"531 708 OFFCURVE",
"512 720 OFFCURVE",
"498 720 CURVE SMOOTH",
"485 720 OFFCURVE",
"470 711 OFFCURVE",
"450 692 CURVE SMOOTH",
"388 634 OFFCURVE",
"270 481 OFFCURVE",
"168 328 CURVE",
"142 332 OFFCURVE",
"118 335 OFFCURVE",
"96 335 CURVE SMOOTH",
"45 335 OFFCURVE",
"6 321 OFFCURVE",
"-8 283 CURVE"
);
},
{
closed = 1;
nodes = (
"425 565 OFFCURVE",
"375 420 OFFCURVE",
"346 288 CURVE",
"308 297 OFFCURVE",
"262 309 OFFCURVE",
"217 319 CURVE",
"310 485 OFFCURVE",
"404 619 OFFCURVE",
"466 657 CURVE"
);
}
);
};
hints = (
{
place = "{322, 73}";
},
{
horizontal = 1;
place = "{-30, 44}";
},
{
horizontal = 1;
place = "{283, 52}";
},
{
horizontal = 1;
place = "{-87, 21}";
target = up;
type = BottomGhost;
},
{
horizontal = 1;
place = "{720, -20}";
target = down;
type = TopGhost;
}
);
layerId = UUID0;
paths = (
{
closed = 1;
nodes = (
"27 283 LINE SMOOTH",
"52 283 OFFCURVE",
"86 282 OFFCURVE",
"135 278 CURVE",
"50 145 OFFCURVE",
"-17 20 OFFCURVE",
"-17 -35 CURVE SMOOTH",
"-17 -48 OFFCURVE",
"-13 -70 OFFCURVE",
"17 -87 CURVE",
"67 31 OFFCURVE",
"128 157 OFFCURVE",
"191 273 CURVE",
"232 268 OFFCURVE",
"280 262 OFFCURVE",
"339 253 CURVE",
"328 198 OFFCURVE",
"322 147 OFFCURVE",
"322 104 CURVE SMOOTH",
"322 23 OFFCURVE",
"345 -30 OFFCURVE",
"400 -30 CURVE SMOOTH",
"466 -30 OFFCURVE",
"533 45 OFFCURVE",
"573 152 CURVE",
"563 162 LINE",
"511 61 OFFCURVE",
"467 14 OFFCURVE",
"432 14 CURVE SMOOTH",
"405 14 OFFCURVE",
"395 43 OFFCURVE",
"395 94 CURVE SMOOTH",
"395 269 OFFCURVE",
"511 656 OFFCURVE",
"551 688 CURVE",
"531 708 OFFCURVE",
"512 720 OFFCURVE",
"498 720 CURVE SMOOTH",
"485 720 OFFCURVE",
"470 711 OFFCURVE",
"450 692 CURVE SMOOTH",
"388 634 OFFCURVE",
"270 481 OFFCURVE",
"168 328 CURVE",
"142 332 OFFCURVE",
"118 335 OFFCURVE",
"96 335 CURVE SMOOTH",
"45 335 OFFCURVE",
"6 321 OFFCURVE",
"-8 283 CURVE"
);
},
{
closed = 1;
nodes = (
"425 565 OFFCURVE",
"375 420 OFFCURVE",
"346 288 CURVE",
"308 297 OFFCURVE",
"262 309 OFFCURVE",
"217 319 CURVE",
"310 485 OFFCURVE",
"404 619 OFFCURVE",
"466 657 CURVE"
);
}
);
width = 593;
},
{
background = {
paths = (
{
closed = 1;
nodes = (
"42 283 LINE SMOOTH",
"67 283 OFFCURVE",
"101 282 OFFCURVE",
"150 278 CURVE",
"65 145 OFFCURVE",
"-2 20 OFFCURVE",
"-2 -35 CURVE SMOOTH",
"-2 -48 OFFCURVE",
"2 -70 OFFCURVE",
"32 -87 CURVE",
"82 31 OFFCURVE",
"143 157 OFFCURVE",
"206 273 CURVE",
"247 268 OFFCURVE",
"295 262 OFFCURVE",
"354 253 CURVE",
"343 198 OFFCURVE",
"337 147 OFFCURVE",
"337 104 CURVE SMOOTH",
"337 23 OFFCURVE",
"360 -30 OFFCURVE",
"415 -30 CURVE SMOOTH",
"481 -30 OFFCURVE",
"548 45 OFFCURVE",
"588 152 CURVE",
"578 162 LINE",
"526 61 OFFCURVE",
"482 14 OFFCURVE",
"447 14 CURVE SMOOTH",
"420 14 OFFCURVE",
"410 43 OFFCURVE",
"410 94 CURVE SMOOTH",
"410 269 OFFCURVE",
"526 656 OFFCURVE",
"566 688 CURVE",
"546 708 OFFCURVE",
"527 720 OFFCURVE",
"513 720 CURVE SMOOTH",
"500 720 OFFCURVE",
"485 711 OFFCURVE",
"465 692 CURVE SMOOTH",
"403 634 OFFCURVE",
"285 481 OFFCURVE",
"183 328 CURVE",
"157 332 OFFCURVE",
"133 335 OFFCURVE",
"111 335 CURVE SMOOTH",
"60 335 OFFCURVE",
"21 321 OFFCURVE",
"7 283 CURVE"
);
},
{
closed = 1;
nodes = (
"440 565 OFFCURVE",
"390 420 OFFCURVE",
"361 288 CURVE",
"323 297 OFFCURVE",
"277 309 OFFCURVE",
"232 319 CURVE",
"325 485 OFFCURVE",
"419 619 OFFCURVE",
"481 657 CURVE"
);
}
);
};
hints = (
{
place = "{352, 88}";
},
{
horizontal = 1;
place = "{-29, 58}";
},
{
horizontal = 1;
place = "{279, 65}";
},
{
horizontal = 1;
place = "{-87, 21}";
target = up;
type = BottomGhost;
},
{
horizontal = 1;
place = "{722, -20}";
target = down;
type = TopGhost;
}
);
layerId = "FCB63FBD-5C4C-469B-B6FC-091C423BF597";
paths = (
{
closed = 1;
nodes = (
"70 279 OFFCURVE",
"102 278 OFFCURVE",
"147 275 CURVE",
"63 146 OFFCURVE",
"0 28 OFFCURVE",
"0 -25 CURVE SMOOTH",
"0 -41 OFFCURVE",
"6 -66 OFFCURVE",
"46 -87 CURVE",
"97 31 OFFCURVE",
"158 156 OFFCURVE",
"222 269 CURVE",
"263 264 OFFCURVE",
"306 259 OFFCURVE",
"365 250 CURVE",
"355 192 OFFCURVE",
"352 157 OFFCURVE",
"352 126 CURVE SMOOTH",
"352 30 OFFCURVE",
"376 -29 OFFCURVE",
"440 -29 CURVE SMOOTH",
"514 -29 OFFCURVE",
"584 49 OFFCURVE",
"626 159 CURVE",
"608 178 LINE",
"552 72 OFFCURVE",
"506 29 OFFCURVE",
"475 29 CURVE SMOOTH",
"450 29 OFFCURVE",
"440 55 OFFCURVE",
"440 108 CURVE SMOOTH",
"440 279 OFFCURVE",
"555 652 OFFCURVE",
"596 683 CURVE",
"571 706 OFFCURVE",
"547 722 OFFCURVE",
"528 722 CURVE SMOOTH",
"484 722 OFFCURVE",
"336 549 OFFCURVE",
"190 338 CURVE",
"163 341 OFFCURVE",
"139 344 OFFCURVE",
"116 344 CURVE SMOOTH",
"61 344 OFFCURVE",
"18 327 OFFCURVE",
"0 279 CURVE"
);
},
{
closed = 1;
nodes = (
"334 308 OFFCURVE",
"294 318 OFFCURVE",
"254 326 CURVE",
"337 469 OFFCURVE",
"420 586 OFFCURVE",
"481 634 CURVE",
"443 545 OFFCURVE",
"400 417 OFFCURVE",
"375 299 CURVE"
);
}
);
width = 632;
}
);
leftKerningGroup = A;
rightKerningGroup = A;
unicode = 0041;
},
{
glyphname = AE;
lastChange = "2016-08-08 09:29:10 +0000";
layers = (
{
background = {
paths = (
{
closed = 1;
nodes = (
"27 283 LINE SMOOTH",
"52 283 OFFCURVE",
"86 282 OFFCURVE",
"135 278 CURVE",
"50 145 OFFCURVE",
"-17 20 OFFCURVE",
"-17 -35 CURVE SMOOTH",
"-17 -48 OFFCURVE",
"-13 -70 OFFCURVE",
"17 -87 CURVE",
"67 31 OFFCURVE",
"128 157 OFFCURVE",
"191 273 CURVE",
"232 268 OFFCURVE",
"280 262 OFFCURVE",
"339 253 CURVE",
"328 198 OFFCURVE",
"322 147 OFFCURVE",
"322 104 CURVE SMOOTH",
"322 54 OFFCURVE",
"331 11 OFFCURVE",
"351 -9 CURVE",
"389 -13 OFFCURVE",
"445 -13 OFFCURVE",
"500 -13 CURVE SMOOTH",
"581 -13 OFFCURVE",
"659 -7 OFFCURVE",
"670 23 CURVE",
"625 34 OFFCURVE",
"482 40 OFFCURVE",
"398 53 CURVE",
"396 64 OFFCURVE",
"395 78 OFFCURVE",
"395 94 CURVE SMOOTH",
"395 161 OFFCURVE",
"412 259 OFFCURVE",
"435 357 CURVE",
"449 356 OFFCURVE",
"465 356 OFFCURVE",
"488 356 CURVE SMOOTH",
"569 356 OFFCURVE",
"647 362 OFFCURVE",
"658 392 CURVE",
"613 398 OFFCURVE",
"542 413 OFFCURVE",
"450 415 CURVE",
"478 521 OFFCURVE",
"511 618 OFFCURVE",
"534 663 CURVE",
"565 662 OFFCURVE",
"601 661 OFFCURVE",
"637 661 CURVE SMOOTH",
"718 661 OFFCURVE",
"796 667 OFFCURVE",
"807 697 CURVE",
"751 705 OFFCURVE",
"605 720 OFFCURVE",
"498 720 CURVE SMOOTH",
"454 720 OFFCURVE",
"305 534 OFFCURVE",
"168 328 CURVE",
"142 332 OFFCURVE",
"118 335 OFFCURVE",
"96 335 CURVE SMOOTH",
"45 335 OFFCURVE",
"6 321 OFFCURVE",
"-8 283 CURVE"
);
},
{
closed = 1;
nodes = (
"425 565 OFFCURVE",
"375 420 OFFCURVE",
"346 288 CURVE",
"308 297 OFFCURVE",
"262 309 OFFCURVE",
"217 319 CURVE",
"310 485 OFFCURVE",
"404 619 OFFCURVE",
"466 657 CURVE"
);
}
);
};
hints = (
{
place = "{322, 73}";
},
{
horizontal = 1;
place = "{283, 52}";
},
{
horizontal = 1;
place = "{356, 59}";
},
{
horizontal = 1;
place = "{661, 59}";
},
{
horizontal = 1;
place = "{-87, 21}";
target = up;
type = BottomGhost;
},
{
horizontal = 1;
place = "{-13, 21}";
target = up;
type = BottomGhost;
}
);
layerId = UUID0;
paths = (
{
closed = 1;
nodes = (
"27 283 LINE SMOOTH",
"52 283 OFFCURVE",
"86 282 OFFCURVE",
"135 278 CURVE",
"50 145 OFFCURVE",
"-17 20 OFFCURVE",
"-17 -35 CURVE SMOOTH",
"-17 -48 OFFCURVE",
"-13 -70 OFFCURVE",
"17 -87 CURVE",
"67 31 OFFCURVE",
"128 157 OFFCURVE",
"191 273 CURVE",
"232 268 OFFCURVE",
"280 262 OFFCURVE",
"339 253 CURVE",
"328 198 OFFCURVE",
"322 147 OFFCURVE",
"322 104 CURVE SMOOTH",
"322 54 OFFCURVE",
"331 11 OFFCURVE",
"351 -9 CURVE",
"389 -13 OFFCURVE",
"445 -13 OFFCURVE",
"500 -13 CURVE SMOOTH",
"581 -13 OFFCURVE",
"659 -7 OFFCURVE",
"670 23 CURVE",
"625 34 OFFCURVE",
"482 40 OFFCURVE",
"398 53 CURVE",
"396 64 OFFCURVE",
"395 78 OFFCURVE",
"395 94 CURVE SMOOTH",
"395 161 OFFCURVE",
"412 259 OFFCURVE",
"435 357 CURVE",
"449 356 OFFCURVE",
"465 356 OFFCURVE",
"488 356 CURVE SMOOTH",
"569 356 OFFCURVE",
"647 362 OFFCURVE",
"658 392 CURVE",
"613 398 OFFCURVE",
"542 413 OFFCURVE",
"450 415 CURVE",
"478 521 OFFCURVE",
"511 618 OFFCURVE",
"534 663 CURVE",
"565 662 OFFCURVE",
"601 661 OFFCURVE",
"637 661 CURVE SMOOTH",
"718 661 OFFCURVE",
"796 667 OFFCURVE",
"807 697 CURVE",
"751 705 OFFCURVE",
"605 720 OFFCURVE",
"498 720 CURVE SMOOTH",
"454 720 OFFCURVE",
"305 534 OFFCURVE",
"168 328 CURVE",
"142 332 OFFCURVE",
"118 335 OFFCURVE",
"96 335 CURVE SMOOTH",
"45 335 OFFCURVE",
"6 321 OFFCURVE",
"-8 283 CURVE"
);
},
{
closed = 1;
nodes = (
"425 565 OFFCURVE",
"375 420 OFFCURVE",
"346 288 CURVE",
"308 297 OFFCURVE",
"262 309 OFFCURVE",
"217 319 CURVE",
"310 485 OFFCURVE",
"404 619 OFFCURVE",
"466 657 CURVE"
);
}
);
width = 748;
},
{
background = {
paths = (
{
closed = 1;
nodes = (
"47 283 LINE SMOOTH",
"72 283 OFFCURVE",
"106 282 OFFCURVE",
"155 278 CURVE",
"70 145 OFFCURVE",
"3 20 OFFCURVE",
"3 -35 CURVE SMOOTH",
"3 -48 OFFCURVE",
"7 -70 OFFCURVE",
"37 -87 CURVE",
"87 31 OFFCURVE",
"148 157 OFFCURVE",
"211 273 CURVE",
"252 268 OFFCURVE",
"300 262 OFFCURVE",
"359 253 CURVE",
"348 198 OFFCURVE",
"342 147 OFFCURVE",
"342 104 CURVE SMOOTH",
"342 54 OFFCURVE",
"351 11 OFFCURVE",
"371 -9 CURVE",
"409 -13 OFFCURVE",
"465 -13 OFFCURVE",
"520 -13 CURVE SMOOTH",
"601 -13 OFFCURVE",
"679 -7 OFFCURVE",
"690 23 CURVE",
"645 34 OFFCURVE",
"502 40 OFFCURVE",
"418 53 CURVE",
"416 64 OFFCURVE",
"415 78 OFFCURVE",
"415 94 CURVE SMOOTH",
"415 161 OFFCURVE",
"432 259 OFFCURVE",
"455 357 CURVE",
"469 356 OFFCURVE",
"485 356 OFFCURVE",
"508 356 CURVE SMOOTH",
"589 356 OFFCURVE",
"667 362 OFFCURVE",
"678 392 CURVE",
"633 398 OFFCURVE",
"562 413 OFFCURVE",
"470 415 CURVE",
"498 521 OFFCURVE",
"531 618 OFFCURVE",
"554 663 CURVE",
"585 662 OFFCURVE",
"621 661 OFFCURVE",
"657 661 CURVE SMOOTH",
"738 661 OFFCURVE",
"816 667 OFFCURVE",
"827 697 CURVE",
"771 705 OFFCURVE",
"625 720 OFFCURVE",
"518 720 CURVE SMOOTH",
"474 720 OFFCURVE",
"325 534 OFFCURVE",
"188 328 CURVE",
"162 332 OFFCURVE",
"138 335 OFFCURVE",
"116 335 CURVE SMOOTH",
"65 335 OFFCURVE",
"26 321 OFFCURVE",
"12 283 CURVE"
);
},
{
closed = 1;
nodes = (
"445 565 OFFCURVE",
"395 420 OFFCURVE",
"366 288 CURVE",
"328 297 OFFCURVE",
"282 309 OFFCURVE",
"237 319 CURVE",
"330 485 OFFCURVE",
"424 619 OFFCURVE",
"486 657 CURVE"
);
}
);
};
hints = (
{
place = "{350, 89}";
},
{
horizontal = 1;
place = "{275, 69}";
},
{
horizontal = 1;
place = "{350, 73}";
},
{
horizontal = 1;
place = "{650, 72}";
},
{
horizontal = 1;
place = "{-87, 21}";
target = up;
type = BottomGhost;
},
{
horizontal = 1;
place = "{-12, 21}";
target = up;
type = BottomGhost;
}
);
layerId = "FCB63FBD-5C4C-469B-B6FC-091C423BF597";
paths = (
{
closed = 1;
nodes = (
"46 279 LINE SMOOTH",
"69 279 OFFCURVE",
"101 278 OFFCURVE",
"146 275 CURVE",
"62 146 OFFCURVE",
"-1 28 OFFCURVE",
"-1 -26 CURVE SMOOTH",
"-1 -41 OFFCURVE",
"5 -66 OFFCURVE",
"45 -87 CURVE",
"96 31 OFFCURVE",
"157 156 OFFCURVE",
"221 269 CURVE",
"262 264 OFFCURVE",
"305 259 OFFCURVE",
"364 250 CURVE",
"356 206 OFFCURVE",
"350 164 OFFCURVE",
"350 126 CURVE SMOOTH",
"350 68 OFFCURVE",
"360 16 OFFCURVE",
"387 -8 CURVE",
"429 -12 OFFCURVE",
"487 -12 OFFCURVE",
"545 -12 CURVE SMOOTH",
"632 -12 OFFCURVE",
"716 -4 OFFCURVE",
"730 36 CURVE",
"670 51 OFFCURVE",
"530 54 OFFCURVE",
"442 67 CURVE",
"441 76 OFFCURVE",
"439 87 OFFCURVE",
"439 100 CURVE SMOOTH",
"439 164 OFFCURVE",
"453 257 OFFCURVE",
"474 351 CURVE",
"489 350 OFFCURVE",
"501 350 OFFCURVE",
"525 350 CURVE SMOOTH",
"612 350 OFFCURVE",
"695 358 OFFCURVE",
"711 399 CURVE",
"659 404 OFFCURVE",
"589 420 OFFCURVE",
"493 423 CURVE",
"518 520 OFFCURVE",
"549 608 OFFCURVE",
"571 652 CURVE",
"604 651 OFFCURVE",
"637 650 OFFCURVE",
"675 650 CURVE SMOOTH",
"762 650 OFFCURVE",
"846 658 OFFCURVE",
"861 699 CURVE",
"799 707 OFFCURVE",
"640 722 OFFCURVE",
"528 722 CURVE SMOOTH",
"481 722 OFFCURVE",
"329 540 OFFCURVE",
"189 338 CURVE",
"162 341 OFFCURVE",
"138 344 OFFCURVE",
"116 344 CURVE SMOOTH",
"60 344 OFFCURVE",
"17 327 OFFCURVE",
"-1 279 CURVE"
);
},
{
closed = 1;
nodes = (
"341 305 OFFCURVE",
"296 318 OFFCURVE",
"253 326 CURVE",
"336 469 OFFCURVE",
"419 586 OFFCURVE",
"480 634 CURVE",
"442 545 OFFCURVE",
"399 417 OFFCURVE",
"374 299 CURVE"
);
}
);
width = 791;
}
);
leftKerningGroup = A;
rightKerningGroup = AE;
unicode = 00C6;
},
{
glyphname = Aacute;
lastChange = "2016-08-08 09:29:10 +0000";
layers = (
{
background = {
paths = (
{
closed = 1;
nodes = (
"27 283 LINE SMOOTH",
"52 283 OFFCURVE",
"86 282 OFFCURVE",
"135 278 CURVE",
"50 145 OFFCURVE",
"-17 20 OFFCURVE",
"-17 -35 CURVE SMOOTH",
"-17 -48 OFFCURVE",
"-13 -70 OFFCURVE",
"17 -87 CURVE",
"67 31 OFFCURVE",
"128 157 OFFCURVE",
"191 273 CURVE",
"232 268 OFFCURVE",
"280 262 OFFCURVE",
"339 253 CURVE",
"328 198 OFFCURVE",
"322 147 OFFCURVE",
"322 104 CURVE SMOOTH",
"322 23 OFFCURVE",
"345 -30 OFFCURVE",
"400 -30 CURVE SMOOTH",
"466 -30 OFFCURVE",
"533 45 OFFCURVE",
"573 152 CURVE",
"563 162 LINE",
"511 61 OFFCURVE",
"467 14 OFFCURVE",
"432 14 CURVE SMOOTH",
"405 14 OFFCURVE",
"395 43 OFFCURVE",
"395 94 CURVE SMOOTH",
"395 269 OFFCURVE",
"511 656 OFFCURVE",
"551 688 CURVE",
"531 708 OFFCURVE",
"512 720 OFFCURVE",
"498 720 CURVE SMOOTH",
"485 720 OFFCURVE",
"470 711 OFFCURVE",
"450 692 CURVE SMOOTH",
"388 634 OFFCURVE",
"270 481 OFFCURVE",
"168 328 CURVE",
"142 332 OFFCURVE",
"118 335 OFFCURVE",
"96 335 CURVE SMOOTH",
"45 335 OFFCURVE",
"6 321 OFFCURVE",
"-8 283 CURVE"
);
},
{
closed = 1;
nodes = (
"425 565 OFFCURVE",
"375 420 OFFCURVE",
"346 288 CURVE",
"308 297 OFFCURVE",
"262 309 OFFCURVE",
"217 319 CURVE",
"310 485 OFFCURVE",
"404 619 OFFCURVE",
"466 657 CURVE"
);
},
{
closed = 1;
nodes = (
"640 888 OFFCURVE",
"631 895 OFFCURVE",
"620 895 CURVE SMOOTH",
"580 895 OFFCURVE",
"516 797 OFFCURVE",
"516 774 CURVE SMOOTH",
"516 768 OFFCURVE",
"520 753 OFFCURVE",
"530 748 CURVE",
"559 787 OFFCURVE",
"594 822 OFFCURVE",
"642 864 CURVE"
);
}
);
};
hints = (
{
place = "{322, 73}";
},
{
horizontal = 1;
place = "{-30, 44}";
},
{
horizontal = 1;
place = "{283, 52}";
},
{
horizontal = 1;
place = "{-87, 21}";
target = up;
type = BottomGhost;
},
{
horizontal = 1;
place = "{895, -20}";
target = down;
type = TopGhost;
},
{
horizontal = 1;
place = "{720, -20}";
target = down;
type = TopGhost;
}
);
layerId = UUID0;
paths = (
{
closed = 1;
nodes = (
"27 283 LINE SMOOTH",
"52 283 OFFCURVE",
"86 282 OFFCURVE",
"135 278 CURVE",
"50 145 OFFCURVE",
"-17 20 OFFCURVE",
"-17 -35 CURVE SMOOTH",
"-17 -48 OFFCURVE",
"-13 -70 OFFCURVE",
"17 -87 CURVE",
"67 31 OFFCURVE",
"128 157 OFFCURVE",
"191 273 CURVE",
"232 268 OFFCURVE",
"280 262 OFFCURVE",
"339 253 CURVE",
"328 198 OFFCURVE",
"322 147 OFFCURVE",
"322 104 CURVE SMOOTH",
"322 23 OFFCURVE",
"345 -30 OFFCURVE",
"400 -30 CURVE SMOOTH",
"466 -30 OFFCURVE",
"533 45 OFFCURVE",
"573 152 CURVE",
"563 162 LINE",
"511 61 OFFCURVE",
"467 14 OFFCURVE",
"432 14 CURVE SMOOTH",
"405 14 OFFCURVE",
"395 43 OFFCURVE",
"395 94 CURVE SMOOTH",
"395 269 OFFCURVE",
"511 656 OFFCURVE",
"551 688 CURVE",
"531 708 OFFCURVE",
"512 720 OFFCURVE",
"498 720 CURVE SMOOTH",
"485 720 OFFCURVE",
"470 711 OFFCURVE",
"450 692 CURVE SMOOTH",
"388 634 OFFCURVE",
"270 481 OFFCURVE",
"168 328 CURVE",
"142 332 OFFCURVE",
"118 335 OFFCURVE",
"96 335 CURVE SMOOTH",
"45 335 OFFCURVE",
"6 321 OFFCURVE",
"-8 283 CURVE"
);
},
{
closed = 1;
nodes = (
"425 565 OFFCURVE",
"375 420 OFFCURVE",
"346 288 CURVE",
"308 297 OFFCURVE",
"262 309 OFFCURVE",
"217 319 CURVE",
"310 485 OFFCURVE",
"404 619 OFFCURVE",
"466 657 CURVE"
);
},
{
closed = 1;
nodes = (
"640 888 OFFCURVE",
"631 895 OFFCURVE",
"620 895 CURVE SMOOTH",
"580 895 OFFCURVE",
"516 797 OFFCURVE",
"516 774 CURVE SMOOTH",
"516 768 OFFCURVE",
"520 753 OFFCURVE",
"530 748 CURVE",
"559 787 OFFCURVE",
"594 822 OFFCURVE",
"642 864 CURVE"
);
}
);
width = 593;
},
{
hints = (
{
place = "{352, 88}";
},
{
horizontal = 1;
place = "{-29, 58}";
},
{
horizontal = 1;
place = "{279, 65}";
},
{
horizontal = 1;
place = "{-87, 21}";
target = up;
type = BottomGhost;
},
{
horizontal = 1;
place = "{722, -20}";
target = down;
type = TopGhost;
},
{
horizontal = 1;
place = "{946, -20}";
target = down;
type = TopGhost;
}
);
layerId = "FCB63FBD-5C4C-469B-B6FC-091C423BF597";
paths = (
{
closed = 1;
nodes = (
"70 279 OFFCURVE",
"102 278 OFFCURVE",
"147 275 CURVE",
"63 146 OFFCURVE",
"0 28 OFFCURVE",
"0 -25 CURVE SMOOTH",
"0 -41 OFFCURVE",
"6 -66 OFFCURVE",
"46 -87 CURVE",
"97 31 OFFCURVE",
"158 156 OFFCURVE",
"222 269 CURVE",
"263 264 OFFCURVE",
"306 259 OFFCURVE",
"365 250 CURVE",
"355 192 OFFCURVE",
"352 157 OFFCURVE",
"352 126 CURVE SMOOTH",
"352 30 OFFCURVE",
"376 -29 OFFCURVE",
"440 -29 CURVE SMOOTH",
"514 -29 OFFCURVE",
"584 49 OFFCURVE",
"626 159 CURVE",
"608 178 LINE",
"552 72 OFFCURVE",
"506 29 OFFCURVE",
"475 29 CURVE SMOOTH",
"450 29 OFFCURVE",
"440 55 OFFCURVE",
"440 108 CURVE SMOOTH",
"440 279 OFFCURVE",
"555 652 OFFCURVE",
"596 683 CURVE",
"571 706 OFFCURVE",
"547 722 OFFCURVE",
"528 722 CURVE SMOOTH",
"484 722 OFFCURVE",
"336 549 OFFCURVE",
"190 338 CURVE",
"163 341 OFFCURVE",
"139 344 OFFCURVE",
"116 344 CURVE SMOOTH",
"61 344 OFFCURVE",
"18 327 OFFCURVE",
"0 279 CURVE"
);
},
{
closed = 1;
nodes = (
"334 308 OFFCURVE",
"294 318 OFFCURVE",
"254 326 CURVE",
"337 469 OFFCURVE",
"420 586 OFFCURVE",
"481 634 CURVE",
"443 545 OFFCURVE",
"400 417 OFFCURVE",
"375 299 CURVE"
);
},
{
closed = 1;
nodes = (
"685 938 OFFCURVE",
"673 946 OFFCURVE",
"658 946 CURVE SMOOTH",
"616 946 OFFCURVE",
"555 853 OFFCURVE",
"555 831 CURVE SMOOTH",
"555 824 OFFCURVE",
"562 805 OFFCURVE",
"579 798 CURVE",
"607 835 OFFCURVE",
"641 866 OFFCURVE",
"688 911 CURVE"
);
}
);
width = 632;
}
);
leftKerningGroup = A;
rightKerningGroup = A;
unicode = 00C1;
},
{
glyphname = Acircumflex;
lastChange = "2016-08-08 09:29:10 +0000";
layers = (
{
background = {
paths = (
{
closed = 1;
nodes = (
"27 283 LINE SMOOTH",
"52 283 OFFCURVE",
"86 282 OFFCURVE",
"135 278 CURVE",
"50 145 OFFCURVE",
"-17 20 OFFCURVE",
"-17 -35 CURVE SMOOTH",
"-17 -48 OFFCURVE",
"-13 -70 OFFCURVE",
"17 -87 CURVE",
"67 31 OFFCURVE",
"128 157 OFFCURVE",
"191 273 CURVE",
"232 268 OFFCURVE",
"280 262 OFFCURVE",
"339 253 CURVE",
"328 198 OFFCURVE",
"322 147 OFFCURVE",
"322 104 CURVE SMOOTH",
"322 23 OFFCURVE",
"345 -30 OFFCURVE",
"400 -30 CURVE SMOOTH",
"466 -30 OFFCURVE",
"533 45 OFFCURVE",
"573 152 CURVE",
"563 162 LINE",
"511 61 OFFCURVE",
"467 14 OFFCURVE",
"432 14 CURVE SMOOTH",
"405 14 OFFCURVE",
"395 43 OFFCURVE",
"395 94 CURVE SMOOTH",
"395 269 OFFCURVE",
"511 656 OFFCURVE",
"551 688 CURVE",
"531 708 OFFCURVE",
"512 720 OFFCURVE",
"498 720 CURVE SMOOTH",
"485 720 OFFCURVE",
"470 711 OFFCURVE",
"450 692 CURVE SMOOTH",
"388 634 OFFCURVE",
"270 481 OFFCURVE",
"168 328 CURVE",
"142 332 OFFCURVE",
"118 335 OFFCURVE",
"96 335 CURVE SMOOTH",
"45 335 OFFCURVE",
"6 321 OFFCURVE",
"-8 283 CURVE"
);
},
{
closed = 1;
nodes = (
"425 565 OFFCURVE",
"375 420 OFFCURVE",
"346 288 CURVE",
"308 297 OFFCURVE",
"262 309 OFFCURVE",
"217 319 CURVE",
"310 485 OFFCURVE",
"404 619 OFFCURVE",
"466 657 CURVE"
);
},
{
closed = 1;
nodes = (
"458 806 OFFCURVE",
"490 821 OFFCURVE",
"531 836 CURVE",
"563 806 OFFCURVE",
"586 782 OFFCURVE",
"605 744 CURVE",
"617 750 OFFCURVE",
"622 762 OFFCURVE",
"622 775 CURVE SMOOTH",
"622 818 OFFCURVE",
"564 886 OFFCURVE",
"532 886 CURVE SMOOTH",
"505 886 OFFCURVE",
"418 837 OFFCURVE",
"418 798 CURVE SMOOTH",
"418 792 OFFCURVE",
"420 784 OFFCURVE",
"428 779 CURVE"
);
}
);
};
hints = (
{
place = "{322, 73}";
},
{
place = "{418, 204}";
},
{
horizontal = 1;
place = "{-30, 44}";
},
{
horizontal = 1;
place = "{283, 52}";
},
{
horizontal = 1;
place = "{-87, 21}";
target = up;
type = BottomGhost;
},
{
horizontal = 1;
place = "{886, -20}";
target = down;
type = TopGhost;
},
{
horizontal = 1;
place = "{720, -20}";
target = down;
type = TopGhost;
}
);
layerId = UUID0;
paths = (
{
closed = 1;
nodes = (
"27 283 LINE SMOOTH",
"52 283 OFFCURVE",
"86 282 OFFCURVE",
"135 278 CURVE",
"50 145 OFFCURVE",
"-17 20 OFFCURVE",
"-17 -35 CURVE SMOOTH",
"-17 -48 OFFCURVE",
"-13 -70 OFFCURVE",
"17 -87 CURVE",
"67 31 OFFCURVE",
"128 157 OFFCURVE",
"191 273 CURVE",
"232 268 OFFCURVE",
"280 262 OFFCURVE",
"339 253 CURVE",
"328 198 OFFCURVE",
"322 147 OFFCURVE",
"322 104 CURVE SMOOTH",
"322 23 OFFCURVE",
"345 -30 OFFCURVE",
"400 -30 CURVE SMOOTH",
"466 -30 OFFCURVE",
"533 45 OFFCURVE",
"573 152 CURVE",
"563 162 LINE",
"511 61 OFFCURVE",
"467 14 OFFCURVE",
"432 14 CURVE SMOOTH",
"405 14 OFFCURVE",
"395 43 OFFCURVE",
"395 94 CURVE SMOOTH",
"395 269 OFFCURVE",
"511 656 OFFCURVE",
"551 688 CURVE",
"531 708 OFFCURVE",
"512 720 OFFCURVE",
"498 720 CURVE SMOOTH",
"485 720 OFFCURVE",
"470 711 OFFCURVE",
"450 692 CURVE SMOOTH",
"388 634 OFFCURVE",
"270 481 OFFCURVE",
"168 328 CURVE",
"142 332 OFFCURVE",
"118 335 OFFCURVE",
"96 335 CURVE SMOOTH",
"45 335 OFFCURVE",
"6 321 OFFCURVE",
"-8 283 CURVE"
);
},
{
closed = 1;
nodes = (
"425 565 OFFCURVE",
"375 420 OFFCURVE",
"346 288 CURVE",
"308 297 OFFCURVE",
"262 309 OFFCURVE",
"217 319 CURVE",
"310 485 OFFCURVE",
"404 619 OFFCURVE",
"466 657 CURVE"
);
},
{
closed = 1;
nodes = (
"458 806 OFFCURVE",
"490 821 OFFCURVE",
"531 836 CURVE",
"563 806 OFFCURVE",
"586 782 OFFCURVE",
"605 744 CURVE",
"617 750 OFFCURVE",
"622 762 OFFCURVE",
"622 775 CURVE SMOOTH",
"622 818 OFFCURVE",
"564 886 OFFCURVE",
"532 886 CURVE SMOOTH",
"505 886 OFFCURVE",
"418 837 OFFCURVE",
"418 798 CURVE SMOOTH",
"418 792 OFFCURVE",
"420 784 OFFCURVE",
"428 779 CURVE"
);
}
);
width = 593;
},
{
hints = (
{
place = "{352, 88}";
},
{
place = "{465, 212}";
},
{
horizontal = 1;
place = "{-29, 58}";
},
{
horizontal = 1;
place = "{279, 65}";
},
{
horizontal = 1;
place = "{-87, 21}";
target = up;
type = BottomGhost;
},
{
horizontal = 1;
place = "{722, -20}";
target = down;
type = TopGhost;
},
{
horizontal = 1;
place = "{938, -20}";
target = down;
type = TopGhost;
}
);
layerId = "FCB63FBD-5C4C-469B-B6FC-091C423BF597";
paths = (
{
closed = 1;
nodes = (
"70 279 OFFCURVE",
"102 278 OFFCURVE",
"147 275 CURVE",
"63 146 OFFCURVE",
"0 28 OFFCURVE",
"0 -25 CURVE SMOOTH",
"0 -41 OFFCURVE",
"6 -66 OFFCURVE",
"46 -87 CURVE",
"97 31 OFFCURVE",
"158 156 OFFCURVE",
"222 269 CURVE",
"263 264 OFFCURVE",
"306 259 OFFCURVE",
"365 250 CURVE",
"355 192 OFFCURVE",
"352 157 OFFCURVE",
"352 126 CURVE SMOOTH",
"352 30 OFFCURVE",
"376 -29 OFFCURVE",
"440 -29 CURVE SMOOTH",
"514 -29 OFFCURVE",
"584 49 OFFCURVE",
"626 159 CURVE",
"608 178 LINE",
"552 72 OFFCURVE",
"506 29 OFFCURVE",
"475 29 CURVE SMOOTH",
"450 29 OFFCURVE",
"440 55 OFFCURVE",
"440 108 CURVE SMOOTH",
"440 279 OFFCURVE",
"555 652 OFFCURVE",
"596 683 CURVE",
"571 706 OFFCURVE",
"547 722 OFFCURVE",
"528 722 CURVE SMOOTH",
"484 722 OFFCURVE",
"336 549 OFFCURVE",
"190 338 CURVE",
"163 341 OFFCURVE",
"139 344 OFFCURVE",
"116 344 CURVE SMOOTH",
"61 344 OFFCURVE",
"18 327 OFFCURVE",
"0 279 CURVE"
);
},
{
closed = 1;
nodes = (
"334 308 OFFCURVE",
"294 318 OFFCURVE",
"254 326 CURVE",
"337 469 OFFCURVE",
"420 586 OFFCURVE",
"481 634 CURVE",
"443 545 OFFCURVE",
"400 417 OFFCURVE",
"375 299 CURVE"
);
},
{
closed = 1;
nodes = (
"513 847 OFFCURVE",
"544 864 OFFCURVE",
"580 876 CURVE",
"608 851 OFFCURVE",
"631 829 OFFCURVE",
"652 793 CURVE",
"670 802 OFFCURVE",
"677 818 OFFCURVE",
"677 832 CURVE SMOOTH",
"677 873 OFFCURVE",
"613 938 OFFCURVE",
"581 938 CURVE SMOOTH",
"552 938 OFFCURVE",
"465 891 OFFCURVE",
"465 852 CURVE SMOOTH",
"465 845 OFFCURVE",
"468 830 OFFCURVE",
"478 824 CURVE"
);
}
);
width = 632;
}
);
leftKerningGroup = A;
rightKerningGroup = A;
unicode = 00C2;
},
{
glyphname = Adieresis;
lastChange = "2016-08-08 09:29:10 +0000";
layers = (
{
background = {
paths = (
{
closed = 1;
nodes = (
"27 283 LINE SMOOTH",
"52 283 OFFCURVE",
"86 282 OFFCURVE",
"135 278 CURVE",
"50 145 OFFCURVE",
"-17 20 OFFCURVE",
"-17 -35 CURVE SMOOTH",
"-17 -48 OFFCURVE",
"-13 -70 OFFCURVE",
"17 -87 CURVE",
"67 31 OFFCURVE",
"128 157 OFFCURVE",
"191 273 CURVE",
"232 268 OFFCURVE",
"280 262 OFFCURVE",
"339 253 CURVE",
"328 198 OFFCURVE",
"322 147 OFFCURVE",
"322 104 CURVE SMOOTH",
"322 23 OFFCURVE",
"345 -30 OFFCURVE",
"400 -30 CURVE SMOOTH",
"466 -30 OFFCURVE",
"533 45 OFFCURVE",
"573 152 CURVE",
"563 162 LINE",
"511 61 OFFCURVE",
"467 14 OFFCURVE",
"432 14 CURVE SMOOTH",
"405 14 OFFCURVE",
"395 43 OFFCURVE",
"395 94 CURVE SMOOTH",
"395 269 OFFCURVE",
"511 656 OFFCURVE",
"551 688 CURVE",
"531 708 OFFCURVE",
"512 720 OFFCURVE",
"498 720 CURVE SMOOTH",
"485 720 OFFCURVE",
"470 711 OFFCURVE",
"450 692 CURVE SMOOTH",
"388 634 OFFCURVE",
"270 481 OFFCURVE",
"168 328 CURVE",
"142 332 OFFCURVE",
"118 335 OFFCURVE",
"96 335 CURVE SMOOTH",
"45 335 OFFCURVE",
"6 321 OFFCURVE",
"-8 283 CURVE"
);
},
{
closed = 1;
nodes = (
"425 565 OFFCURVE",
"375 420 OFFCURVE",
"346 288 CURVE",
"308 297 OFFCURVE",
"262 309 OFFCURVE",
"217 319 CURVE",
"310 485 OFFCURVE",
"404 619 OFFCURVE",
"466 657 CURVE"
);
},
{
closed = 1;
nodes = (
"477 774 OFFCURVE",
"507 800 OFFCURVE",
"507 823 CURVE SMOOTH",
"507 844 OFFCURVE",
"495 851 OFFCURVE",
"477 851 CURVE SMOOTH",
"448 851 OFFCURVE",
"411 829 OFFCURVE",
"411 804 CURVE SMOOTH",
"411 783 OFFCURVE",
"428 774 OFFCURVE",
"448 774 CURVE SMOOTH"
);
},
{
closed = 1;
nodes = (
"621 753 OFFCURVE",
"651 779 OFFCURVE",
"651 802 CURVE SMOOTH",
"651 823 OFFCURVE",
"639 830 OFFCURVE",
"621 830 CURVE SMOOTH",
"592 830 OFFCURVE",
"555 808 OFFCURVE",
"555 783 CURVE SMOOTH",
"555 762 OFFCURVE",
"572 753 OFFCURVE",
"592 753 CURVE SMOOTH"
);
}
);
};
hints = (
{
place = "{322, 73}";
},
{
place = "{411, 96}";
},
{
place = "{555, 96}";
},
{
horizontal = 1;
place = "{-30, 44}";
},
{
horizontal = 1;
place = "{283, 52}";
},
{
horizontal = 1;
place = "{753, 77}";
},
{
horizontal = 1;
place = "{774, 77}";
},
{
horizontal = 1;
place = "{-87, 21}";
target = up;
type = BottomGhost;
},
{
horizontal = 1;
place = "{720, -20}";
target = down;
type = TopGhost;
}
);
layerId = UUID0;
paths = (
{
closed = 1;
nodes = (
"27 283 LINE SMOOTH",
"52 283 OFFCURVE",
"86 282 OFFCURVE",
"135 278 CURVE",
"50 145 OFFCURVE",
"-17 20 OFFCURVE",
"-17 -35 CURVE SMOOTH",
"-17 -48 OFFCURVE",
"-13 -70 OFFCURVE",
"17 -87 CURVE",
"67 31 OFFCURVE",
"128 157 OFFCURVE",
"191 273 CURVE",
"232 268 OFFCURVE",
"280 262 OFFCURVE",
"339 253 CURVE",
"328 198 OFFCURVE",
"322 147 OFFCURVE",
"322 104 CURVE SMOOTH",
"322 23 OFFCURVE",
"345 -30 OFFCURVE",
"400 -30 CURVE SMOOTH",
"466 -30 OFFCURVE",
"533 45 OFFCURVE",
"573 152 CURVE",
"563 162 LINE",
"511 61 OFFCURVE",
"467 14 OFFCURVE",
"432 14 CURVE SMOOTH",
"405 14 OFFCURVE",
"395 43 OFFCURVE",
"395 94 CURVE SMOOTH",
"395 269 OFFCURVE",
"511 656 OFFCURVE",
"551 688 CURVE",
"531 708 OFFCURVE",
"512 720 OFFCURVE",
"498 720 CURVE SMOOTH",
"485 720 OFFCURVE",
"470 711 OFFCURVE",
"450 692 CURVE SMOOTH",
"388 634 OFFCURVE",
"270 481 OFFCURVE",
"168 328 CURVE",
"142 332 OFFCURVE",
"118 335 OFFCURVE",
"96 335 CURVE SMOOTH",
"45 335 OFFCURVE",
"6 321 OFFCURVE",
"-8 283 CURVE"
);
},
{
closed = 1;
nodes = (
"425 565 OFFCURVE",
"375 420 OFFCURVE",
"346 288 CURVE",
"308 297 OFFCURVE",
"262 309 OFFCURVE",
"217 319 CURVE",
"310 485 OFFCURVE",
"404 619 OFFCURVE",
"466 657 CURVE"
);
},
{
closed = 1;
nodes = (
"477 774 OFFCURVE",
"507 800 OFFCURVE",
"507 823 CURVE SMOOTH",
"507 844 OFFCURVE",
"495 851 OFFCURVE",
"477 851 CURVE SMOOTH",
"448 851 OFFCURVE",
"411 829 OFFCURVE",
"411 804 CURVE SMOOTH",
"411 783 OFFCURVE",
"428 774 OFFCURVE",
"448 774 CURVE SMOOTH"
);
},
{
closed = 1;
nodes = (
"621 753 OFFCURVE",
"651 779 OFFCURVE",
"651 802 CURVE SMOOTH",
"651 823 OFFCURVE",
"639 830 OFFCURVE",
"621 830 CURVE SMOOTH",
"592 830 OFFCURVE",
"555 808 OFFCURVE",
"555 783 CURVE SMOOTH",
"555 762 OFFCURVE",
"572 753 OFFCURVE",
"592 753 CURVE SMOOTH"
);
}
);
width = 593;
},
{
hints = (
{
place = "{352, 88}";
},
{
place = "{436, 103}";
},
{
place = "{581, 104}";
},
{
horizontal = 1;
place = "{-29, 58}";
},
{
horizontal = 1;
place = "{279, 65}";
},
{
horizontal = 1;
place = "{803, 82}";
},
{
horizontal = 1;
place = "{823, 82}";
},
{
horizontal = 1;
place = "{-87, 21}";
target = up;
type = BottomGhost;
},
{
horizontal = 1;
place = "{722, -20}";
target = down;
type = TopGhost;
}
);
layerId = "FCB63FBD-5C4C-469B-B6FC-091C423BF597";
paths = (
{
closed = 1;
nodes = (
"70 279 OFFCURVE",
"102 278 OFFCURVE",
"147 275 CURVE",
"63 146 OFFCURVE",
"0 28 OFFCURVE",
"0 -25 CURVE SMOOTH",
"0 -41 OFFCURVE",
"6 -66 OFFCURVE",
"46 -87 CURVE",
"97 31 OFFCURVE",
"158 156 OFFCURVE",
"222 269 CURVE",
"263 264 OFFCURVE",
"306 259 OFFCURVE",
"365 250 CURVE",
"355 192 OFFCURVE",
"352 157 OFFCURVE",
"352 126 CURVE SMOOTH",
"352 30 OFFCURVE",
"376 -29 OFFCURVE",
"440 -29 CURVE SMOOTH",
"514 -29 OFFCURVE",
"584 49 OFFCURVE",
"626 159 CURVE",
"608 178 LINE",
"552 72 OFFCURVE",
"506 29 OFFCURVE",
"475 29 CURVE SMOOTH",
"450 29 OFFCURVE",
"440 55 OFFCURVE",
"440 108 CURVE SMOOTH",
"440 279 OFFCURVE",
"555 652 OFFCURVE",
"596 683 CURVE",
"571 706 OFFCURVE",
"547 722 OFFCURVE",
"528 722 CURVE SMOOTH",
"484 722 OFFCURVE",
"336 549 OFFCURVE",
"190 338 CURVE",
"163 341 OFFCURVE",
"139 344 OFFCURVE",
"116 344 CURVE SMOOTH",
"61 344 OFFCURVE",
"18 327 OFFCURVE",
"0 279 CURVE"
);
},
{
closed = 1;
nodes = (
"334 308 OFFCURVE",
"294 318 OFFCURVE",
"254 326 CURVE",
"337 469 OFFCURVE",
"420 586 OFFCURVE",
"481 634 CURVE",
"443 545 OFFCURVE",
"400 417 OFFCURVE",
"375 299 CURVE"
);
},
{
closed = 1;
nodes = (
"509 823 OFFCURVE",
"539 850 OFFCURVE",
"539 873 CURVE SMOOTH",
"539 897 OFFCURVE",
"524 905 OFFCURVE",
"503 905 CURVE SMOOTH",
"473 905 OFFCURVE",
"436 882 OFFCURVE",
"436 857 CURVE SMOOTH",
"436 833 OFFCURVE",
"458 823 OFFCURVE",
"479 823 CURVE SMOOTH"
);
},
{
closed = 1;
nodes = (
"654 803 OFFCURVE",
"685 829 OFFCURVE",
"685 852 CURVE SMOOTH",
"685 877 OFFCURVE",
"668 885 OFFCURVE",
"648 885 CURVE SMOOTH",
"618 885 OFFCURVE",
"581 863 OFFCURVE",
"581 837 CURVE SMOOTH",
"581 814 OFFCURVE",
"602 803 OFFCURVE",
"623 803 CURVE SMOOTH"
);
}
);
width = 632;
}
);
leftKerningGroup = A;
rightKerningGroup = A;
unicode = 00C4;
},
{
glyphname = Agrave;
lastChange = "2016-08-08 09:29:10 +0000";
layers = (
{
background = {
paths = (
{
closed = 1;
nodes = (
"27 283 LINE SMOOTH",
"52 283 OFFCURVE",
"86 282 OFFCURVE",
"135 278 CURVE",
"50 145 OFFCURVE",
"-17 20 OFFCURVE",
"-17 -35 CURVE SMOOTH",
"-17 -48 OFFCURVE",
"-13 -70 OFFCURVE",
"17 -87 CURVE",
"67 31 OFFCURVE",
"128 157 OFFCURVE",
"191 273 CURVE",
"232 268 OFFCURVE",
"280 262 OFFCURVE",
"339 253 CURVE",
"328 198 OFFCURVE",
"322 147 OFFCURVE",
"322 104 CURVE SMOOTH",
"322 23 OFFCURVE",
"345 -30 OFFCURVE",
"400 -30 CURVE SMOOTH",
"466 -30 OFFCURVE",
"533 45 OFFCURVE",
"573 152 CURVE",
"563 162 LINE",
"511 61 OFFCURVE",
"467 14 OFFCURVE",
"432 14 CURVE SMOOTH",
"405 14 OFFCURVE",
"395 43 OFFCURVE",
"395 94 CURVE SMOOTH",
"395 269 OFFCURVE",
"511 656 OFFCURVE",
"551 688 CURVE",
"531 708 OFFCURVE",
"512 720 OFFCURVE",
"498 720 CURVE SMOOTH",
"485 720 OFFCURVE",
"470 711 OFFCURVE",
"450 692 CURVE SMOOTH",
"388 634 OFFCURVE",
"270 481 OFFCURVE",
"168 328 CURVE",
"142 332 OFFCURVE",
"118 335 OFFCURVE",
"96 335 CURVE SMOOTH",
"45 335 OFFCURVE",
"6 321 OFFCURVE",
"-8 283 CURVE"
);
},
{
closed = 1;
nodes = (
"425 565 OFFCURVE",
"375 420 OFFCURVE",
"346 288 CURVE",
"308 297 OFFCURVE",
"262 309 OFFCURVE",
"217 319 CURVE",
"310 485 OFFCURVE",
"404 619 OFFCURVE",
"466 657 CURVE"
);
},
{
closed = 1;
nodes = (
"483 822 OFFCURVE",
"518 787 OFFCURVE",
"547 748 CURVE",
"557 753 OFFCURVE",
"561 768 OFFCURVE",
"561 774 CURVE SMOOTH",
"561 797 OFFCURVE",
"497 895 OFFCURVE",
"457 895 CURVE SMOOTH",
"446 895 OFFCURVE",
"437 888 OFFCURVE",
"435 864 CURVE"
);
}
);
};
hints = (
{
place = "{322, 73}";
},
{
horizontal = 1;
place = "{-30, 44}";
},
{
horizontal = 1;
place = "{283, 52}";
},
{
horizontal = 1;
place = "{-87, 21}";
target = up;
type = BottomGhost;
},
{
horizontal = 1;
place = "{895, -20}";
target = down;
type = TopGhost;
},
{
horizontal = 1;
place = "{720, -20}";
target = down;
type = TopGhost;
}
);
layerId = UUID0;
paths = (
{
closed = 1;
nodes = (
"27 283 LINE SMOOTH",
"52 283 OFFCURVE",
"86 282 OFFCURVE",
"135 278 CURVE",
"50 145 OFFCURVE",
"-17 20 OFFCURVE",
"-17 -35 CURVE SMOOTH",
"-17 -48 OFFCURVE",
"-13 -70 OFFCURVE",
"17 -87 CURVE",
"67 31 OFFCURVE",
"128 157 OFFCURVE",
"191 273 CURVE",
"232 268 OFFCURVE",
"280 262 OFFCURVE",
"339 253 CURVE",
"328 198 OFFCURVE",
"322 147 OFFCURVE",
"322 104 CURVE SMOOTH",
"322 23 OFFCURVE",
"345 -30 OFFCURVE",
"400 -30 CURVE SMOOTH",
"466 -30 OFFCURVE",
"533 45 OFFCURVE",
"573 152 CURVE",
"563 162 LINE",
"511 61 OFFCURVE",
"467 14 OFFCURVE",
"432 14 CURVE SMOOTH",
"405 14 OFFCURVE",
"395 43 OFFCURVE",
"395 94 CURVE SMOOTH",
"395 269 OFFCURVE",
"511 656 OFFCURVE",
"551 688 CURVE",
"531 708 OFFCURVE",
"512 720 OFFCURVE",
"498 720 CURVE SMOOTH",
"485 720 OFFCURVE",
"470 711 OFFCURVE",
"450 692 CURVE SMOOTH",
"388 634 OFFCURVE",
"270 481 OFFCURVE",
"168 328 CURVE",
"142 332 OFFCURVE",
"118 335 OFFCURVE",
"96 335 CURVE SMOOTH",
"45 335 OFFCURVE",
"6 321 OFFCURVE",
"-8 283 CURVE"
);
},
{
closed = 1;
nodes = (
"425 565 OFFCURVE",
"375 420 OFFCURVE",
"346 288 CURVE",
"308 297 OFFCURVE",
"262 309 OFFCURVE",
"217 319 CURVE",
"310 485 OFFCURVE",
"404 619 OFFCURVE",
"466 657 CURVE"
);
},
{
closed = 1;
nodes = (
"483 822 OFFCURVE",
"518 787 OFFCURVE",
"547 748 CURVE",
"557 753 OFFCURVE",
"561 768 OFFCURVE",
"561 774 CURVE SMOOTH",
"561 797 OFFCURVE",
"497 895 OFFCURVE",
"457 895 CURVE SMOOTH",
"446 895 OFFCURVE",
"437 888 OFFCURVE",
"435 864 CURVE"
);
}
);
width = 593;
},
{
hints = (
{
place = "{352, 88}";
},
{
horizontal = 1;
place = "{-29, 58}";
},
{
horizontal = 1;
place = "{279, 65}";
},
{
horizontal = 1;
place = "{-87, 21}";
target = up;
type = BottomGhost;
},
{
horizontal = 1;
place = "{722, -20}";
target = down;
type = TopGhost;
},
{
horizontal = 1;
place = "{946, -20}";
target = down;
type = TopGhost;
}
);
layerId = "FCB63FBD-5C4C-469B-B6FC-091C423BF597";
paths = (
{
closed = 1;
nodes = (
"70 279 OFFCURVE",
"102 278 OFFCURVE",
"147 275 CURVE",
"63 146 OFFCURVE",
"0 28 OFFCURVE",
"0 -25 CURVE SMOOTH",
"0 -41 OFFCURVE",
"6 -66 OFFCURVE",
"46 -87 CURVE",
"97 31 OFFCURVE",
"158 156 OFFCURVE",
"222 269 CURVE",
"263 264 OFFCURVE",
"306 259 OFFCURVE",
"365 250 CURVE",
"355 192 OFFCURVE",
"352 157 OFFCURVE",
"352 126 CURVE SMOOTH",
"352 30 OFFCURVE",
"376 -29 OFFCURVE",
"440 -29 CURVE SMOOTH",
"514 -29 OFFCURVE",
"584 49 OFFCURVE",
"626 159 CURVE",
"608 178 LINE",
"552 72 OFFCURVE",
"506 29 OFFCURVE",
"475 29 CURVE SMOOTH",
"450 29 OFFCURVE",
"440 55 OFFCURVE",
"440 108 CURVE SMOOTH",
"440 279 OFFCURVE",
"555 652 OFFCURVE",
"596 683 CURVE",
"571 706 OFFCURVE",
"547 722 OFFCURVE",
"528 722 CURVE SMOOTH",
"484 722 OFFCURVE",
"336 549 OFFCURVE",
"190 338 CURVE",
"163 341 OFFCURVE",
"139 344 OFFCURVE",
"116 344 CURVE SMOOTH",
"61 344 OFFCURVE",
"18 327 OFFCURVE",
"0 279 CURVE"
);
},
{
closed = 1;
nodes = (
"334 308 OFFCURVE",
"294 318 OFFCURVE",
"254 326 CURVE",
"337 469 OFFCURVE",
"420 586 OFFCURVE",
"481 634 CURVE",
"443 545 OFFCURVE",
"400 417 OFFCURVE",
"375 299 CURVE"
);
},
{
closed = 1;
nodes = (
"474 866 OFFCURVE",
"506 834 OFFCURVE",
"537 797 CURVE",
"553 804 OFFCURVE",
"562 823 OFFCURVE",
"562 833 CURVE SMOOTH",
"562 858 OFFCURVE",
"493 946 OFFCURVE",
"452 946 CURVE SMOOTH",
"437 946 OFFCURVE",
"422 934 OFFCURVE",
"420 907 CURVE"
);
}
);
width = 632;
}
);
leftKerningGroup = A;
rightKerningGroup = A;
unicode = 00C0;
},
{
glyphname = Aring;
lastChange = "2016-08-08 09:29:10 +0000";
layers = (
{
background = {
paths = (
{
closed = 1;
nodes = (
"27 283 LINE SMOOTH",
"52 283 OFFCURVE",
"86 282 OFFCURVE",
"135 278 CURVE",
"50 145 OFFCURVE",
"-17 20 OFFCURVE",
"-17 -35 CURVE SMOOTH",
"-17 -48 OFFCURVE",
"-13 -70 OFFCURVE",
"17 -87 CURVE",
"67 31 OFFCURVE",
"128 157 OFFCURVE",
"191 273 CURVE",
"232 268 OFFCURVE",
"280 262 OFFCURVE",
"339 253 CURVE",
"328 198 OFFCURVE",
"322 147 OFFCURVE",
"322 104 CURVE SMOOTH",
"322 23 OFFCURVE",
"345 -30 OFFCURVE",
"400 -30 CURVE SMOOTH",
"466 -30 OFFCURVE",
"533 45 OFFCURVE",
"573 152 CURVE",
"563 162 LINE",
"511 61 OFFCURVE",
"467 14 OFFCURVE",
"432 14 CURVE SMOOTH",
"405 14 OFFCURVE",
"395 43 OFFCURVE",
"395 94 CURVE SMOOTH",
"395 269 OFFCURVE",
"511 656 OFFCURVE",
"551 688 CURVE",
"531 708 OFFCURVE",
"512 720 OFFCURVE",
"498 720 CURVE SMOOTH",
"485 720 OFFCURVE",
"470 711 OFFCURVE",
"450 692 CURVE SMOOTH",
"388 634 OFFCURVE",
"270 481 OFFCURVE",
"168 328 CURVE",
"142 332 OFFCURVE",
"118 335 OFFCURVE",
"96 335 CURVE SMOOTH",
"45 335 OFFCURVE",
"6 321 OFFCURVE",
"-8 283 CURVE"
);
},
{
closed = 1;
nodes = (
"425 565 OFFCURVE",
"375 420 OFFCURVE",
"346 288 CURVE",
"308 297 OFFCURVE",
"262 309 OFFCURVE",
"217 319 CURVE",
"310 485 OFFCURVE",
"404 619 OFFCURVE",
"466 657 CURVE"
);
},
{
closed = 1;
nodes = (
"506 920 OFFCURVE",
"452 856 OFFCURVE",
"452 808 CURVE SMOOTH",
"452 778 OFFCURVE",
"472 754 OFFCURVE",
"524 754 CURVE SMOOTH",
"592 754 OFFCURVE",
"650 818 OFFCURVE",
"650 866 CURVE SMOOTH",
"650 896 OFFCURVE",
"629 920 OFFCURVE",
"574 920 CURVE SMOOTH"
);
},
{
closed = 1;
nodes = (
"599 897 OFFCURVE",
"613 879 OFFCURVE",
"613 860 CURVE SMOOTH",
"613 825 OFFCURVE",
"572 774 OFFCURVE",
"533 774 CURVE SMOOTH",
"504 774 OFFCURVE",
"491 797 OFFCURVE",
"491 815 CURVE SMOOTH",
"491 851 OFFCURVE",
"529 897 OFFCURVE",
"569 897 CURVE SMOOTH"
);
}
);
};
hints = (
{
place = "{322, 73}";
},
{
place = "{452, 39}";
},
{
place = "{613, 37}";
},
{
horizontal = 1;
place = "{-30, 44}";
},
{
horizontal = 1;
place = "{283, 52}";
},
{
horizontal = 1;
place = "{754, 20}";
},
{
horizontal = 1;
place = "{897, 23}";
},
{
horizontal = 1;
place = "{-87, 21}";
target = up;
type = BottomGhost;
},
{
horizontal = 1;
place = "{720, -20}";
target = down;
type = TopGhost;
}
);
layerId = UUID0;
paths = (
{
closed = 1;
nodes = (
"27 283 LINE SMOOTH",
"52 283 OFFCURVE",
"86 282 OFFCURVE",
"135 278 CURVE",
"50 145 OFFCURVE",
"-17 20 OFFCURVE",
"-17 -35 CURVE SMOOTH",
"-17 -48 OFFCURVE",
"-13 -70 OFFCURVE",
"17 -87 CURVE",
"67 31 OFFCURVE",
"128 157 OFFCURVE",
"191 273 CURVE",
"232 268 OFFCURVE",
"280 262 OFFCURVE",
"339 253 CURVE",
"328 198 OFFCURVE",
"322 147 OFFCURVE",
"322 104 CURVE SMOOTH",
"322 23 OFFCURVE",
"345 -30 OFFCURVE",
"400 -30 CURVE SMOOTH",
"466 -30 OFFCURVE",
"533 45 OFFCURVE",
"573 152 CURVE",
"563 162 LINE",
"511 61 OFFCURVE",
"467 14 OFFCURVE",
"432 14 CURVE SMOOTH",
"405 14 OFFCURVE",
"395 43 OFFCURVE",
"395 94 CURVE SMOOTH",
"395 269 OFFCURVE",
"511 656 OFFCURVE",
"551 688 CURVE",
"531 708 OFFCURVE",
"512 720 OFFCURVE",
"498 720 CURVE SMOOTH",
"485 720 OFFCURVE",
"470 711 OFFCURVE",
"450 692 CURVE SMOOTH",
"388 634 OFFCURVE",
"270 481 OFFCURVE",
"168 328 CURVE",
"142 332 OFFCURVE",
"118 335 OFFCURVE",
"96 335 CURVE SMOOTH",
"45 335 OFFCURVE",
"6 321 OFFCURVE",
"-8 283 CURVE"
);
},
{
closed = 1;
nodes = (
"425 565 OFFCURVE",
"375 420 OFFCURVE",
"346 288 CURVE",
"308 297 OFFCURVE",
"262 309 OFFCURVE",
"217 319 CURVE",
"310 485 OFFCURVE",
"404 619 OFFCURVE",
"466 657 CURVE"
);
},
{
closed = 1;
nodes = (
"506 920 OFFCURVE",
"452 856 OFFCURVE",
"452 808 CURVE SMOOTH",
"452 778 OFFCURVE",
"472 754 OFFCURVE",
"524 754 CURVE SMOOTH",
"592 754 OFFCURVE",
"650 818 OFFCURVE",
"650 866 CURVE SMOOTH",
"650 896 OFFCURVE",
"629 920 OFFCURVE",
"574 920 CURVE SMOOTH"
);
},
{
closed = 1;
nodes = (
"599 897 OFFCURVE",
"613 879 OFFCURVE",
"613 860 CURVE SMOOTH",
"613 825 OFFCURVE",
"572 774 OFFCURVE",
"533 774 CURVE SMOOTH",
"504 774 OFFCURVE",
"491 797 OFFCURVE",
"491 815 CURVE SMOOTH",
"491 851 OFFCURVE",
"529 897 OFFCURVE",
"569 897 CURVE SMOOTH"
);
}
);
width = 593;
},
{
hints = (
{
place = "{352, 88}";
},
{
place = "{499, 206}";
},
{
place = "{654, 51}";
},
{
horizontal = 1;
place = "{-29, 58}";
},
{
horizontal = 1;
place = "{279, 65}";
},
{
horizontal = 1;
place = "{784, 35}";
},
{
horizontal = 1;
place = "{912, 38}";
},
{
horizontal = 1;
place = "{-87, 21}";
target = up;
type = BottomGhost;
},
{
horizontal = 1;
place = "{722, -20}";
target = down;
type = TopGhost;
}
);
layerId = "FCB63FBD-5C4C-469B-B6FC-091C423BF597";
paths = (
{
closed = 1;
nodes = (
"70 279 OFFCURVE",
"102 278 OFFCURVE",
"147 275 CURVE",
"63 146 OFFCURVE",
"0 28 OFFCURVE",
"0 -25 CURVE SMOOTH",
"0 -41 OFFCURVE",
"6 -66 OFFCURVE",
"46 -87 CURVE",
"97 31 OFFCURVE",
"158 156 OFFCURVE",
"222 269 CURVE",
"263 264 OFFCURVE",
"306 259 OFFCURVE",
"365 250 CURVE",
"355 192 OFFCURVE",
"352 157 OFFCURVE",
"352 126 CURVE SMOOTH",
"352 30 OFFCURVE",
"376 -29 OFFCURVE",
"440 -29 CURVE SMOOTH",
"514 -29 OFFCURVE",
"584 49 OFFCURVE",
"626 159 CURVE",
"608 178 LINE",
"552 72 OFFCURVE",
"506 29 OFFCURVE",
"475 29 CURVE SMOOTH",
"450 29 OFFCURVE",
"440 55 OFFCURVE",
"440 108 CURVE SMOOTH",
"440 279 OFFCURVE",
"555 652 OFFCURVE",
"596 683 CURVE",
"571 706 OFFCURVE",
"547 722 OFFCURVE",
"528 722 CURVE SMOOTH",
"484 722 OFFCURVE",
"336 549 OFFCURVE",
"190 338 CURVE",
"163 341 OFFCURVE",
"139 344 OFFCURVE",
"116 344 CURVE SMOOTH",
"61 344 OFFCURVE",
"18 327 OFFCURVE",
"0 279 CURVE"
);
},
{
closed = 1;
nodes = (
"334 308 OFFCURVE",
"294 318 OFFCURVE",
"254 326 CURVE",
"337 469 OFFCURVE",
"420 586 OFFCURVE",
"481 634 CURVE",
"443 545 OFFCURVE",
"400 417 OFFCURVE",
"375 299 CURVE"
);
},
{
closed = 1;
nodes = (
"552 950 OFFCURVE",
"499 887 OFFCURVE",
"499 841 CURVE SMOOTH",
"499 809 OFFCURVE",
"523 784 OFFCURVE",
"577 784 CURVE SMOOTH",
"648 784 OFFCURVE",
"705 846 OFFCURVE",
"705 893 CURVE SMOOTH",
"705 924 OFFCURVE",
"681 950 OFFCURVE",
"623 950 CURVE SMOOTH"
);
},
{
closed = 1;
nodes = (
"644 912 OFFCURVE",
"654 899 OFFCURVE",
"654 886 CURVE SMOOTH",
"654 858 OFFCURVE",
"619 819 OFFCURVE",
"585 819 CURVE SMOOTH",
"562 819 OFFCURVE",
"552 835 OFFCURVE",
"551 847 CURVE",
"551 875 OFFCURVE",
"584 912 OFFCURVE",
"619 912 CURVE SMOOTH"
);
}
);
width = 632;
}
);
leftKerningGroup = A;
rightKerningGroup = A;
unicode = 00C5;
},
{
glyphname = Atilde;
lastChange = "2016-08-08 09:29:10 +0000";
layers = (
{
background = {
paths = (
{
closed = 1;
nodes = (
"27 283 LINE SMOOTH",
"52 283 OFFCURVE",
"86 282 OFFCURVE",
"135 278 CURVE",
"50 145 OFFCURVE",
"-17 20 OFFCURVE",
"-17 -35 CURVE SMOOTH",
"-17 -48 OFFCURVE",
"-13 -70 OFFCURVE",
"17 -87 CURVE",
"67 31 OFFCURVE",
"128 157 OFFCURVE",
"191 273 CURVE",
"232 268 OFFCURVE",
"280 262 OFFCURVE",
"339 253 CURVE",
"328 198 OFFCURVE",
"322 147 OFFCURVE",
"322 104 CURVE SMOOTH",
"322 23 OFFCURVE",
"345 -30 OFFCURVE",
"400 -30 CURVE SMOOTH",
"466 -30 OFFCURVE",
"533 45 OFFCURVE",
"573 152 CURVE",
"563 162 LINE",
"511 61 OFFCURVE",
"467 14 OFFCURVE",
"432 14 CURVE SMOOTH",
"405 14 OFFCURVE",
"395 43 OFFCURVE",
"395 94 CURVE SMOOTH",
"395 269 OFFCURVE",
"511 656 OFFCURVE",
"551 688 CURVE",
"531 708 OFFCURVE",
"512 720 OFFCURVE",
"498 720 CURVE SMOOTH",
"485 720 OFFCURVE",
"470 711 OFFCURVE",
"450 692 CURVE SMOOTH",
"388 634 OFFCURVE",
"270 481 OFFCURVE",
"168 328 CURVE",
"142 332 OFFCURVE",
"118 335 OFFCURVE",
"96 335 CURVE SMOOTH",
"45 335 OFFCURVE",
"6 321 OFFCURVE",
"-8 283 CURVE"
);
},
{
closed = 1;
nodes = (
"425 565 OFFCURVE",
"375 420 OFFCURVE",
"346 288 CURVE",
"308 297 OFFCURVE",
"262 309 OFFCURVE",
"217 319 CURVE",
"310 485 OFFCURVE",
"404 619 OFFCURVE",
"466 657 CURVE"
);
},
{
closed = 1;
nodes = (
"388 765 OFFCURVE",
"403 767 OFFCURVE",
"419 767 CURVE SMOOTH",
"482 767 OFFCURVE",
"545 728 OFFCURVE",
"602 728 CURVE SMOOTH",
"630 728 OFFCURVE",
"656 737 OFFCURVE",
"680 764 CURVE",
"670 762 OFFCURVE",
"660 761 OFFCURVE",
"650 761 CURVE SMOOTH",
"576 761 OFFCURVE",
"512 805 OFFCURVE",
"456 805 CURVE SMOOTH",
"426 805 OFFCURVE",
"399 793 OFFCURVE",
"373 759 CURVE"
);
}
);
};
hints = (
{
place = "{322, 73}";
},
{
horizontal = 1;
place = "{-30, 44}";
},
{
horizontal = 1;
place = "{283, 52}";
},
{
horizontal = 1;
place = "{728, 33}";
},
{
horizontal = 1;
place = "{767, 38}";
},
{
horizontal = 1;
place = "{-87, 21}";
target = up;
type = BottomGhost;
},
{
horizontal = 1;
place = "{720, -20}";
target = down;
type = TopGhost;
}
);
layerId = UUID0;
paths = (
{
closed = 1;
nodes = (
"27 283 LINE SMOOTH",
"52 283 OFFCURVE",
"86 282 OFFCURVE",
"135 278 CURVE",
"50 145 OFFCURVE",
"-17 20 OFFCURVE",
"-17 -35 CURVE SMOOTH",
"-17 -48 OFFCURVE",
"-13 -70 OFFCURVE",
"17 -87 CURVE",
"67 31 OFFCURVE",
"128 157 OFFCURVE",
"191 273 CURVE",
"232 268 OFFCURVE",
"280 262 OFFCURVE",
"339 253 CURVE",
"328 198 OFFCURVE",
"322 147 OFFCURVE",
"322 104 CURVE SMOOTH",
"322 23 OFFCURVE",
"345 -30 OFFCURVE",
"400 -30 CURVE SMOOTH",
"466 -30 OFFCURVE",
"533 45 OFFCURVE",
"573 152 CURVE",
"563 162 LINE",
"511 61 OFFCURVE",
"467 14 OFFCURVE",
"432 14 CURVE SMOOTH",
"405 14 OFFCURVE",
"395 43 OFFCURVE",
"395 94 CURVE SMOOTH",
"395 269 OFFCURVE",
"511 656 OFFCURVE",
"551 688 CURVE",
"531 708 OFFCURVE",
"512 720 OFFCURVE",
"498 720 CURVE SMOOTH",
"485 720 OFFCURVE",
"470 711 OFFCURVE",
"450 692 CURVE SMOOTH",
"388 634 OFFCURVE",
"270 481 OFFCURVE",
"168 328 CURVE",
"142 332 OFFCURVE",
"118 335 OFFCURVE",
"96 335 CURVE SMOOTH",
"45 335 OFFCURVE",
"6 321 OFFCURVE",
"-8 283 CURVE"
);
},
{
closed = 1;
nodes = (
"425 565 OFFCURVE",
"375 420 OFFCURVE",
"346 288 CURVE",
"308 297 OFFCURVE",
"262 309 OFFCURVE",
"217 319 CURVE",
"310 485 OFFCURVE",
"404 619 OFFCURVE",
"466 657 CURVE"
);
},
{
closed = 1;
nodes = (
"388 765 OFFCURVE",
"403 767 OFFCURVE",
"419 767 CURVE SMOOTH",
"482 767 OFFCURVE",
"545 728 OFFCURVE",
"602 728 CURVE SMOOTH",
"630 728 OFFCURVE",
"656 737 OFFCURVE",
"680 764 CURVE",
"670 762 OFFCURVE",
"660 761 OFFCURVE",
"650 761 CURVE SMOOTH",
"576 761 OFFCURVE",
"512 805 OFFCURVE",
"456 805 CURVE SMOOTH",
"426 805 OFFCURVE",
"399 793 OFFCURVE",
"373 759 CURVE"
);
}
);
width = 593;
},
{
hints = (
{
place = "{352, 88}";
},
{
horizontal = 1;
place = "{-29, 58}";
},
{
horizontal = 1;
place = "{279, 65}";
},
{
horizontal = 1;
place = "{772, 47}";
},
{
horizontal = 1;
place = "{810, 49}";
},
{
horizontal = 1;
place = "{-87, 21}";
target = up;
type = BottomGhost;
},
{
horizontal = 1;
place = "{722, -20}";
target = down;
type = TopGhost;
}
);
layerId = "FCB63FBD-5C4C-469B-B6FC-091C423BF597";
paths = (
{
closed = 1;
nodes = (
"70 279 OFFCURVE",
"102 278 OFFCURVE",
"147 275 CURVE",
"63 146 OFFCURVE",
"0 28 OFFCURVE",
"0 -25 CURVE SMOOTH",
"0 -41 OFFCURVE",
"6 -66 OFFCURVE",
"46 -87 CURVE",
"97 31 OFFCURVE",
"158 156 OFFCURVE",
"222 269 CURVE",
"263 264 OFFCURVE",
"306 259 OFFCURVE",
"365 250 CURVE",
"355 192 OFFCURVE",
"352 157 OFFCURVE",
"352 126 CURVE SMOOTH",
"352 30 OFFCURVE",
"376 -29 OFFCURVE",
"440 -29 CURVE SMOOTH",
"514 -29 OFFCURVE",
"584 49 OFFCURVE",
"626 159 CURVE",
"608 178 LINE",
"552 72 OFFCURVE",
"506 29 OFFCURVE",
"475 29 CURVE SMOOTH",
"450 29 OFFCURVE",
"440 55 OFFCURVE",
"440 108 CURVE SMOOTH",
"440 279 OFFCURVE",
"555 652 OFFCURVE",
"596 683 CURVE",
"571 706 OFFCURVE",
"547 722 OFFCURVE",
"528 722 CURVE SMOOTH",
"484 722 OFFCURVE",
"336 549 OFFCURVE",
"190 338 CURVE",
"163 341 OFFCURVE",
"139 344 OFFCURVE",
"116 344 CURVE SMOOTH",
"61 344 OFFCURVE",
"18 327 OFFCURVE",
"0 279 CURVE"
);
},
{
closed = 1;
nodes = (
"334 308 OFFCURVE",
"294 318 OFFCURVE",
"254 326 CURVE",
"337 469 OFFCURVE",
"420 586 OFFCURVE",
"481 634 CURVE",
"443 545 OFFCURVE",
"400 417 OFFCURVE",
"375 299 CURVE"
);
},
{
closed = 1;
nodes = (
"418 809 OFFCURVE",
"428 810 OFFCURVE",
"440 810 CURVE SMOOTH",
"498 810 OFFCURVE",
"570 772 OFFCURVE",
"631 772 CURVE SMOOTH",
"656 772 OFFCURVE",
"685 786 OFFCURVE",
"723 826 CURVE",
"694 821 OFFCURVE",
"663 819 OFFCURVE",
"655 819 CURVE SMOOTH",
"588 819 OFFCURVE",
"528 859 OFFCURVE",
"468 859 CURVE SMOOTH",
"441 859 OFFCURVE",
"401 829 OFFCURVE",
"378 802 CURVE"
);
}
);
width = 632;
}
);
leftKerningGroup = A;
rightKerningGroup = A;
unicode = 00C3;
},
{
glyphname = B;
lastChange = "2016-08-08 09:29:10 +0000";
layers = (
{
background = {
paths = (
{
closed = 1;
nodes = (
"564 700 OFFCURVE",
"422 720 OFFCURVE",
"333 720 CURVE SMOOTH",
"229 720 OFFCURVE",
"163 693 OFFCURVE",
"96 665 CURVE",
"96 655 OFFCURVE",
"118 638 OFFCURVE",
"128 638 CURVE SMOOTH",
"141 638 OFFCURVE",
"182 677 OFFCURVE",
"266 692 CURVE",
"178 521 OFFCURVE",
"74 197 OFFCURVE",
"54 131 CURVE SMOOTH",
"49 114 OFFCURVE",
"40 90 OFFCURVE",
"40 74 CURVE SMOOTH",
"40 47 OFFCURVE",
"66 26 OFFCURVE",
"99 26 CURVE",
"129 129 OFFCURVE",
"158 240 OFFCURVE",
"189 348 CURVE",
"211 348 OFFCURVE",
"238 349 OFFCURVE",
"264 349 CURVE SMOOTH",
"378 349 OFFCURVE",
"516 332 OFFCURVE",
"516 223 CURVE SMOOTH",
"516 102 OFFCURVE",
"348 -14 OFFCURVE",
"118 -14 CURVE SMOOTH",
"50 -14 OFFCURVE",
"33 -4 OFFCURVE",
"24 -4 CURVE SMOOTH",
"21 -4 OFFCURVE",
"19 -5 OFFCURVE",
"19 -7 CURVE SMOOTH",
"19 -64 OFFCURVE",
"57 -87 OFFCURVE",
"130 -87 CURVE SMOOTH",
"279 -87 OFFCURVE",
"563 10 OFFCURVE",
"563 205 CURVE SMOOTH",
"563 268 OFFCURVE",
"533 354 OFFCURVE",
"335 366 CURVE",
"438 383 OFFCURVE",
"564 430 OFFCURVE",
"564 561 CURVE SMOOTH"
);
},
{
closed = 1;
nodes = (
"421 699 OFFCURVE",
"504 673 OFFCURVE",
"504 569 CURVE SMOOTH",
"504 423 OFFCURVE",
"341 376 OFFCURVE",
"195 371 CURVE",
"230 490 OFFCURVE",
"268 604 OFFCURVE",
"316 698 CURVE",
"322 699 OFFCURVE",
"328 699 OFFCURVE",
"335 699 CURVE SMOOTH"
);
}
);
};
hints = (
{
place = "{504, 59}";
},
{
place = "{516, 47}";
},
{
horizontal = 1;
place = "{-87, 73}";
},
{
horizontal = 1;
place = "{699, 21}";
},
{
horizontal = 1;
place = "{348, -20}";
target = down;
type = TopGhost;
},
{
horizontal = 1;
place = "{349, -20}";
target = down;
type = TopGhost;
},
{
horizontal = 1;
place = "{-4, 21}";
target = up;
type = BottomGhost;
}
);
layerId = UUID0;
paths = (
{
closed = 1;
nodes = (
"564 700 OFFCURVE",
"422 720 OFFCURVE",
"333 720 CURVE SMOOTH",
"229 720 OFFCURVE",
"163 693 OFFCURVE",
"96 665 CURVE",
"96 655 OFFCURVE",
"118 638 OFFCURVE",
"128 638 CURVE SMOOTH",
"141 638 OFFCURVE",
"182 677 OFFCURVE",
"266 692 CURVE",
"178 521 OFFCURVE",
"74 197 OFFCURVE",
"54 131 CURVE SMOOTH",
"49 114 OFFCURVE",
"40 90 OFFCURVE",
"40 74 CURVE SMOOTH",
"40 47 OFFCURVE",
"66 26 OFFCURVE",
"99 26 CURVE",
"129 129 OFFCURVE",
"158 240 OFFCURVE",
"189 348 CURVE",
"211 348 OFFCURVE",
"238 349 OFFCURVE",
"264 349 CURVE SMOOTH",
"378 349 OFFCURVE",
"516 332 OFFCURVE",
"516 223 CURVE SMOOTH",
"516 102 OFFCURVE",
"348 -14 OFFCURVE",
"118 -14 CURVE SMOOTH",
"50 -14 OFFCURVE",
"33 -4 OFFCURVE",
"24 -4 CURVE SMOOTH",
"21 -4 OFFCURVE",
"19 -5 OFFCURVE",
"19 -7 CURVE SMOOTH",
"19 -64 OFFCURVE",
"57 -87 OFFCURVE",
"130 -87 CURVE SMOOTH",
"279 -87 OFFCURVE",
"563 10 OFFCURVE",
"563 205 CURVE SMOOTH",
"563 268 OFFCURVE",
"533 354 OFFCURVE",
"335 366 CURVE",
"438 383 OFFCURVE",
"564 430 OFFCURVE",
"564 561 CURVE SMOOTH"
);
},
{
closed = 1;
nodes = (
"421 699 OFFCURVE",
"504 673 OFFCURVE",
"504 569 CURVE SMOOTH",
"504 423 OFFCURVE",
"341 376 OFFCURVE",
"195 371 CURVE",
"230 490 OFFCURVE",
"268 604 OFFCURVE",
"316 698 CURVE",
"322 699 OFFCURVE",
"328 699 OFFCURVE",
"335 699 CURVE SMOOTH"
);
}
);
width = 609;
},
{
background = {
paths = (
{
closed = 1;
nodes = (
"585 700 OFFCURVE",
"443 720 OFFCURVE",
"354 720 CURVE SMOOTH",
"250 720 OFFCURVE",
"184 693 OFFCURVE",
"117 665 CURVE",
"117 655 OFFCURVE",
"139 638 OFFCURVE",
"149 638 CURVE SMOOTH",
"162 638 OFFCURVE",
"203 677 OFFCURVE",
"287 692 CURVE",
"199 521 OFFCURVE",
"95 197 OFFCURVE",
"75 131 CURVE SMOOTH",
"70 114 OFFCURVE",
"61 90 OFFCURVE",
"61 74 CURVE SMOOTH",
"61 47 OFFCURVE",
"87 26 OFFCURVE",
"120 26 CURVE",
"150 129 OFFCURVE",
"179 240 OFFCURVE",
"210 348 CURVE",
"232 348 OFFCURVE",
"259 349 OFFCURVE",
"285 349 CURVE SMOOTH",
"399 349 OFFCURVE",
"537 332 OFFCURVE",
"537 223 CURVE SMOOTH",
"537 102 OFFCURVE",
"369 -14 OFFCURVE",
"139 -14 CURVE SMOOTH",
"71 -14 OFFCURVE",
"54 -4 OFFCURVE",
"45 -4 CURVE SMOOTH",
"42 -4 OFFCURVE",
"40 -5 OFFCURVE",
"40 -7 CURVE SMOOTH",
"40 -64 OFFCURVE",
"78 -87 OFFCURVE",
"151 -87 CURVE SMOOTH",
"300 -87 OFFCURVE",
"584 10 OFFCURVE",
"584 205 CURVE SMOOTH",
"584 268 OFFCURVE",
"554 354 OFFCURVE",
"356 366 CURVE",
"459 383 OFFCURVE",
"585 430 OFFCURVE",
"585 561 CURVE SMOOTH"
);
},
{
closed = 1;
nodes = (
"442 699 OFFCURVE",
"525 673 OFFCURVE",
"525 569 CURVE SMOOTH",
"525 423 OFFCURVE",
"362 376 OFFCURVE",
"216 371 CURVE",
"251 490 OFFCURVE",
"289 604 OFFCURVE",
"337 698 CURVE",
"343 699 OFFCURVE",
"349 699 OFFCURVE",
"356 699 CURVE SMOOTH"
);
}
);
};
hints = (
{
place = "{535, 82}";
},
{
place = "{555, 62}";
},
{
horizontal = 1;
place = "{-87, 87}";
},
{
horizontal = 1;
place = "{341, 37}";
},
{
horizontal = 1;
place = "{625, 95}";
},
{
horizontal = 1;
place = "{685, 35}";
},
{
horizontal = 1;
place = "{340, -20}";
target = down;
type = TopGhost;
}
);
layerId = "FCB63FBD-5C4C-469B-B6FC-091C423BF597";
paths = (
{
closed = 1;
nodes = (
"611 700 OFFCURVE",
"455 720 OFFCURVE",
"360 720 CURVE SMOOTH",
"250 720 OFFCURVE",
"180 693 OFFCURVE",
"108 664 CURVE",
"108 650 OFFCURVE",
"135 625 OFFCURVE",
"148 625 CURVE SMOOTH",
"164 625 OFFCURVE",
"198 658 OFFCURVE",
"278 676 CURVE",
"190 505 OFFCURVE",
"96 199 OFFCURVE",
"75 137 CURVE SMOOTH",
"71 125 LINE SMOOTH",
"66 111 OFFCURVE",
"61 91 OFFCURVE",
"61 79 CURVE SMOOTH",
"61 48 OFFCURVE",
"95 24 OFFCURVE",
"135 24 CURVE",
"165 128 OFFCURVE",
"192 239 OFFCURVE",
"222 340 CURVE",
"244 340 OFFCURVE",
"271 341 OFFCURVE",
"296 341 CURVE SMOOTH",
"414 341 OFFCURVE",
"555 326 OFFCURVE",
"555 222 CURVE SMOOTH",
"555 108 OFFCURVE",
"385 0 OFFCURVE",
"150 0 CURVE SMOOTH",
"81 0 OFFCURVE",
"64 9 OFFCURVE",
"52 9 CURVE SMOOTH",
"45 9 OFFCURVE",
"41 6 OFFCURVE",
"41 -1 CURVE SMOOTH",
"42 -62 OFFCURVE",
"84 -87 OFFCURVE",
"165 -87 CURVE SMOOTH",
"326 -87 OFFCURVE",
"617 11 OFFCURVE",
"617 207 CURVE SMOOTH",
"617 267 OFFCURVE",
"568 346 OFFCURVE",
"402 368 CURVE",
"499 391 OFFCURVE",
"611 443 OFFCURVE",
"611 557 CURVE SMOOTH"
);
},
{
closed = 1;
nodes = (
"535 430 OFFCURVE",
"382 384 OFFCURVE",
"232 378 CURVE",
"265 489 OFFCURVE",
"301 596 OFFCURVE",
"347 685 CURVE",
"444 685 OFFCURVE",
"535 662 OFFCURVE",
"535 565 CURVE SMOOTH"
);
}
);
width = 651;
}
);
unicode = 0042;
},
{
glyphname = C;
lastChange = "2016-08-08 09:29:10 +0000";
layers = (
{
background = {
paths = (
{
closed = 1;
nodes = (
"470 689 OFFCURVE",
"485 671 OFFCURVE",
"485 644 CURVE SMOOTH",
"485 587 OFFCURVE",
"419 489 OFFCURVE",
"378 443 CURVE",
"386 426 OFFCURVE",
"398 420 OFFCURVE",
"409 420 CURVE SMOOTH",
"464 420 OFFCURVE",
"525 555 OFFCURVE",
"525 633 CURVE SMOOTH",
"525 695 OFFCURVE",
"487 719 OFFCURVE",
"433 719 CURVE SMOOTH",
"243 719 OFFCURVE",
"22 421 OFFCURVE",
"22 157 CURVE SMOOTH",
"22 35 OFFCURVE",
"77 -87 OFFCURVE",
"219 -87 CURVE SMOOTH",
"353 -87 OFFCURVE",
"462 21 OFFCURVE",
"529 152 CURVE",
"515 162 LINE",
"462 48 OFFCURVE",
"349 -53 OFFCURVE",
"243 -53 CURVE SMOOTH",
"142 -53 OFFCURVE",
"102 41 OFFCURVE",
"102 140 CURVE SMOOTH",
"102 365 OFFCURVE",
"292 689 OFFCURVE",
"436 689 CURVE SMOOTH"
);
}
);
};
hints = (
{
place = "{22, 80}";
},
{
place = "{485, 40}";
},
{
horizontal = 1;
place = "{-87, 34}";
},
{
horizontal = 1;
place = "{689, 30}";
}
);
layerId = UUID0;
paths = (
{
closed = 1;
nodes = (
"470 689 OFFCURVE",
"485 671 OFFCURVE",
"485 644 CURVE SMOOTH",
"485 587 OFFCURVE",
"419 489 OFFCURVE",
"378 443 CURVE",
"386 426 OFFCURVE",
"398 420 OFFCURVE",
"409 420 CURVE SMOOTH",
"464 420 OFFCURVE",
"525 555 OFFCURVE",
"525 633 CURVE SMOOTH",
"525 695 OFFCURVE",
"487 719 OFFCURVE",
"433 719 CURVE SMOOTH",
"243 719 OFFCURVE",
"22 421 OFFCURVE",
"22 157 CURVE SMOOTH",
"22 35 OFFCURVE",
"77 -87 OFFCURVE",
"219 -87 CURVE SMOOTH",
"353 -87 OFFCURVE",
"462 21 OFFCURVE",
"529 152 CURVE",
"515 162 LINE",
"462 48 OFFCURVE",
"349 -53 OFFCURVE",
"243 -53 CURVE SMOOTH",
"142 -53 OFFCURVE",
"102 41 OFFCURVE",
"102 140 CURVE SMOOTH",
"102 365 OFFCURVE",
"292 689 OFFCURVE",
"436 689 CURVE SMOOTH"
);
}
);
width = 535;
},
{
background = {
paths = (
{
closed = 1;
nodes = (
"478 689 OFFCURVE",
"493 671 OFFCURVE",
"493 644 CURVE SMOOTH",
"493 587 OFFCURVE",
"427 489 OFFCURVE",
"386 443 CURVE",
"394 426 OFFCURVE",
"406 420 OFFCURVE",
"417 420 CURVE SMOOTH",
"472 420 OFFCURVE",
"533 555 OFFCURVE",
"533 633 CURVE SMOOTH",
"533 695 OFFCURVE",
"495 719 OFFCURVE",
"441 719 CURVE SMOOTH",
"251 719 OFFCURVE",
"30 421 OFFCURVE",
"30 157 CURVE SMOOTH",
"30 35 OFFCURVE",
"85 -87 OFFCURVE",
"227 -87 CURVE SMOOTH",
"361 -87 OFFCURVE",
"470 21 OFFCURVE",
"537 152 CURVE",
"523 162 LINE",
"470 48 OFFCURVE",
"357 -53 OFFCURVE",
"251 -53 CURVE SMOOTH",
"150 -53 OFFCURVE",
"110 41 OFFCURVE",
"110 140 CURVE SMOOTH",
"110 365 OFFCURVE",
"300 689 OFFCURVE",
"444 689 CURVE SMOOTH"
);
}
);
};
hints = (
{
place = "{32, 97}";
},
{
place = "{506, 55}";
},
{
horizontal = 1;
place = "{-87, 48}";
},
{
horizontal = 1;
place = "{675, 44}";
}
);
layerId = "FCB63FBD-5C4C-469B-B6FC-091C423BF597";
paths = (
{
closed = 1;
nodes = (
"494 675 OFFCURVE",
"506 660 OFFCURVE",
"506 636 CURVE SMOOTH",
"506 582 OFFCURVE",
"438 487 OFFCURVE",
"397 442 CURVE",
"409 419 OFFCURVE",
"424 411 OFFCURVE",
"438 411 CURVE SMOOTH",
"499 411 OFFCURVE",
"561 548 OFFCURVE",
"561 628 CURVE SMOOTH",
"561 694 OFFCURVE",
"516 719 OFFCURVE",
"457 719 CURVE SMOOTH",
"252 719 OFFCURVE",
"32 423 OFFCURVE",
"32 160 CURVE SMOOTH",
"32 37 OFFCURVE",
"97 -87 OFFCURVE",
"250 -87 CURVE SMOOTH",
"392 -87 OFFCURVE",
"507 24 OFFCURVE",
"577 158 CURVE",
"551 175 LINE",
"497 62 OFFCURVE",
"382 -39 OFFCURVE",
"274 -39 CURVE SMOOTH",
"169 -39 OFFCURVE",
"129 55 OFFCURVE",
"129 151 CURVE SMOOTH",
"129 369 OFFCURVE",
"315 675 OFFCURVE",
"461 675 CURVE SMOOTH"
);
}
);
width = 571;
}
);
leftKerningGroup = C;
rightKerningGroup = C;
unicode = 0043;
},
{
glyphname = Ccedilla;
lastChange = "2016-08-08 09:29:10 +0000";
layers = (
{
background = {
paths = (
{
closed = 1;
nodes = (
"470 689 OFFCURVE",
"485 671 OFFCURVE",
"485 644 CURVE SMOOTH",
"485 587 OFFCURVE",
"419 489 OFFCURVE",
"378 443 CURVE",
"386 426 OFFCURVE",
"398 420 OFFCURVE",
"409 420 CURVE SMOOTH",
"464 420 OFFCURVE",
"525 555 OFFCURVE",
"525 633 CURVE SMOOTH",
"525 695 OFFCURVE",
"487 719 OFFCURVE",
"433 719 CURVE SMOOTH",
"243 719 OFFCURVE",
"22 421 OFFCURVE",
"22 157 CURVE SMOOTH",
"22 35 OFFCURVE",
"77 -87 OFFCURVE",
"219 -87 CURVE SMOOTH",
"277 -87 OFFCURVE",
"331 -66 OFFCURVE",
"379 -32 CURVE",
"369 -46 OFFCURVE",
"361 -58 OFFCURVE",
"361 -60 CURVE SMOOTH",
"361 -67 OFFCURVE",
"366 -78 OFFCURVE",
"375 -78 CURVE SMOOTH",
"387 -78 OFFCURVE",
"433 -37 OFFCURVE",
"460 -37 CURVE SMOOTH",
"473 -37 OFFCURVE",
"477 -52 OFFCURVE",
"477 -62 CURVE SMOOTH",
"477 -97 OFFCURVE",
"432 -149 OFFCURVE",
"394 -149 CURVE SMOOTH",
"377 -149 OFFCURVE",
"359 -136 OFFCURVE",
"352 -104 CURVE",
"337 -115 OFFCURVE",
"330 -127 OFFCURVE",
"330 -137 CURVE SMOOTH",
"330 -156 OFFCURVE",
"352 -173 OFFCURVE",
"391 -173 CURVE SMOOTH",
"453 -173 OFFCURVE",
"508 -118 OFFCURVE",
"508 -61 CURVE SMOOTH",
"508 -33 OFFCURVE",
"493 -19 OFFCURVE",
"463 -19 CURVE SMOOTH",
"431 -19 OFFCURVE",
"410 -33 OFFCURVE",
"396 -43 CURVE",
"435 17 LINE",
"472 56 OFFCURVE",
"503 102 OFFCURVE",
"529 152 CURVE",
"515 162 LINE",
"462 48 OFFCURVE",
"349 -53 OFFCURVE",
"243 -53 CURVE SMOOTH",
"142 -53 OFFCURVE",
"102 41 OFFCURVE",
"102 140 CURVE SMOOTH",
"102 365 OFFCURVE",
"292 689 OFFCURVE",
"436 689 CURVE SMOOTH"
);
}
);
};
hints = (
{
place = "{22, 80}";
},
{
place = "{330, 178}";
},
{
place = "{485, 23}";
},
{
place = "{485, 40}";
},
{
horizontal = 1;
place = "{-173, 24}";
},
{
horizontal = 1;
place = "{-87, 34}";
},
{
horizontal = 1;
place = "{689, 30}";
},
{
horizontal = 1;
place = "{-87, 68}";
},
{
horizontal = 1;
place = "{-37, 21}";
target = up;
type = BottomGhost;
}
);
layerId = UUID0;
paths = (
{
closed = 1;
nodes = (
"470 689 OFFCURVE",
"485 671 OFFCURVE",
"485 644 CURVE SMOOTH",
"485 587 OFFCURVE",
"419 489 OFFCURVE",
"378 443 CURVE",
"386 426 OFFCURVE",
"398 420 OFFCURVE",
"409 420 CURVE SMOOTH",
"464 420 OFFCURVE",
"525 555 OFFCURVE",
"525 633 CURVE SMOOTH",
"525 695 OFFCURVE",
"487 719 OFFCURVE",
"433 719 CURVE SMOOTH",
"243 719 OFFCURVE",
"22 421 OFFCURVE",
"22 157 CURVE SMOOTH",
"22 35 OFFCURVE",
"77 -87 OFFCURVE",
"219 -87 CURVE SMOOTH",
"277 -87 OFFCURVE",
"331 -66 OFFCURVE",
"379 -32 CURVE",
"369 -46 OFFCURVE",
"361 -58 OFFCURVE",
"361 -60 CURVE SMOOTH",
"361 -67 OFFCURVE",
"366 -78 OFFCURVE",
"375 -78 CURVE SMOOTH",
"387 -78 OFFCURVE",
"433 -37 OFFCURVE",
"460 -37 CURVE SMOOTH",
"473 -37 OFFCURVE",
"477 -52 OFFCURVE",
"477 -62 CURVE SMOOTH",
"477 -97 OFFCURVE",
"432 -149 OFFCURVE",
"394 -149 CURVE SMOOTH",
"377 -149 OFFCURVE",
"359 -136 OFFCURVE",
"352 -104 CURVE",
"337 -115 OFFCURVE",
"330 -127 OFFCURVE",
"330 -137 CURVE SMOOTH",
"330 -156 OFFCURVE",
"352 -173 OFFCURVE",
"391 -173 CURVE SMOOTH",
"453 -173 OFFCURVE",
"508 -118 OFFCURVE",
"508 -61 CURVE SMOOTH",
"508 -33 OFFCURVE",
"493 -19 OFFCURVE",
"463 -19 CURVE SMOOTH",
"431 -19 OFFCURVE",
"410 -33 OFFCURVE",
"396 -43 CURVE",
"435 17 LINE",
"472 56 OFFCURVE",
"503 102 OFFCURVE",
"529 152 CURVE",
"515 162 LINE",
"462 48 OFFCURVE",
"349 -53 OFFCURVE",
"243 -53 CURVE SMOOTH",
"142 -53 OFFCURVE",
"102 41 OFFCURVE",
"102 140 CURVE SMOOTH",
"102 365 OFFCURVE",
"292 689 OFFCURVE",
"436 689 CURVE SMOOTH"
);
}
);
width = 563;
},
{
hints = (
{
place = "{32, 97}";
},
{
place = "{232, 198}";
},
{
place = "{385, 45}";
},
{
place = "{506, 55}";
},
{
horizontal = 1;
place = "{-265, 39}";
},
{
horizontal = 1;
place = "{-164, 125}";
},
{
horizontal = 1;
place = "{-127, 32}";
},
{
horizontal = 1;
place = "{-87, 48}";
},
{
horizontal = 1;
place = "{675, 44}";
}
);
layerId = "FCB63FBD-5C4C-469B-B6FC-091C423BF597";
paths = (
{
closed = 1;
nodes = (
"494 675 OFFCURVE",
"506 660 OFFCURVE",
"506 636 CURVE SMOOTH",
"506 582 OFFCURVE",
"438 487 OFFCURVE",
"397 442 CURVE",
"409 419 OFFCURVE",
"424 411 OFFCURVE",
"438 411 CURVE SMOOTH",
"499 411 OFFCURVE",
"561 548 OFFCURVE",
"561 628 CURVE SMOOTH",
"561 694 OFFCURVE",
"516 719 OFFCURVE",
"457 719 CURVE SMOOTH",
"252 719 OFFCURVE",
"32 423 OFFCURVE",
"32 160 CURVE SMOOTH",
"32 37 OFFCURVE",
"97 -87 OFFCURVE",
"250 -87 CURVE SMOOTH",
"271 -87 OFFCURVE",
"291 -84 OFFCURVE",
"311 -80 CURVE",
"293 -101 OFFCURVE",
"269 -136 OFFCURVE",
"269 -139 CURVE SMOOTH",
"269 -148 OFFCURVE",
"278 -164 OFFCURVE",
"290 -164 CURVE SMOOTH",
"307 -164 OFFCURVE",
"345 -127 OFFCURVE",
"369 -127 CURVE SMOOTH",
"378 -127 OFFCURVE",
"385 -132 OFFCURVE",
"385 -143 CURVE SMOOTH",
"385 -173 OFFCURVE",
"337 -226 OFFCURVE",
"304 -226 CURVE SMOOTH",
"289 -226 OFFCURVE",
"274 -215 OFFCURVE",
"264 -181 CURVE",
"242 -196 OFFCURVE",
"232 -212 OFFCURVE",
"232 -224 CURVE SMOOTH",
"232 -243 OFFCURVE",
"258 -265 OFFCURVE",
"298 -265 CURVE SMOOTH",
"368 -265 OFFCURVE",
"430 -199 OFFCURVE",
"430 -145 CURVE SMOOTH",
"430 -112 OFFCURVE",
"406 -95 OFFCURVE",
"376 -95 CURVE SMOOTH",
"355 -95 OFFCURVE",
"333 -103 OFFCURVE",
"322 -107 CURVE",
"345 -69 LINE",
"443 -33 OFFCURVE",
"523 55 OFFCURVE",
"577 158 CURVE",
"551 175 LINE",
"497 62 OFFCURVE",
"382 -39 OFFCURVE",
"274 -39 CURVE SMOOTH",
"169 -39 OFFCURVE",
"129 55 OFFCURVE",
"129 151 CURVE SMOOTH",
"129 369 OFFCURVE",
"315 675 OFFCURVE",
"461 675 CURVE SMOOTH"
);
}
);
width = 570;
}
);
leftKerningGroup = C;
rightKerningGroup = C;
unicode = 00C7;
},
{
glyphname = D;
lastChange = "2016-08-08 09:29:10 +0000";
layers = (
{
background = {
paths = (
{
closed = 1;
nodes = (
"569 209 OFFCURVE",
"374 -61 OFFCURVE",
"162 -61 CURVE SMOOTH",
"149 -61 OFFCURVE",
"137 -60 OFFCURVE",
"119 -57 CURVE",
"161 136 OFFCURVE",
"252 431 OFFCURVE",
"335 622 CURVE",
"325 629 OFFCURVE",
"316 632 OFFCURVE",
"307 632 CURVE SMOOTH",
"267 632 OFFCURVE",
"237 559 OFFCURVE",
"229 538 CURVE SMOOTH",
"200 461 OFFCURVE",
"96 148 OFFCURVE",
"56 -42 CURVE",
"82 -79 OFFCURVE",
"121 -87 OFFCURVE",
"163 -87 CURVE SMOOTH",
"397 -87 OFFCURVE",
"643 157 OFFCURVE",
"643 446 CURVE SMOOTH",
"643 600 OFFCURVE",
"573 720 OFFCURVE",
"394 720 CURVE SMOOTH",
"222 720 OFFCURVE",
"80 610 OFFCURVE",
"80 517 CURVE SMOOTH",
"80 486 OFFCURVE",
"96 461 OFFCURVE",
"140 461 CURVE",
"137 470 OFFCURVE",
"135 482 OFFCURVE",
"135 498 CURVE SMOOTH",
"135 608 OFFCURVE",
"233 693 OFFCURVE",
"364 693 CURVE SMOOTH",
"485 693 OFFCURVE",
"569 619 OFFCURVE",
"569 457 CURVE SMOOTH"
);
}
);
};
hints = (
{
place = "{80, 55}";
},
{
place = "{569, 74}";
},
{
horizontal = 1;
place = "{-87, 26}";
},
{
horizontal = 1;
place = "{693, 27}";
}
);
layerId = UUID0;
paths = (
{
closed = 1;
nodes = (
"569 209 OFFCURVE",
"374 -61 OFFCURVE",
"162 -61 CURVE SMOOTH",
"149 -61 OFFCURVE",
"137 -60 OFFCURVE",
"119 -57 CURVE",
"161 136 OFFCURVE",
"252 431 OFFCURVE",
"335 622 CURVE",
"325 629 OFFCURVE",
"316 632 OFFCURVE",
"307 632 CURVE SMOOTH",
"267 632 OFFCURVE",
"237 559 OFFCURVE",
"229 538 CURVE SMOOTH",
"200 461 OFFCURVE",
"96 148 OFFCURVE",
"56 -42 CURVE",
"82 -79 OFFCURVE",
"121 -87 OFFCURVE",
"163 -87 CURVE SMOOTH",
"397 -87 OFFCURVE",
"643 157 OFFCURVE",
"643 446 CURVE SMOOTH",
"643 600 OFFCURVE",
"573 720 OFFCURVE",
"394 720 CURVE SMOOTH",
"222 720 OFFCURVE",
"80 610 OFFCURVE",
"80 517 CURVE SMOOTH",
"80 486 OFFCURVE",
"96 461 OFFCURVE",
"140 461 CURVE",
"137 470 OFFCURVE",
"135 482 OFFCURVE",
"135 498 CURVE SMOOTH",
"135 608 OFFCURVE",
"233 693 OFFCURVE",
"364 693 CURVE SMOOTH",
"485 693 OFFCURVE",
"569 619 OFFCURVE",
"569 457 CURVE SMOOTH"
);
}
);
width = 654;
},
{
background = {
paths = (
{
closed = 1;
nodes = (
"581 209 OFFCURVE",
"386 -61 OFFCURVE",
"174 -61 CURVE SMOOTH",
"161 -61 OFFCURVE",
"149 -60 OFFCURVE",
"131 -57 CURVE",
"173 136 OFFCURVE",
"264 431 OFFCURVE",
"347 622 CURVE",
"337 629 OFFCURVE",
"328 632 OFFCURVE",
"319 632 CURVE SMOOTH",
"279 632 OFFCURVE",
"249 559 OFFCURVE",
"241 538 CURVE SMOOTH",
"212 461 OFFCURVE",
"108 148 OFFCURVE",
"68 -42 CURVE",
"94 -79 OFFCURVE",
"133 -87 OFFCURVE",
"175 -87 CURVE SMOOTH",
"409 -87 OFFCURVE",
"655 157 OFFCURVE",
"655 446 CURVE SMOOTH",
"655 600 OFFCURVE",
"585 720 OFFCURVE",
"406 720 CURVE SMOOTH",
"234 720 OFFCURVE",
"92 610 OFFCURVE",
"92 517 CURVE SMOOTH",
"92 486 OFFCURVE",
"108 461 OFFCURVE",
"152 461 CURVE",
"149 470 OFFCURVE",
"147 482 OFFCURVE",
"147 498 CURVE SMOOTH",
"147 608 OFFCURVE",
"245 693 OFFCURVE",
"376 693 CURVE SMOOTH",
"497 693 OFFCURVE",
"581 619 OFFCURVE",
"581 457 CURVE SMOOTH"
);
}
);
};
hints = (
{
place = "{85, 71}";
},
{
place = "{597, 89}";
},
{
horizontal = 1;
place = "{-87, 37}";
},
{
horizontal = 1;
place = "{679, 41}";
}
);
layerId = "FCB63FBD-5C4C-469B-B6FC-091C423BF597";
paths = (
{
closed = 1;
nodes = (
"597 241 OFFCURVE",
"417 -50 OFFCURVE",
"201 -50 CURVE SMOOTH",
"184 -50 OFFCURVE",
"162 -48 OFFCURVE",
"151 -44 CURVE",
"192 145 OFFCURVE",
"281 432 OFFCURVE",
"364 620 CURVE",
"349 630 OFFCURVE",
"336 634 OFFCURVE",
"326 634 CURVE SMOOTH",
"280 634 OFFCURVE",
"249 559 OFFCURVE",
"241 537 CURVE SMOOTH",
"212 462 OFFCURVE",
"82 59 OFFCURVE",
"70 -37 CURVE",
"101 -78 OFFCURVE",
"144 -87 OFFCURVE",
"191 -87 CURVE SMOOTH",
"435 -87 OFFCURVE",
"686 153 OFFCURVE",
"686 440 CURVE SMOOTH",
"686 596 OFFCURVE",
"612 720 OFFCURVE",
"417 720 CURVE SMOOTH",
"231 720 OFFCURVE",
"85 608 OFFCURVE",
"85 515 CURVE SMOOTH",
"85 479 OFFCURVE",
"107 451 OFFCURVE",
"165 451 CURVE",
"158 467 OFFCURVE",
"156 484 OFFCURVE",
"156 499 CURVE SMOOTH",
"156 602 OFFCURVE",
"253 679 OFFCURVE",
"384 679 CURVE SMOOTH",
"507 679 OFFCURVE",
"597 611 OFFCURVE",
"597 450 CURVE SMOOTH"
);
}
);
width = 688;
}
);
leftKerningGroup = D;
rightKerningGroup = D;
unicode = 0044;
},
{
glyphname = E;
lastChange = "2016-08-08 09:29:10 +0000";
layers = (
{
background = {
paths = (
{
closed = 1;
nodes = (
"431 696 OFFCURVE",
"455 672 OFFCURVE",
"455 631 CURVE SMOOTH",
"455 579 OFFCURVE",
"418 533 OFFCURVE",
"371 492 CURVE",
"379 475 OFFCURVE",
"393 460 OFFCURVE",
"408 460 CURVE SMOOTH",
"441 460 OFFCURVE",
"488 536 OFFCURVE",
"488 611 CURVE SMOOTH",
"488 680 OFFCURVE",
"448 719 OFFCURVE",
"374 719 CURVE SMOOTH",
"255 719 OFFCURVE",
"168 618 OFFCURVE",
"168 512 CURVE SMOOTH",
"168 456 OFFCURVE",
"192 397 OFFCURVE",
"244 354 CURVE",
"100 340 OFFCURVE",
"-15 218 OFFCURVE",
"-15 95 CURVE SMOOTH",
"-15 -4 OFFCURVE",
"60 -87 OFFCURVE",
"180 -87 CURVE SMOOTH",
"314 -87 OFFCURVE",
"422 16 OFFCURVE",
"492 152 CURVE",
"478 162 LINE",
"425 48 OFFCURVE",
"312 -53 OFFCURVE",
"206 -53 CURVE SMOOTH",
"112 -53 OFFCURVE",
"78 26 OFFCURVE",
"78 92 CURVE SMOOTH",
"78 198 OFFCURVE",
"165 322 OFFCURVE",
"299 344 CURVE",
"251 385 OFFCURVE",
"241 447 OFFCURVE",
"241 495 CURVE SMOOTH",
"241 604 OFFCURVE",
"291 696 OFFCURVE",
"384 696 CURVE SMOOTH"
);
}
);
};
hints = (
{
place = "{-15, 93}";
},
{
place = "{168, 73}";
},
{
place = "{455, 33}";
},
{
horizontal = 1;
place = "{-87, 34}";
},
{
horizontal = 1;
place = "{696, 23}";
}
);
layerId = UUID0;
paths = (
{
closed = 1;
nodes = (
"431 696 OFFCURVE",
"455 672 OFFCURVE",
"455 631 CURVE SMOOTH",
"455 579 OFFCURVE",
"418 533 OFFCURVE",
"371 492 CURVE",
"379 475 OFFCURVE",
"393 460 OFFCURVE",
"408 460 CURVE SMOOTH",
"441 460 OFFCURVE",
"488 536 OFFCURVE",
"488 611 CURVE SMOOTH",
"488 680 OFFCURVE",
"448 719 OFFCURVE",
"374 719 CURVE SMOOTH",
"255 719 OFFCURVE",
"168 618 OFFCURVE",
"168 512 CURVE SMOOTH",
"168 456 OFFCURVE",
"192 397 OFFCURVE",
"244 354 CURVE",
"100 340 OFFCURVE",
"-15 218 OFFCURVE",
"-15 95 CURVE SMOOTH",
"-15 -4 OFFCURVE",
"60 -87 OFFCURVE",
"180 -87 CURVE SMOOTH",
"314 -87 OFFCURVE",
"422 16 OFFCURVE",
"492 152 CURVE",
"478 162 LINE",
"425 48 OFFCURVE",
"312 -53 OFFCURVE",
"206 -53 CURVE SMOOTH",
"112 -53 OFFCURVE",
"78 26 OFFCURVE",
"78 92 CURVE SMOOTH",
"78 198 OFFCURVE",
"165 322 OFFCURVE",
"299 344 CURVE",
"251 385 OFFCURVE",
"241 447 OFFCURVE",
"241 495 CURVE SMOOTH",
"241 604 OFFCURVE",
"291 696 OFFCURVE",
"384 696 CURVE SMOOTH"
);
}
);
width = 499;
},
{
background = {
paths = (
{
closed = 1;
nodes = (
"440 696 OFFCURVE",
"464 672 OFFCURVE",
"464 631 CURVE SMOOTH",
"464 579 OFFCURVE",
"427 533 OFFCURVE",
"380 492 CURVE",
"388 475 OFFCURVE",
"402 460 OFFCURVE",
"417 460 CURVE SMOOTH",
"450 460 OFFCURVE",
"497 536 OFFCURVE",
"497 611 CURVE SMOOTH",
"497 680 OFFCURVE",
"457 719 OFFCURVE",
"383 719 CURVE SMOOTH",
"264 719 OFFCURVE",
"177 618 OFFCURVE",
"177 512 CURVE SMOOTH",
"177 456 OFFCURVE",
"201 397 OFFCURVE",
"253 354 CURVE",
"109 340 OFFCURVE",
"-6 218 OFFCURVE",
"-6 95 CURVE SMOOTH",
"-6 -4 OFFCURVE",
"69 -87 OFFCURVE",
"189 -87 CURVE SMOOTH",
"323 -87 OFFCURVE",
"431 16 OFFCURVE",
"501 152 CURVE",
"487 162 LINE",
"434 48 OFFCURVE",
"321 -53 OFFCURVE",
"215 -53 CURVE SMOOTH",
"121 -53 OFFCURVE",
"87 26 OFFCURVE",
"87 92 CURVE SMOOTH",
"87 198 OFFCURVE",
"174 322 OFFCURVE",
"308 344 CURVE",
"260 385 OFFCURVE",
"250 447 OFFCURVE",
"250 495 CURVE SMOOTH",
"250 604 OFFCURVE",
"300 696 OFFCURVE",
"393 696 CURVE SMOOTH"
);
}
);
};
hints = (
{
place = "{-4, 110}";
},
{
place = "{179, 89}";
},
{
place = "{477, 46}";
},
{
horizontal = 1;
place = "{-87, 45}";
},
{
horizontal = 1;
place = "{686, 33}";
}
);
layerId = "FCB63FBD-5C4C-469B-B6FC-091C423BF597";
paths = (
{
closed = 1;
nodes = (
"448 686 OFFCURVE",
"477 665 OFFCURVE",
"477 625 CURVE SMOOTH",
"477 577 OFFCURVE",
"438 531 OFFCURVE",
"389 491 CURVE",
"401 470 OFFCURVE",
"418 450 OFFCURVE",
"437 450 CURVE SMOOTH",
"474 450 OFFCURVE",
"523 526 OFFCURVE",
"523 604 CURVE SMOOTH",
"523 679 OFFCURVE",
"477 719 OFFCURVE",
"396 719 CURVE SMOOTH",
"266 719 OFFCURVE",
"179 616 OFFCURVE",
"179 510 CURVE SMOOTH",
"179 455 OFFCURVE",
"203 401 OFFCURVE",
"251 359 CURVE",
"104 338 OFFCURVE",
"-4 219 OFFCURVE",
"-4 101 CURVE SMOOTH",
"-4 -3 OFFCURVE",
"81 -87 OFFCURVE",
"209 -87 CURVE SMOOTH",
"352 -87 OFFCURVE",
"466 19 OFFCURVE",
"540 158 CURVE",
"513 175 LINE",
"459 62 OFFCURVE",
"345 -42 OFFCURVE",
"236 -42 CURVE SMOOTH",
"140 -42 OFFCURVE",
"106 38 OFFCURVE",
"106 99 CURVE SMOOTH",
"106 199 OFFCURVE",
"197 316 OFFCURVE",
"342 339 CURVE",
"286 382 OFFCURVE",
"268 444 OFFCURVE",
"268 501 CURVE SMOOTH",
"268 591 OFFCURVE",
"314 686 OFFCURVE",
"405 686 CURVE SMOOTH"
);
}
);
width = 534;
}
);
leftKerningGroup = E;
rightKerningGroup = E;
unicode = 0045;
},
{
glyphname = Eacute;
lastChange = "2016-08-08 09:29:10 +0000";
layers = (
{
background = {
paths = (
{
closed = 1;
nodes = (
"431 696 OFFCURVE",
"455 672 OFFCURVE",
"455 631 CURVE SMOOTH",
"455 579 OFFCURVE",
"418 533 OFFCURVE",
"371 492 CURVE",
"379 475 OFFCURVE",
"393 460 OFFCURVE",
"408 460 CURVE SMOOTH",
"441 460 OFFCURVE",
"488 536 OFFCURVE",
"488 611 CURVE SMOOTH",
"488 680 OFFCURVE",
"448 719 OFFCURVE",
"374 719 CURVE SMOOTH",
"255 719 OFFCURVE",
"168 618 OFFCURVE",
"168 512 CURVE SMOOTH",
"168 456 OFFCURVE",
"192 397 OFFCURVE",
"244 354 CURVE",
"100 340 OFFCURVE",
"-15 218 OFFCURVE",
"-15 95 CURVE SMOOTH",
"-15 -4 OFFCURVE",
"60 -87 OFFCURVE",
"180 -87 CURVE SMOOTH",
"314 -87 OFFCURVE",
"422 16 OFFCURVE",
"492 152 CURVE",
"478 162 LINE",
"425 48 OFFCURVE",
"312 -53 OFFCURVE",
"206 -53 CURVE SMOOTH",
"112 -53 OFFCURVE",
"78 26 OFFCURVE",
"78 92 CURVE SMOOTH",
"78 198 OFFCURVE",
"165 322 OFFCURVE",
"299 344 CURVE",
"251 385 OFFCURVE",
"241 447 OFFCURVE",
"241 495 CURVE SMOOTH",
"241 604 OFFCURVE",
"291 696 OFFCURVE",
"384 696 CURVE SMOOTH"
);
},
{
closed = 1;
nodes = (
"539 888 OFFCURVE",
"530 895 OFFCURVE",
"519 895 CURVE SMOOTH",
"479 895 OFFCURVE",
"415 797 OFFCURVE",
"415 774 CURVE SMOOTH",
"415 768 OFFCURVE",
"419 753 OFFCURVE",
"429 748 CURVE",
"458 787 OFFCURVE",
"493 822 OFFCURVE",
"541 864 CURVE"
);
}
);
};
hints = (
{
place = "{-15, 93}";
},
{
place = "{168, 73}";
},
{
place = "{415, 73}";
},
{
place = "{455, 33}";
},
{
horizontal = 1;
place = "{-87, 34}";
},
{
horizontal = 1;
place = "{696, 23}";
},
{
horizontal = 1;
place = "{696, 199}";
}
);
layerId = UUID0;
paths = (
{
closed = 1;
nodes = (
"431 696 OFFCURVE",
"455 672 OFFCURVE",
"455 631 CURVE SMOOTH",
"455 579 OFFCURVE",
"418 533 OFFCURVE",
"371 492 CURVE",
"379 475 OFFCURVE",
"393 460 OFFCURVE",
"408 460 CURVE SMOOTH",
"441 460 OFFCURVE",
"488 536 OFFCURVE",
"488 611 CURVE SMOOTH",
"488 680 OFFCURVE",
"448 719 OFFCURVE",
"374 719 CURVE SMOOTH",
"255 719 OFFCURVE",
"168 618 OFFCURVE",
"168 512 CURVE SMOOTH",
"168 456 OFFCURVE",
"192 397 OFFCURVE",
"244 354 CURVE",
"100 340 OFFCURVE",
"-15 218 OFFCURVE",
"-15 95 CURVE SMOOTH",
"-15 -4 OFFCURVE",
"60 -87 OFFCURVE",
"180 -87 CURVE SMOOTH",
"314 -87 OFFCURVE",
"422 16 OFFCURVE",
"492 152 CURVE",
"478 162 LINE",
"425 48 OFFCURVE",
"312 -53 OFFCURVE",
"206 -53 CURVE SMOOTH",
"112 -53 OFFCURVE",
"78 26 OFFCURVE",
"78 92 CURVE SMOOTH",
"78 198 OFFCURVE",
"165 322 OFFCURVE",
"299 344 CURVE",
"251 385 OFFCURVE",
"241 447 OFFCURVE",
"241 495 CURVE SMOOTH",
"241 604 OFFCURVE",
"291 696 OFFCURVE",
"384 696 CURVE SMOOTH"
);
},
{
closed = 1;
nodes = (
"539 888 OFFCURVE",
"530 895 OFFCURVE",
"519 895 CURVE SMOOTH",
"479 895 OFFCURVE",
"415 797 OFFCURVE",
"415 774 CURVE SMOOTH",
"415 768 OFFCURVE",
"419 753 OFFCURVE",
"429 748 CURVE",
"458 787 OFFCURVE",
"493 822 OFFCURVE",
"541 864 CURVE"
);
}
);
width = 499;
},
{
hints = (
{
place = "{-4, 110}";
},
{
place = "{179, 89}";
},
{
place = "{477, 46}";
},
{
horizontal = 1;
place = "{-87, 45}";
},
{
horizontal = 1;
place = "{686, 33}";
},
{
horizontal = 1;
place = "{946, -20}";
target = down;
type = TopGhost;
}
);
layerId = "FCB63FBD-5C4C-469B-B6FC-091C423BF597";
paths = (
{
closed = 1;
nodes = (
"448 686 OFFCURVE",
"477 665 OFFCURVE",
"477 625 CURVE SMOOTH",
"477 577 OFFCURVE",
"438 531 OFFCURVE",
"389 491 CURVE",
"401 470 OFFCURVE",
"418 450 OFFCURVE",
"437 450 CURVE SMOOTH",
"474 450 OFFCURVE",
"523 526 OFFCURVE",
"523 604 CURVE SMOOTH",
"523 679 OFFCURVE",
"477 719 OFFCURVE",
"396 719 CURVE SMOOTH",
"266 719 OFFCURVE",
"179 616 OFFCURVE",
"179 510 CURVE SMOOTH",
"179 455 OFFCURVE",
"203 401 OFFCURVE",
"251 359 CURVE",
"104 338 OFFCURVE",
"-4 219 OFFCURVE",
"-4 101 CURVE SMOOTH",
"-4 -3 OFFCURVE",
"81 -87 OFFCURVE",
"209 -87 CURVE SMOOTH",
"352 -87 OFFCURVE",
"466 19 OFFCURVE",
"540 158 CURVE",
"513 175 LINE",
"459 62 OFFCURVE",
"345 -42 OFFCURVE",
"236 -42 CURVE SMOOTH",
"140 -42 OFFCURVE",
"106 38 OFFCURVE",
"106 99 CURVE SMOOTH",
"106 199 OFFCURVE",
"197 316 OFFCURVE",
"342 339 CURVE",
"286 382 OFFCURVE",
"268 444 OFFCURVE",
"268 501 CURVE SMOOTH",
"268 591 OFFCURVE",
"314 686 OFFCURVE",
"405 686 CURVE SMOOTH"
);
},
{
closed = 1;
nodes = (
"596 938 OFFCURVE",
"584 946 OFFCURVE",
"569 946 CURVE SMOOTH",
"527 946 OFFCURVE",
"466 853 OFFCURVE",
"466 831 CURVE SMOOTH",
"466 824 OFFCURVE",
"473 805 OFFCURVE",
"490 798 CURVE",
"518 835 OFFCURVE",
"552 866 OFFCURVE",
"599 911 CURVE"
);
}
);
width = 534;
}
);
leftKerningGroup = E;
rightKerningGroup = E;
unicode = 00C9;
},
{
glyphname = Ecircumflex;
lastChange = "2016-08-08 09:29:10 +0000";
layers = (
{
background = {
paths = (
{
closed = 1;
nodes = (
"431 696 OFFCURVE",
"455 672 OFFCURVE",
"455 631 CURVE SMOOTH",
"455 579 OFFCURVE",
"418 533 OFFCURVE",
"371 492 CURVE",
"379 475 OFFCURVE",
"393 460 OFFCURVE",
"408 460 CURVE SMOOTH",
"441 460 OFFCURVE",
"488 536 OFFCURVE",
"488 611 CURVE SMOOTH",
"488 680 OFFCURVE",
"448 719 OFFCURVE",
"374 719 CURVE SMOOTH",
"255 719 OFFCURVE",
"168 618 OFFCURVE",
"168 512 CURVE SMOOTH",
"168 456 OFFCURVE",
"192 397 OFFCURVE",
"244 354 CURVE",
"100 340 OFFCURVE",
"-15 218 OFFCURVE",
"-15 95 CURVE SMOOTH",
"-15 -4 OFFCURVE",
"60 -87 OFFCURVE",
"180 -87 CURVE SMOOTH",
"314 -87 OFFCURVE",
"422 16 OFFCURVE",
"492 152 CURVE",
"478 162 LINE",
"425 48 OFFCURVE",
"312 -53 OFFCURVE",
"206 -53 CURVE SMOOTH",
"112 -53 OFFCURVE",
"78 26 OFFCURVE",
"78 92 CURVE SMOOTH",
"78 198 OFFCURVE",
"165 322 OFFCURVE",
"299 344 CURVE",
"251 385 OFFCURVE",
"241 447 OFFCURVE",
"241 495 CURVE SMOOTH",
"241 604 OFFCURVE",
"291 696 OFFCURVE",
"384 696 CURVE SMOOTH"
);
},
{
closed = 1;
nodes = (
"375 806 OFFCURVE",
"407 821 OFFCURVE",
"448 836 CURVE",
"480 806 OFFCURVE",
"503 782 OFFCURVE",
"522 744 CURVE",
"534 750 OFFCURVE",
"539 762 OFFCURVE",
"539 775 CURVE SMOOTH",
"539 818 OFFCURVE",
"481 886 OFFCURVE",
"449 886 CURVE SMOOTH",
"422 886 OFFCURVE",
"335 837 OFFCURVE",
"335 798 CURVE SMOOTH",
"335 792 OFFCURVE",
"337 784 OFFCURVE",
"345 779 CURVE"
);
}
);
};
hints = (
{
place = "{-15, 93}";
},
{
place = "{168, 73}";
},
{
place = "{335, 204}";
},
{
place = "{455, 33}";
},
{
horizontal = 1;
place = "{-87, 34}";
},
{
horizontal = 1;
place = "{696, 23}";
},
{
horizontal = 1;
place = "{696, 190}";
}
);
layerId = UUID0;
paths = (
{
closed = 1;
nodes = (
"431 696 OFFCURVE",
"455 672 OFFCURVE",
"455 631 CURVE SMOOTH",
"455 579 OFFCURVE",
"418 533 OFFCURVE",
"371 492 CURVE",
"379 475 OFFCURVE",
"393 460 OFFCURVE",
"408 460 CURVE SMOOTH",
"441 460 OFFCURVE",
"488 536 OFFCURVE",
"488 611 CURVE SMOOTH",
"488 680 OFFCURVE",
"448 719 OFFCURVE",
"374 719 CURVE SMOOTH",
"255 719 OFFCURVE",
"168 618 OFFCURVE",
"168 512 CURVE SMOOTH",
"168 456 OFFCURVE",
"192 397 OFFCURVE",
"244 354 CURVE",
"100 340 OFFCURVE",
"-15 218 OFFCURVE",
"-15 95 CURVE SMOOTH",
"-15 -4 OFFCURVE",
"60 -87 OFFCURVE",
"180 -87 CURVE SMOOTH",
"314 -87 OFFCURVE",
"422 16 OFFCURVE",
"492 152 CURVE",
"478 162 LINE",
"425 48 OFFCURVE",
"312 -53 OFFCURVE",
"206 -53 CURVE SMOOTH",
"112 -53 OFFCURVE",
"78 26 OFFCURVE",
"78 92 CURVE SMOOTH",
"78 198 OFFCURVE",
"165 322 OFFCURVE",
"299 344 CURVE",
"251 385 OFFCURVE",
"241 447 OFFCURVE",
"241 495 CURVE SMOOTH",
"241 604 OFFCURVE",
"291 696 OFFCURVE",
"384 696 CURVE SMOOTH"
);
},
{
closed = 1;
nodes = (
"375 806 OFFCURVE",
"407 821 OFFCURVE",
"448 836 CURVE",
"480 806 OFFCURVE",
"503 782 OFFCURVE",
"522 744 CURVE",
"534 750 OFFCURVE",
"539 762 OFFCURVE",
"539 775 CURVE SMOOTH",
"539 818 OFFCURVE",
"481 886 OFFCURVE",
"449 886 CURVE SMOOTH",
"422 886 OFFCURVE",
"335 837 OFFCURVE",
"335 798 CURVE SMOOTH",
"335 792 OFFCURVE",
"337 784 OFFCURVE",
"345 779 CURVE"
);
}
);
width = 499;
},
{
hints = (
{
place = "{-4, 110}";
},
{
place = "{179, 89}";
},
{
place = "{382, 212}";
},
{
place = "{477, 46}";
},
{
horizontal = 1;
place = "{-87, 45}";
},
{
horizontal = 1;
place = "{686, 33}";
},
{
horizontal = 1;
place = "{938, -20}";
target = down;
type = TopGhost;
}
);
layerId = "FCB63FBD-5C4C-469B-B6FC-091C423BF597";
paths = (
{
closed = 1;
nodes = (
"448 686 OFFCURVE",
"477 665 OFFCURVE",
"477 625 CURVE SMOOTH",
"477 577 OFFCURVE",
"438 531 OFFCURVE",
"389 491 CURVE",
"401 470 OFFCURVE",
"418 450 OFFCURVE",
"437 450 CURVE SMOOTH",
"474 450 OFFCURVE",
"523 526 OFFCURVE",
"523 604 CURVE SMOOTH",
"523 679 OFFCURVE",
"477 719 OFFCURVE",
"396 719 CURVE SMOOTH",
"266 719 OFFCURVE",
"179 616 OFFCURVE",
"179 510 CURVE SMOOTH",
"179 455 OFFCURVE",
"203 401 OFFCURVE",
"251 359 CURVE",
"104 338 OFFCURVE",
"-4 219 OFFCURVE",
"-4 101 CURVE SMOOTH",
"-4 -3 OFFCURVE",
"81 -87 OFFCURVE",
"209 -87 CURVE SMOOTH",
"352 -87 OFFCURVE",
"466 19 OFFCURVE",
"540 158 CURVE",
"513 175 LINE",
"459 62 OFFCURVE",
"345 -42 OFFCURVE",
"236 -42 CURVE SMOOTH",
"140 -42 OFFCURVE",
"106 38 OFFCURVE",
"106 99 CURVE SMOOTH",
"106 199 OFFCURVE",
"197 316 OFFCURVE",
"342 339 CURVE",
"286 382 OFFCURVE",
"268 444 OFFCURVE",
"268 501 CURVE SMOOTH",
"268 591 OFFCURVE",
"314 686 OFFCURVE",
"405 686 CURVE SMOOTH"
);
},
{
closed = 1;
nodes = (
"430 847 OFFCURVE",
"461 864 OFFCURVE",
"497 876 CURVE",
"525 851 OFFCURVE",
"548 829 OFFCURVE",
"569 793 CURVE",
"587 802 OFFCURVE",
"594 818 OFFCURVE",
"594 832 CURVE SMOOTH",
"594 873 OFFCURVE",
"530 938 OFFCURVE",
"498 938 CURVE SMOOTH",
"469 938 OFFCURVE",
"382 891 OFFCURVE",
"382 852 CURVE SMOOTH",
"382 845 OFFCURVE",
"385 830 OFFCURVE",
"395 824 CURVE"
);
}
);
width = 534;
}
);
leftKerningGroup = E;
rightKerningGroup = E;
unicode = 00CA;
},
{
glyphname = Edieresis;
lastChange = "2016-08-08 09:29:10 +0000";
layers = (
{
background = {
paths = (
{
closed = 1;
nodes = (
"431 696 OFFCURVE",
"455 672 OFFCURVE",
"455 631 CURVE SMOOTH",
"455 579 OFFCURVE",
"418 533 OFFCURVE",
"371 492 CURVE",
"379 475 OFFCURVE",
"393 460 OFFCURVE",
"408 460 CURVE SMOOTH",
"441 460 OFFCURVE",
"488 536 OFFCURVE",
"488 611 CURVE SMOOTH",
"488 680 OFFCURVE",
"448 719 OFFCURVE",
"374 719 CURVE SMOOTH",
"255 719 OFFCURVE",
"168 618 OFFCURVE",
"168 512 CURVE SMOOTH",
"168 456 OFFCURVE",
"192 397 OFFCURVE",
"244 354 CURVE",
"100 340 OFFCURVE",
"-15 218 OFFCURVE",
"-15 95 CURVE SMOOTH",
"-15 -4 OFFCURVE",
"60 -87 OFFCURVE",
"180 -87 CURVE SMOOTH",
"314 -87 OFFCURVE",
"422 16 OFFCURVE",
"492 152 CURVE",
"478 162 LINE",
"425 48 OFFCURVE",
"312 -53 OFFCURVE",
"206 -53 CURVE SMOOTH",
"112 -53 OFFCURVE",
"78 26 OFFCURVE",
"78 92 CURVE SMOOTH",
"78 198 OFFCURVE",
"165 322 OFFCURVE",
"299 344 CURVE",
"251 385 OFFCURVE",
"241 447 OFFCURVE",
"241 495 CURVE SMOOTH",
"241 604 OFFCURVE",
"291 696 OFFCURVE",
"384 696 CURVE SMOOTH"
);
},
{
closed = 1;
nodes = (
"379 774 OFFCURVE",
"409 800 OFFCURVE",
"409 823 CURVE SMOOTH",
"409 844 OFFCURVE",
"397 851 OFFCURVE",
"379 851 CURVE SMOOTH",
"350 851 OFFCURVE",
"313 829 OFFCURVE",
"313 804 CURVE SMOOTH",
"313 783 OFFCURVE",
"330 774 OFFCURVE",
"350 774 CURVE SMOOTH"
);
},
{
closed = 1;
nodes = (
"523 753 OFFCURVE",
"553 779 OFFCURVE",
"553 802 CURVE SMOOTH",
"553 823 OFFCURVE",
"541 830 OFFCURVE",
"523 830 CURVE SMOOTH",
"494 830 OFFCURVE",
"457 808 OFFCURVE",
"457 783 CURVE SMOOTH",
"457 762 OFFCURVE",
"474 753 OFFCURVE",
"494 753 CURVE SMOOTH"
);
}
);
};
hints = (
{
place = "{-15, 93}";
},
{
place = "{168, 73}";
},
{
place = "{313, 96}";
},
{
place = "{455, 33}";
},
{
place = "{455, 98}";
},
{
horizontal = 1;
place = "{-87, 34}";
},
{
horizontal = 1;
place = "{696, 23}";
},
{
horizontal = 1;
place = "{753, 77}";
},
{
horizontal = 1;
place = "{774, 77}";
}
);
layerId = UUID0;
paths = (
{
closed = 1;
nodes = (
"431 696 OFFCURVE",
"455 672 OFFCURVE",
"455 631 CURVE SMOOTH",
"455 579 OFFCURVE",
"418 533 OFFCURVE",
"371 492 CURVE",
"379 475 OFFCURVE",
"393 460 OFFCURVE",
"408 460 CURVE SMOOTH",
"441 460 OFFCURVE",
"488 536 OFFCURVE",
"488 611 CURVE SMOOTH",
"488 680 OFFCURVE",
"448 719 OFFCURVE",
"374 719 CURVE SMOOTH",
"255 719 OFFCURVE",
"168 618 OFFCURVE",
"168 512 CURVE SMOOTH",
"168 456 OFFCURVE",
"192 397 OFFCURVE",
"244 354 CURVE",
"100 340 OFFCURVE",
"-15 218 OFFCURVE",
"-15 95 CURVE SMOOTH",
"-15 -4 OFFCURVE",
"60 -87 OFFCURVE",
"180 -87 CURVE SMOOTH",
"314 -87 OFFCURVE",
"422 16 OFFCURVE",
"492 152 CURVE",
"478 162 LINE",
"425 48 OFFCURVE",
"312 -53 OFFCURVE",
"206 -53 CURVE SMOOTH",
"112 -53 OFFCURVE",
"78 26 OFFCURVE",
"78 92 CURVE SMOOTH",
"78 198 OFFCURVE",
"165 322 OFFCURVE",
"299 344 CURVE",
"251 385 OFFCURVE",
"241 447 OFFCURVE",
"241 495 CURVE SMOOTH",
"241 604 OFFCURVE",
"291 696 OFFCURVE",
"384 696 CURVE SMOOTH"
);
},
{
closed = 1;
nodes = (
"379 774 OFFCURVE",
"409 800 OFFCURVE",
"409 823 CURVE SMOOTH",
"409 844 OFFCURVE",
"397 851 OFFCURVE",
"379 851 CURVE SMOOTH",
"350 851 OFFCURVE",
"313 829 OFFCURVE",
"313 804 CURVE SMOOTH",
"313 783 OFFCURVE",
"330 774 OFFCURVE",
"350 774 CURVE SMOOTH"
);
},
{
closed = 1;
nodes = (
"523 753 OFFCURVE",
"553 779 OFFCURVE",
"553 802 CURVE SMOOTH",
"553 823 OFFCURVE",
"541 830 OFFCURVE",
"523 830 CURVE SMOOTH",
"494 830 OFFCURVE",
"457 808 OFFCURVE",
"457 783 CURVE SMOOTH",
"457 762 OFFCURVE",
"474 753 OFFCURVE",
"494 753 CURVE SMOOTH"
);
}
);
width = 499;
},
{
hints = (
{
place = "{-4, 110}";
},
{
place = "{179, 89}";
},
{
place = "{357, 103}";
},
{
place = "{477, 46}";
},
{
place = "{502, 104}";
},
{
horizontal = 1;
place = "{-87, 45}";
},
{
horizontal = 1;
place = "{686, 33}";
},
{
horizontal = 1;
place = "{803, 82}";
},
{
horizontal = 1;
place = "{823, 82}";
}
);
layerId = "FCB63FBD-5C4C-469B-B6FC-091C423BF597";
paths = (
{
closed = 1;
nodes = (
"448 686 OFFCURVE",
"477 665 OFFCURVE",
"477 625 CURVE SMOOTH",
"477 577 OFFCURVE",
"438 531 OFFCURVE",
"389 491 CURVE",
"401 470 OFFCURVE",
"418 450 OFFCURVE",
"437 450 CURVE SMOOTH",
"474 450 OFFCURVE",
"523 526 OFFCURVE",
"523 604 CURVE SMOOTH",
"523 679 OFFCURVE",
"477 719 OFFCURVE",
"396 719 CURVE SMOOTH",
"266 719 OFFCURVE",
"179 616 OFFCURVE",
"179 510 CURVE SMOOTH",
"179 455 OFFCURVE",
"203 401 OFFCURVE",
"251 359 CURVE",
"104 338 OFFCURVE",
"-4 219 OFFCURVE",
"-4 101 CURVE SMOOTH",
"-4 -3 OFFCURVE",
"81 -87 OFFCURVE",
"209 -87 CURVE SMOOTH",
"352 -87 OFFCURVE",
"466 19 OFFCURVE",
"540 158 CURVE",
"513 175 LINE",
"459 62 OFFCURVE",
"345 -42 OFFCURVE",
"236 -42 CURVE SMOOTH",
"140 -42 OFFCURVE",
"106 38 OFFCURVE",
"106 99 CURVE SMOOTH",
"106 199 OFFCURVE",
"197 316 OFFCURVE",
"342 339 CURVE",
"286 382 OFFCURVE",
"268 444 OFFCURVE",
"268 501 CURVE SMOOTH",
"268 591 OFFCURVE",
"314 686 OFFCURVE",
"405 686 CURVE SMOOTH"
);
},
{
closed = 1;
nodes = (
"430 823 OFFCURVE",
"460 850 OFFCURVE",
"460 873 CURVE SMOOTH",
"460 897 OFFCURVE",
"445 905 OFFCURVE",
"424 905 CURVE SMOOTH",
"394 905 OFFCURVE",
"357 882 OFFCURVE",
"357 857 CURVE SMOOTH",
"357 833 OFFCURVE",
"379 823 OFFCURVE",
"400 823 CURVE SMOOTH"
);
},
{
closed = 1;
nodes = (
"575 803 OFFCURVE",
"606 829 OFFCURVE",
"606 852 CURVE SMOOTH",
"606 877 OFFCURVE",
"589 885 OFFCURVE",
"569 885 CURVE SMOOTH",
"539 885 OFFCURVE",
"502 863 OFFCURVE",
"502 837 CURVE SMOOTH",
"502 814 OFFCURVE",
"523 803 OFFCURVE",
"544 803 CURVE SMOOTH"
);
}
);
width = 534;
}
);
leftKerningGroup = E;
rightKerningGroup = E;
unicode = 00CB;
},
{
glyphname = Egrave;
lastChange = "2016-08-08 09:29:10 +0000";
layers = (
{
background = {
paths = (
{
closed = 1;
nodes = (
"431 696 OFFCURVE",
"455 672 OFFCURVE",
"455 631 CURVE SMOOTH",
"455 579 OFFCURVE",
"418 533 OFFCURVE",
"371 492 CURVE",
"379 475 OFFCURVE",
"393 460 OFFCURVE",
"408 460 CURVE SMOOTH",
"441 460 OFFCURVE",
"488 536 OFFCURVE",
"488 611 CURVE SMOOTH",
"488 680 OFFCURVE",
"448 719 OFFCURVE",
"374 719 CURVE SMOOTH",
"255 719 OFFCURVE",
"168 618 OFFCURVE",
"168 512 CURVE SMOOTH",
"168 456 OFFCURVE",
"192 397 OFFCURVE",
"244 354 CURVE",
"100 340 OFFCURVE",
"-15 218 OFFCURVE",
"-15 95 CURVE SMOOTH",
"-15 -4 OFFCURVE",
"60 -87 OFFCURVE",
"180 -87 CURVE SMOOTH",
"314 -87 OFFCURVE",
"422 16 OFFCURVE",
"492 152 CURVE",
"478 162 LINE",
"425 48 OFFCURVE",
"312 -53 OFFCURVE",
"206 -53 CURVE SMOOTH",
"112 -53 OFFCURVE",
"78 26 OFFCURVE",
"78 92 CURVE SMOOTH",
"78 198 OFFCURVE",
"165 322 OFFCURVE",
"299 344 CURVE",
"251 385 OFFCURVE",
"241 447 OFFCURVE",
"241 495 CURVE SMOOTH",
"241 604 OFFCURVE",
"291 696 OFFCURVE",
"384 696 CURVE SMOOTH"
);
},
{
closed = 1;
nodes = (
"355 822 OFFCURVE",
"390 787 OFFCURVE",
"419 748 CURVE",
"429 753 OFFCURVE",
"433 768 OFFCURVE",
"433 774 CURVE SMOOTH",
"433 797 OFFCURVE",
"369 895 OFFCURVE",
"329 895 CURVE SMOOTH",
"318 895 OFFCURVE",
"309 888 OFFCURVE",
"307 864 CURVE"
);
}
);
};
hints = (
{
place = "{-15, 93}";
},
{
place = "{168, 73}";
},
{
place = "{455, 33}";
},
{
horizontal = 1;
place = "{-87, 34}";
},
{
horizontal = 1;
place = "{696, 23}";
},
{
horizontal = 1;
place = "{696, 199}";
}
);
layerId = UUID0;
paths = (
{
closed = 1;
nodes = (
"431 696 OFFCURVE",
"455 672 OFFCURVE",
"455 631 CURVE SMOOTH",
"455 579 OFFCURVE",
"418 533 OFFCURVE",
"371 492 CURVE",
"379 475 OFFCURVE",
"393 460 OFFCURVE",
"408 460 CURVE SMOOTH",
"441 460 OFFCURVE",
"488 536 OFFCURVE",
"488 611 CURVE SMOOTH",
"488 680 OFFCURVE",
"448 719 OFFCURVE",
"374 719 CURVE SMOOTH",
"255 719 OFFCURVE",
"168 618 OFFCURVE",
"168 512 CURVE SMOOTH",
"168 456 OFFCURVE",
"192 397 OFFCURVE",
"244 354 CURVE",
"100 340 OFFCURVE",
"-15 218 OFFCURVE",
"-15 95 CURVE SMOOTH",
"-15 -4 OFFCURVE",
"60 -87 OFFCURVE",
"180 -87 CURVE SMOOTH",
"314 -87 OFFCURVE",
"422 16 OFFCURVE",
"492 152 CURVE",
"478 162 LINE",
"425 48 OFFCURVE",
"312 -53 OFFCURVE",
"206 -53 CURVE SMOOTH",
"112 -53 OFFCURVE",
"78 26 OFFCURVE",
"78 92 CURVE SMOOTH",
"78 198 OFFCURVE",
"165 322 OFFCURVE",
"299 344 CURVE",
"251 385 OFFCURVE",
"241 447 OFFCURVE",
"241 495 CURVE SMOOTH",
"241 604 OFFCURVE",
"291 696 OFFCURVE",
"384 696 CURVE SMOOTH"
);
},
{
closed = 1;
nodes = (
"355 822 OFFCURVE",
"390 787 OFFCURVE",
"419 748 CURVE",
"429 753 OFFCURVE",
"433 768 OFFCURVE",
"433 774 CURVE SMOOTH",
"433 797 OFFCURVE",
"369 895 OFFCURVE",
"329 895 CURVE SMOOTH",
"318 895 OFFCURVE",
"309 888 OFFCURVE",
"307 864 CURVE"
);
}
);
width = 499;
},
{
hints = (
{
place = "{-4, 110}";
},
{
place = "{179, 89}";
},
{
horizontal = 1;
place = "{-87, 45}";
},
{
horizontal = 1;
place = "{686, 33}";
},
{
horizontal = 1;
place = "{946, -20}";
target = down;
type = TopGhost;
}
);
layerId = "FCB63FBD-5C4C-469B-B6FC-091C423BF597";
paths = (
{
closed = 1;
nodes = (
"448 686 OFFCURVE",
"477 665 OFFCURVE",
"477 625 CURVE SMOOTH",
"477 577 OFFCURVE",
"438 531 OFFCURVE",
"389 491 CURVE",
"401 470 OFFCURVE",
"418 450 OFFCURVE",
"437 450 CURVE SMOOTH",
"474 450 OFFCURVE",
"523 526 OFFCURVE",
"523 604 CURVE SMOOTH",
"523 679 OFFCURVE",
"477 719 OFFCURVE",
"396 719 CURVE SMOOTH",
"266 719 OFFCURVE",
"179 616 OFFCURVE",
"179 510 CURVE SMOOTH",
"179 455 OFFCURVE",
"203 401 OFFCURVE",
"251 359 CURVE",
"104 338 OFFCURVE",
"-4 219 OFFCURVE",
"-4 101 CURVE SMOOTH",
"-4 -3 OFFCURVE",
"81 -87 OFFCURVE",
"209 -87 CURVE SMOOTH",
"352 -87 OFFCURVE",
"466 19 OFFCURVE",
"540 158 CURVE",
"513 175 LINE",
"459 62 OFFCURVE",
"345 -42 OFFCURVE",
"236 -42 CURVE SMOOTH",
"140 -42 OFFCURVE",
"106 38 OFFCURVE",
"106 99 CURVE SMOOTH",
"106 199 OFFCURVE",
"197 316 OFFCURVE",
"342 339 CURVE",
"286 382 OFFCURVE",
"268 444 OFFCURVE",
"268 501 CURVE SMOOTH",
"268 591 OFFCURVE",
"314 686 OFFCURVE",
"405 686 CURVE SMOOTH"
);
},
{
closed = 1;
nodes = (
"461 866 OFFCURVE",
"493 834 OFFCURVE",
"524 797 CURVE",
"540 804 OFFCURVE",
"549 823 OFFCURVE",
"549 833 CURVE SMOOTH",
"549 858 OFFCURVE",
"480 946 OFFCURVE",
"439 946 CURVE SMOOTH",
"424 946 OFFCURVE",
"409 934 OFFCURVE",
"407 907 CURVE"
);
}
);
width = 534;
}
);
leftKerningGroup = E;
rightKerningGroup = E;
unicode = 00C8;
},
{
glyphname = Eth;
lastChange = "2016-08-08 09:29:10 +0000";
layers = (
{
background = {
paths = (
{
closed = 1;
nodes = (
"78 281 OFFCURVE",
"107 284 OFFCURVE",
"145 284 CURVE",
"111 174 OFFCURVE",
"76 51 OFFCURVE",
"57 -42 CURVE",
"83 -79 OFFCURVE",
"122 -87 OFFCURVE",
"164 -87 CURVE SMOOTH",
"398 -87 OFFCURVE",
"644 157 OFFCURVE",
"644 446 CURVE SMOOTH",
"644 600 OFFCURVE",
"574 720 OFFCURVE",
"395 720 CURVE SMOOTH",
"223 720 OFFCURVE",
"81 610 OFFCURVE",
"81 517 CURVE SMOOTH",
"81 486 OFFCURVE",
"97 461 OFFCURVE",
"141 461 CURVE",
"138 470 OFFCURVE",
"136 482 OFFCURVE",
"136 498 CURVE SMOOTH",
"136 608 OFFCURVE",
"234 693 OFFCURVE",
"365 693 CURVE SMOOTH",
"486 693 OFFCURVE",
"570 619 OFFCURVE",
"570 457 CURVE SMOOTH",
"570 209 OFFCURVE",
"375 -61 OFFCURVE",
"163 -61 CURVE SMOOTH",
"150 -61 OFFCURVE",
"138 -60 OFFCURVE",
"120 -57 CURVE",
"141 40 OFFCURVE",
"174 162 OFFCURVE",
"213 285 CURVE",
"286 285 LINE SMOOTH",
"314 285 OFFCURVE",
"356 290 OFFCURVE",
"389 314 CURVE",
"360 317 OFFCURVE",
"294 323 OFFCURVE",
"225 323 CURVE",
"260 431 OFFCURVE",
"299 537 OFFCURVE",
"336 622 CURVE",
"326 629 OFFCURVE",
"317 632 OFFCURVE",
"308 632 CURVE SMOOTH",
"268 632 OFFCURVE",
"238 559 OFFCURVE",
"230 538 CURVE SMOOTH",
"217 503 OFFCURVE",
"188 420 OFFCURVE",
"157 321 CURVE",
"92 317 OFFCURVE",
"43 304 OFFCURVE",
"32 274 CURVE"
);
}
);
};
hints = (
{
place = "{81, 55}";
},
{
place = "{570, 74}";
},
{
horizontal = 1;
place = "{-87, 26}";
},
{
horizontal = 1;
place = "{285, 38}";
},
{
horizontal = 1;
place = "{693, 27}";
}
);
layerId = UUID0;
paths = (
{
closed = 1;
nodes = (
"78 281 OFFCURVE",
"107 284 OFFCURVE",
"145 284 CURVE",
"111 174 OFFCURVE",
"76 51 OFFCURVE",
"57 -42 CURVE",
"83 -79 OFFCURVE",
"122 -87 OFFCURVE",
"164 -87 CURVE SMOOTH",
"398 -87 OFFCURVE",
"644 157 OFFCURVE",
"644 446 CURVE SMOOTH",
"644 600 OFFCURVE",
"574 720 OFFCURVE",
"395 720 CURVE SMOOTH",
"223 720 OFFCURVE",
"81 610 OFFCURVE",
"81 517 CURVE SMOOTH",
"81 486 OFFCURVE",
"97 461 OFFCURVE",
"141 461 CURVE",
"138 470 OFFCURVE",
"136 482 OFFCURVE",
"136 498 CURVE SMOOTH",
"136 608 OFFCURVE",
"234 693 OFFCURVE",
"365 693 CURVE SMOOTH",
"486 693 OFFCURVE",
"570 619 OFFCURVE",
"570 457 CURVE SMOOTH",
"570 209 OFFCURVE",
"375 -61 OFFCURVE",
"163 -61 CURVE SMOOTH",
"150 -61 OFFCURVE",
"138 -60 OFFCURVE",
"120 -57 CURVE",
"141 40 OFFCURVE",
"174 162 OFFCURVE",
"213 285 CURVE",
"286 285 LINE SMOOTH",
"314 285 OFFCURVE",
"356 290 OFFCURVE",
"389 314 CURVE",
"360 317 OFFCURVE",
"294 323 OFFCURVE",
"225 323 CURVE",
"260 431 OFFCURVE",
"299 537 OFFCURVE",
"336 622 CURVE",
"326 629 OFFCURVE",
"317 632 OFFCURVE",
"308 632 CURVE SMOOTH",
"268 632 OFFCURVE",
"238 559 OFFCURVE",
"230 538 CURVE SMOOTH",
"217 503 OFFCURVE",
"188 420 OFFCURVE",
"157 321 CURVE",
"92 317 OFFCURVE",
"43 304 OFFCURVE",
"32 274 CURVE"
);
}
);
width = 655;
},
{
background = {
paths = (
{
closed = 1;
nodes = (
"84 281 OFFCURVE",
"113 284 OFFCURVE",
"151 284 CURVE",
"117 174 OFFCURVE",
"82 51 OFFCURVE",
"63 -42 CURVE",
"89 -79 OFFCURVE",
"128 -87 OFFCURVE",
"170 -87 CURVE SMOOTH",
"404 -87 OFFCURVE",
"650 157 OFFCURVE",
"650 446 CURVE SMOOTH",
"650 600 OFFCURVE",
"580 720 OFFCURVE",
"401 720 CURVE SMOOTH",
"229 720 OFFCURVE",
"87 610 OFFCURVE",
"87 517 CURVE SMOOTH",
"87 486 OFFCURVE",
"103 461 OFFCURVE",
"147 461 CURVE",
"144 470 OFFCURVE",
"142 482 OFFCURVE",
"142 498 CURVE SMOOTH",
"142 608 OFFCURVE",
"240 693 OFFCURVE",
"371 693 CURVE SMOOTH",
"492 693 OFFCURVE",
"576 619 OFFCURVE",
"576 457 CURVE SMOOTH",
"576 209 OFFCURVE",
"381 -61 OFFCURVE",
"169 -61 CURVE SMOOTH",
"156 -61 OFFCURVE",
"144 -60 OFFCURVE",
"126 -57 CURVE",
"147 40 OFFCURVE",
"180 162 OFFCURVE",
"219 285 CURVE",
"292 285 LINE SMOOTH",
"320 285 OFFCURVE",
"362 290 OFFCURVE",
"395 314 CURVE",
"366 317 OFFCURVE",
"300 323 OFFCURVE",
"231 323 CURVE",
"266 431 OFFCURVE",
"305 537 OFFCURVE",
"342 622 CURVE",
"332 629 OFFCURVE",
"323 632 OFFCURVE",
"314 632 CURVE SMOOTH",
"274 632 OFFCURVE",
"244 559 OFFCURVE",
"236 538 CURVE SMOOTH",
"223 503 OFFCURVE",
"194 420 OFFCURVE",
"163 321 CURVE",
"98 317 OFFCURVE",
"49 304 OFFCURVE",
"38 274 CURVE"
);
}
);
};
hints = (
{
place = "{85, 71}";
},
{
place = "{597, 89}";
},
{
horizontal = 1;
place = "{-87, 40}";
},
{
horizontal = 1;
place = "{279, 51}";
},
{
horizontal = 1;
place = "{679, 41}";
}
);
layerId = "FCB63FBD-5C4C-469B-B6FC-091C423BF597";
paths = (
{
closed = 1;
nodes = (
"72 271 OFFCURVE",
"118 277 OFFCURVE",
"154 278 CURVE",
"121 172 OFFCURVE",
"88 54 OFFCURVE",
"70 -37 CURVE",
"101 -78 OFFCURVE",
"144 -87 OFFCURVE",
"192 -87 CURVE SMOOTH",
"435 -87 OFFCURVE",
"686 148 OFFCURVE",
"686 435 CURVE SMOOTH",
"686 591 OFFCURVE",
"612 720 OFFCURVE",
"415 720 CURVE SMOOTH",
"232 720 OFFCURVE",
"85 608 OFFCURVE",
"85 515 CURVE SMOOTH",
"85 479 OFFCURVE",
"107 451 OFFCURVE",
"165 451 CURVE",
"158 467 OFFCURVE",
"156 484 OFFCURVE",
"156 499 CURVE SMOOTH",
"156 601 OFFCURVE",
"252 679 OFFCURVE",
"383 679 CURVE SMOOTH",
"510 679 OFFCURVE",
"597 606 OFFCURVE",
"597 446 CURVE SMOOTH",
"597 208 OFFCURVE",
"403 -47 OFFCURVE",
"189 -47 CURVE SMOOTH",
"176 -47 OFFCURVE",
"166 -46 OFFCURVE",
"151 -44 CURVE",
"171 49 OFFCURVE",
"202 163 OFFCURVE",
"239 279 CURVE",
"311 279 LINE SMOOTH",
"341 279 OFFCURVE",
"388 286 OFFCURVE",
"438 320 CURVE",
"401 323 OFFCURVE",
"325 330 OFFCURVE",
"255 330 CURVE",
"288 432 OFFCURVE",
"326 534 OFFCURVE",
"364 620 CURVE",
"349 630 OFFCURVE",
"336 634 OFFCURVE",
"326 634 CURVE SMOOTH",
"280 634 OFFCURVE",
"249 559 OFFCURVE",
"241 537 CURVE SMOOTH",
"229 506 OFFCURVE",
"199 420 OFFCURVE",
"170 328 CURVE",
"103 324 OFFCURVE",
"51 310 OFFCURVE",
"28 265 CURVE"
);
}
);
width = 689;
}
);
leftKerningGroup = D;
rightKerningGroup = D;
unicode = 00D0;
},
{
glyphname = Euro;
lastChange = "2016-08-08 09:29:10 +0000";
layers = (
{
background = {
paths = (
{
closed = 1;
nodes = (
"72 260 LINE",
"136 268 LINE",
"133 253 OFFCURVE",
"130 238 OFFCURVE",
"128 223 CURVE",
"67 219 OFFCURVE",
"20 201 OFFCURVE",
"18 155 CURVE",
"52 160 LINE SMOOTH",
"80 164 OFFCURVE",
"102 167 OFFCURVE",
"124 169 CURVE",
"124 157 LINE SMOOTH",
"124 35 OFFCURVE",
"179 -87 OFFCURVE",
"321 -87 CURVE SMOOTH",
"455 -87 OFFCURVE",
"564 21 OFFCURVE",
"631 152 CURVE",
"617 162 LINE",
"564 48 OFFCURVE",
"451 -53 OFFCURVE",
"345 -53 CURVE SMOOTH",
"244 -53 OFFCURVE",
"204 41 OFFCURVE",
"204 140 CURVE SMOOTH",
"204 151 OFFCURVE",
"204 162 OFFCURVE",
"205 174 CURVE",
"343 176 OFFCURVE",
"363 177 OFFCURVE",
"385 208 CURVE",
"337 209 OFFCURVE",
"278 220 OFFCURVE",
"212 224 CURVE",
"215 240 OFFCURVE",
"218 257 OFFCURVE",
"222 273 CURVE",
"363 276 OFFCURVE",
"383 277 OFFCURVE",
"405 308 CURVE",
"358 309 OFFCURVE",
"301 319 OFFCURVE",
"237 323 CURVE",
"297 508 OFFCURVE",
"430 689 OFFCURVE",
"538 689 CURVE SMOOTH",
"572 689 OFFCURVE",
"587 671 OFFCURVE",
"587 644 CURVE SMOOTH",
"587 587 OFFCURVE",
"521 489 OFFCURVE",
"480 443 CURVE",
"488 426 OFFCURVE",
"500 420 OFFCURVE",
"511 420 CURVE SMOOTH",
"566 420 OFFCURVE",
"627 555 OFFCURVE",
"627 633 CURVE SMOOTH",
"627 695 OFFCURVE",
"589 719 OFFCURVE",
"535 719 CURVE SMOOTH",
"384 719 OFFCURVE",
"215 532 OFFCURVE",
"150 324 CURVE",
"88 319 OFFCURVE",
"40 302 OFFCURVE",
"38 255 CURVE"
);
}
);
};
hints = (
{
place = "{587, 40}";
},
{
place = "{124, 80}";
},
{
horizontal = 1;
place = "{-87, 34}";
},
{
horizontal = 1;
place = "{174, 34}";
},
{
horizontal = 1;
place = "{273, 35}";
},
{
horizontal = 1;
place = "{689, 30}";
},
{
horizontal = 1;
place = "{273, 50}";
},
{
horizontal = 1;
place = "{174, 50}";
}
);
layerId = UUID0;
paths = (
{
closed = 1;
nodes = (
"72 260 LINE",
"136 268 LINE",
"133 253 OFFCURVE",
"130 238 OFFCURVE",
"128 223 CURVE",
"67 219 OFFCURVE",
"20 201 OFFCURVE",
"18 155 CURVE",
"52 160 LINE SMOOTH",
"80 164 OFFCURVE",
"102 167 OFFCURVE",
"124 169 CURVE",
"124 157 LINE SMOOTH",
"124 35 OFFCURVE",
"179 -87 OFFCURVE",
"321 -87 CURVE SMOOTH",
"455 -87 OFFCURVE",
"564 21 OFFCURVE",
"631 152 CURVE",
"617 162 LINE",
"564 48 OFFCURVE",
"451 -53 OFFCURVE",
"345 -53 CURVE SMOOTH",
"244 -53 OFFCURVE",
"204 41 OFFCURVE",
"204 140 CURVE SMOOTH",
"204 151 OFFCURVE",
"204 162 OFFCURVE",
"205 174 CURVE",
"343 176 OFFCURVE",
"363 177 OFFCURVE",
"385 208 CURVE",
"337 209 OFFCURVE",
"278 220 OFFCURVE",
"212 224 CURVE",
"215 240 OFFCURVE",
"218 257 OFFCURVE",
"222 273 CURVE",
"363 276 OFFCURVE",
"383 277 OFFCURVE",
"405 308 CURVE",
"358 309 OFFCURVE",
"301 319 OFFCURVE",
"237 323 CURVE",
"297 508 OFFCURVE",
"430 689 OFFCURVE",
"538 689 CURVE SMOOTH",
"572 689 OFFCURVE",
"587 671 OFFCURVE",
"587 644 CURVE SMOOTH",
"587 587 OFFCURVE",
"521 489 OFFCURVE",
"480 443 CURVE",
"488 426 OFFCURVE",
"500 420 OFFCURVE",
"511 420 CURVE SMOOTH",
"566 420 OFFCURVE",
"627 555 OFFCURVE",
"627 633 CURVE SMOOTH",
"627 695 OFFCURVE",
"589 719 OFFCURVE",
"535 719 CURVE SMOOTH",
"384 719 OFFCURVE",
"215 532 OFFCURVE",
"150 324 CURVE",
"88 319 OFFCURVE",
"40 302 OFFCURVE",
"38 255 CURVE"
);
}
);
width = 687;
},
{
background = {
paths = (
{
closed = 1;
nodes = (
"84 260 LINE",
"148 268 LINE",
"145 253 OFFCURVE",
"142 238 OFFCURVE",
"140 223 CURVE",
"79 219 OFFCURVE",
"32 201 OFFCURVE",
"30 155 CURVE",
"64 160 LINE SMOOTH",
"92 164 OFFCURVE",
"114 167 OFFCURVE",
"136 169 CURVE",
"136 157 LINE SMOOTH",
"136 35 OFFCURVE",
"191 -87 OFFCURVE",
"333 -87 CURVE SMOOTH",
"467 -87 OFFCURVE",
"576 21 OFFCURVE",
"643 152 CURVE",
"629 162 LINE",
"576 48 OFFCURVE",
"463 -53 OFFCURVE",
"357 -53 CURVE SMOOTH",
"256 -53 OFFCURVE",
"216 41 OFFCURVE",
"216 140 CURVE SMOOTH",
"216 151 OFFCURVE",
"216 162 OFFCURVE",
"217 174 CURVE",
"355 176 OFFCURVE",
"375 177 OFFCURVE",
"397 208 CURVE",
"349 209 OFFCURVE",
"290 220 OFFCURVE",
"224 224 CURVE",
"227 240 OFFCURVE",
"230 257 OFFCURVE",
"234 273 CURVE",
"375 276 OFFCURVE",
"395 277 OFFCURVE",
"417 308 CURVE",
"370 309 OFFCURVE",
"313 319 OFFCURVE",
"249 323 CURVE",
"309 508 OFFCURVE",
"442 689 OFFCURVE",
"550 689 CURVE SMOOTH",
"584 689 OFFCURVE",
"599 671 OFFCURVE",
"599 644 CURVE SMOOTH",
"599 587 OFFCURVE",
"533 489 OFFCURVE",
"492 443 CURVE",
"500 426 OFFCURVE",
"512 420 OFFCURVE",
"523 420 CURVE SMOOTH",
"578 420 OFFCURVE",
"639 555 OFFCURVE",
"639 633 CURVE SMOOTH",
"639 695 OFFCURVE",
"601 719 OFFCURVE",
"547 719 CURVE SMOOTH",
"396 719 OFFCURVE",
"227 532 OFFCURVE",
"162 324 CURVE",
"100 319 OFFCURVE",
"52 302 OFFCURVE",
"50 255 CURVE"
);
}
);
};
hints = (
{
place = "{30, 207}";
},
{
place = "{614, 55}";
},
{
place = "{137, 100}";
},
{
horizontal = 1;
place = "{-87, 48}";
},
{
horizontal = 1;
place = "{170, 47}";
},
{
horizontal = 1;
place = "{267, 48}";
},
{
horizontal = 1;
place = "{675, 44}";
},
{
horizontal = 1;
place = "{267, 63}";
},
{
horizontal = 1;
place = "{170, 63}";
}
);
layerId = "FCB63FBD-5C4C-469B-B6FC-091C423BF597";
paths = (
{
closed = 1;
nodes = (
"144 232 LINE",
"79 228 OFFCURVE",
"31 209 OFFCURVE",
"30 153 CURVE",
"90 163 OFFCURVE",
"115 162 OFFCURVE",
"137 164 CURVE",
"140 32 OFFCURVE",
"193 -87 OFFCURVE",
"341 -87 CURVE SMOOTH",
"486 -87 OFFCURVE",
"616 26 OFFCURVE",
"686 158 CURVE",
"659 175 LINE",
"605 62 OFFCURVE",
"475 -39 OFFCURVE",
"365 -39 CURVE SMOOTH",
"251 -39 OFFCURVE",
"237 69 OFFCURVE",
"237 170 CURVE",
"379 172 OFFCURVE",
"399 173 OFFCURVE",
"432 217 CURVE",
"358 219 OFFCURVE",
"312 229 OFFCURVE",
"245 233 CURVE",
"252 267 LINE",
"398 270 OFFCURVE",
"418 271 OFFCURVE",
"451 315 CURVE",
"381 317 OFFCURVE",
"334 325 OFFCURVE",
"271 330 CURVE",
"330 506 OFFCURVE",
"460 675 OFFCURVE",
"569 675 CURVE SMOOTH",
"602 675 OFFCURVE",
"614 660 OFFCURVE",
"614 637 CURVE SMOOTH",
"614 581 OFFCURVE",
"545 486 OFFCURVE",
"505 442 CURVE",
"517 419 OFFCURVE",
"532 411 OFFCURVE",
"546 411 CURVE SMOOTH",
"607 411 OFFCURVE",
"669 549 OFFCURVE",
"669 627 CURVE SMOOTH",
"669 694 OFFCURVE",
"624 719 OFFCURVE",
"565 719 CURVE SMOOTH",
"406 719 OFFCURVE",
"232 536 OFFCURVE",
"166 331 CURVE",
"104 326 OFFCURVE",
"48 309 OFFCURVE",
"48 252 CURVE",
"86 260 OFFCURVE",
"120 264 OFFCURVE",
"149 265 CURVE"
);
}
);
width = 730;
}
);
unicode = 20AC;
},
{
glyphname = F;
lastChange = "2016-08-08 09:29:10 +0000";
layers = (
{
background = {
paths = (
{
closed = 1;
nodes = (
"105 310 LINE SMOOTH",
"135 314 OFFCURVE",
"158 317 OFFCURVE",
"182 319 CURVE",
"136 194 OFFCURVE",
"84 63 OFFCURVE",
"84 -8 CURVE SMOOTH",
"84 -52 OFFCURVE",
"91 -82 OFFCURVE",
"152 -87 CURVE",
"153 -39 OFFCURVE",
"164 40 OFFCURVE",
"204 174 CURVE SMOOTH",
"248 323 LINE",
"396 326 OFFCURVE",
"416 327 OFFCURVE",
"438 358 CURVE",
"390 359 OFFCURVE",
"330 370 OFFCURVE",
"263 374 CURVE",
"296 478 OFFCURVE",
"332 591 OFFCURVE",
"359 657 CURVE",
"420 651 OFFCURVE",
"470 640 OFFCURVE",
"501 640 CURVE SMOOTH",
"536 640 OFFCURVE",
"565 654 OFFCURVE",
"614 710 CURVE",
"590 703 OFFCURVE",
"568 700 OFFCURVE",
"540 700 CURVE SMOOTH",
"477 700 OFFCURVE",
"411 715 OFFCURVE",
"341 715 CURVE SMOOTH",
"189 715 OFFCURVE",
"66 643 OFFCURVE",
"66 539 CURVE SMOOTH",
"66 497 OFFCURVE",
"86 469 OFFCURVE",
"132 461 CURVE",
"123 487 OFFCURVE",
"119 510 OFFCURVE",
"119 540 CURVE SMOOTH",
"119 623 OFFCURVE",
"150 662 OFFCURVE",
"279 662 CURVE SMOOTH",
"292 662 OFFCURVE",
"305 661 OFFCURVE",
"318 660 CURVE",
"279 579 OFFCURVE",
"239 477 OFFCURVE",
"202 375 CURVE",
"130 373 OFFCURVE",
"74 356 OFFCURVE",
"71 305 CURVE"
);
}
);
};
hints = (
{
place = "{66, 53}";
},
{
place = "{84, 68}";
},
{
horizontal = 1;
place = "{323, 35}";
},
{
horizontal = 1;
place = "{640, 60}";
},
{
horizontal = 1;
place = "{662, 53}";
},
{
horizontal = 1;
place = "{323, 52}";
},
{
horizontal = 1;
place = "{-87, 21}";
target = up;
type = BottomGhost;
}
);
layerId = UUID0;
paths = (
{
closed = 1;
nodes = (
"105 310 LINE SMOOTH",
"135 314 OFFCURVE",
"158 317 OFFCURVE",
"182 319 CURVE",
"136 194 OFFCURVE",
"84 63 OFFCURVE",
"84 -8 CURVE SMOOTH",
"84 -52 OFFCURVE",
"91 -82 OFFCURVE",
"152 -87 CURVE",
"153 -39 OFFCURVE",
"164 40 OFFCURVE",
"204 174 CURVE SMOOTH",
"248 323 LINE",
"396 326 OFFCURVE",
"416 327 OFFCURVE",
"438 358 CURVE",
"390 359 OFFCURVE",
"330 370 OFFCURVE",
"263 374 CURVE",
"296 478 OFFCURVE",
"332 591 OFFCURVE",
"359 657 CURVE",
"420 651 OFFCURVE",
"470 640 OFFCURVE",
"501 640 CURVE SMOOTH",
"536 640 OFFCURVE",
"565 654 OFFCURVE",
"614 710 CURVE",
"590 703 OFFCURVE",
"568 700 OFFCURVE",
"540 700 CURVE SMOOTH",
"477 700 OFFCURVE",
"411 715 OFFCURVE",
"341 715 CURVE SMOOTH",
"189 715 OFFCURVE",
"66 643 OFFCURVE",
"66 539 CURVE SMOOTH",
"66 497 OFFCURVE",
"86 469 OFFCURVE",
"132 461 CURVE",
"123 487 OFFCURVE",
"119 510 OFFCURVE",
"119 540 CURVE SMOOTH",
"119 623 OFFCURVE",
"150 662 OFFCURVE",
"279 662 CURVE SMOOTH",
"292 662 OFFCURVE",
"305 661 OFFCURVE",
"318 660 CURVE",
"279 579 OFFCURVE",
"239 477 OFFCURVE",
"202 375 CURVE",
"130 373 OFFCURVE",
"74 356 OFFCURVE",
"71 305 CURVE"
);
}
);
width = 483;
},
{
background = {
paths = (
{
closed = 1;
nodes = (
"108 310 LINE SMOOTH",
"138 314 OFFCURVE",
"161 317 OFFCURVE",
"185 319 CURVE",
"139 194 OFFCURVE",
"87 63 OFFCURVE",
"87 -8 CURVE SMOOTH",
"87 -52 OFFCURVE",
"94 -82 OFFCURVE",
"155 -87 CURVE",
"156 -39 OFFCURVE",
"167 40 OFFCURVE",
"207 174 CURVE SMOOTH",
"251 323 LINE",
"399 326 OFFCURVE",
"419 327 OFFCURVE",
"441 358 CURVE",
"393 359 OFFCURVE",
"333 370 OFFCURVE",
"266 374 CURVE",
"299 478 OFFCURVE",
"335 591 OFFCURVE",
"362 657 CURVE",
"423 651 OFFCURVE",
"473 640 OFFCURVE",
"504 640 CURVE SMOOTH",
"539 640 OFFCURVE",
"568 654 OFFCURVE",
"617 710 CURVE",
"593 703 OFFCURVE",
"571 700 OFFCURVE",
"543 700 CURVE SMOOTH",
"480 700 OFFCURVE",
"414 715 OFFCURVE",
"344 715 CURVE SMOOTH",
"192 715 OFFCURVE",
"69 643 OFFCURVE",
"69 539 CURVE SMOOTH",
"69 497 OFFCURVE",
"89 469 OFFCURVE",
"135 461 CURVE",
"126 487 OFFCURVE",
"122 510 OFFCURVE",
"122 540 CURVE SMOOTH",
"122 623 OFFCURVE",
"153 662 OFFCURVE",
"282 662 CURVE SMOOTH",
"295 662 OFFCURVE",
"308 661 OFFCURVE",
"321 660 CURVE",
"282 579 OFFCURVE",
"242 477 OFFCURVE",
"205 375 CURVE",
"133 373 OFFCURVE",
"77 356 OFFCURVE",
"74 305 CURVE"
);
}
);
};
hints = (
{
place = "{73, 67}";
},
{
place = "{102, 86}";
},
{
horizontal = 1;
place = "{316, 48}";
},
{
horizontal = 1;
place = "{627, 74}";
},
{
horizontal = 1;
place = "{649, 52}";
},
{
horizontal = 1;
place = "{649, 66}";
},
{
horizontal = 1;
place = "{316, 65}";
},
{
horizontal = 1;
place = "{-87, 21}";
target = up;
type = BottomGhost;
},
{
horizontal = 1;
place = "{716, -20}";
target = down;
type = TopGhost;
}
);
layerId = "FCB63FBD-5C4C-469B-B6FC-091C423BF597";
paths = (
{
closed = 1;
nodes = (
"103 303 OFFCURVE",
"173 309 OFFCURVE",
"195 311 CURVE",
"145 194 OFFCURVE",
"102 68 OFFCURVE",
"102 -6 CURVE SMOOTH",
"102 -50 OFFCURVE",
"117 -82 OFFCURVE",
"188 -87 CURVE",
"188 -27 OFFCURVE",
"200 47 OFFCURVE",
"237 175 CURVE SMOOTH",
"240 185 OFFCURVE",
"261 255 OFFCURVE",
"278 316 CURVE",
"430 319 OFFCURVE",
"453 321 OFFCURVE",
"484 364 CURVE",
"416 366 OFFCURVE",
"366 375 OFFCURVE",
"297 380 CURVE",
"329 481 OFFCURVE",
"360 579 OFFCURVE",
"387 643 CURVE",
"446 639 OFFCURVE",
"499 627 OFFCURVE",
"531 627 CURVE SMOOTH",
"570 627 OFFCURVE",
"605 645 OFFCURVE",
"669 716 CURVE",
"629 705 OFFCURVE",
"601 701 OFFCURVE",
"568 701 CURVE SMOOTH",
"507 701 OFFCURVE",
"434 715 OFFCURVE",
"363 715 CURVE SMOOTH",
"199 715 OFFCURVE",
"73 641 OFFCURVE",
"73 537 CURVE SMOOTH",
"73 492 OFFCURVE",
"97 460 OFFCURVE",
"160 450 CURVE",
"147 482 OFFCURVE",
"140 506 OFFCURVE",
"140 540 CURVE SMOOTH",
"140 609 OFFCURVE",
"170 649 OFFCURVE",
"293 649 CURVE SMOOTH",
"312 649 OFFCURVE",
"321 648 OFFCURVE",
"329 647 CURVE",
"292 571 OFFCURVE",
"255 477 OFFCURVE",
"220 381 CURVE",
"144 379 OFFCURVE",
"78 359 OFFCURVE",
"73 298 CURVE"
);
}
);
width = 523;
}
);
unicode = 0046;
},
{
glyphname = F.salt;
lastChange = "2016-08-08 09:29:10 +0000";
layers = (
{
background = {
paths = (
{
closed = 1;
nodes = (
"102 314 OFFCURVE",
"124 317 OFFCURVE",
"146 319 CURVE",
"99 194 OFFCURVE",
"44 63 OFFCURVE",
"44 -8 CURVE SMOOTH",
"44 -52 OFFCURVE",
"64 -82 OFFCURVE",
"125 -87 CURVE",
"125 -39 OFFCURVE",
"139 40 OFFCURVE",
"221 323 CURVE",
"365 326 OFFCURVE",
"385 327 OFFCURVE",
"407 358 CURVE",
"360 359 OFFCURVE",
"301 369 OFFCURVE",
"236 373 CURVE",
"269 480 OFFCURVE",
"307 595 OFFCURVE",
"333 661 CURVE",
"342 661 OFFCURVE",
"475 662 OFFCURVE",
"485 662 CURVE SMOOTH",
"512 662 OFFCURVE",
"550 665 OFFCURVE",
"582 697 CURVE",
"535 704 OFFCURVE",
"419 720 OFFCURVE",
"320 720 CURVE SMOOTH",
"185 720 OFFCURVE",
"125 692 OFFCURVE",
"116 641 CURVE",
"175 652 OFFCURVE",
"217 657 OFFCURVE",
"286 659 CURVE",
"247 578 OFFCURVE",
"206 477 OFFCURVE",
"167 375 CURVE",
"97 372 OFFCURVE",
"42 355 OFFCURVE",
"40 305 CURVE"
);
}
);
};
hints = (
{
place = "{44, 81}";
},
{
horizontal = 1;
place = "{323, 35}";
},
{
horizontal = 1;
place = "{659, 61}";
},
{
horizontal = 1;
place = "{323, 52}";
},
{
horizontal = 1;
place = "{-87, 21}";
target = up;
type = BottomGhost;
}
);
layerId = UUID0;
paths = (
{
closed = 1;
nodes = (
"102 314 OFFCURVE",
"124 317 OFFCURVE",
"146 319 CURVE",
"99 194 OFFCURVE",
"44 63 OFFCURVE",
"44 -8 CURVE SMOOTH",
"44 -52 OFFCURVE",
"64 -82 OFFCURVE",
"125 -87 CURVE",
"125 -39 OFFCURVE",
"139 40 OFFCURVE",
"221 323 CURVE",
"365 326 OFFCURVE",
"385 327 OFFCURVE",
"407 358 CURVE",
"360 359 OFFCURVE",
"301 369 OFFCURVE",
"236 373 CURVE",
"269 480 OFFCURVE",
"307 595 OFFCURVE",
"333 661 CURVE",
"485 662 LINE SMOOTH",
"512 662 OFFCURVE",
"550 665 OFFCURVE",
"582 697 CURVE",
"535 704 OFFCURVE",
"419 720 OFFCURVE",
"320 720 CURVE SMOOTH",
"185 720 OFFCURVE",
"125 692 OFFCURVE",
"116 641 CURVE",
"175 652 OFFCURVE",
"217 657 OFFCURVE",
"286 659 CURVE",
"247 578 OFFCURVE",
"206 477 OFFCURVE",
"167 375 CURVE",
"97 372 OFFCURVE",
"42 355 OFFCURVE",
"40 305 CURVE"
);
}
);
width = 454;
},
{
background = {
paths = (
{
closed = 1;
nodes = (
"111 314 OFFCURVE",
"133 317 OFFCURVE",
"155 319 CURVE",
"108 194 OFFCURVE",
"53 63 OFFCURVE",
"53 -8 CURVE SMOOTH",
"53 -52 OFFCURVE",
"73 -82 OFFCURVE",
"134 -87 CURVE",
"134 -39 OFFCURVE",
"148 40 OFFCURVE",
"230 323 CURVE",
"374 326 OFFCURVE",
"394 327 OFFCURVE",
"416 358 CURVE",
"369 359 OFFCURVE",
"310 369 OFFCURVE",
"245 373 CURVE",
"278 480 OFFCURVE",
"316 595 OFFCURVE",
"342 661 CURVE",
"351 661 OFFCURVE",
"484 662 OFFCURVE",
"494 662 CURVE SMOOTH",
"521 662 OFFCURVE",
"559 665 OFFCURVE",
"591 697 CURVE",
"544 704 OFFCURVE",
"428 720 OFFCURVE",
"329 720 CURVE SMOOTH",
"194 720 OFFCURVE",
"134 692 OFFCURVE",
"125 641 CURVE",
"184 652 OFFCURVE",
"226 657 OFFCURVE",
"295 659 CURVE",
"256 578 OFFCURVE",
"215 477 OFFCURVE",
"176 375 CURVE",
"106 372 OFFCURVE",
"51 355 OFFCURVE",
"49 305 CURVE"
);
}
);
};
hints = (
{
place = "{61, 100}";
},
{
horizontal = 1;
place = "{316, 49}";
},
{
horizontal = 1;
place = "{646, 74}";
},
{
horizontal = 1;
place = "{316, 65}";
},
{
horizontal = 1;
place = "{-87, 21}";
target = up;
type = BottomGhost;
}
);
layerId = "FCB63FBD-5C4C-469B-B6FC-091C423BF597";
paths = (
{
closed = 1;
nodes = (
"113 306 OFFCURVE",
"138 309 OFFCURVE",
"158 311 CURVE",
"113 190 OFFCURVE",
"61 68 OFFCURVE",
"61 -1 CURVE SMOOTH",
"61 -49 OFFCURVE",
"87 -82 OFFCURVE",
"161 -87 CURVE",
"161 -36 OFFCURVE",
"172 41 OFFCURVE",
"251 316 CURVE",
"399 319 OFFCURVE",
"421 321 OFFCURVE",
"454 365 CURVE",
"385 365 OFFCURVE",
"333 374 OFFCURVE",
"270 379 CURVE",
"301 482 OFFCURVE",
"335 583 OFFCURVE",
"361 648 CURVE",
"516 649 LINE SMOOTH",
"545 649 OFFCURVE",
"587 653 OFFCURVE",
"632 696 CURVE",
"578 703 OFFCURVE",
"446 720 OFFCURVE",
"342 720 CURVE SMOOTH",
"197 720 OFFCURVE",
"133 687 OFFCURVE",
"123 627 CURVE",
"186 638 OFFCURVE",
"231 643 OFFCURVE",
"297 646 CURVE",
"258 567 OFFCURVE",
"223 480 OFFCURVE",
"185 381 CURVE",
"111 378 OFFCURVE",
"48 349 OFFCURVE",
"46 296 CURVE"
);
}
);
width = 494;
}
);
},
{
glyphname = G;
lastChange = "2016-08-08 09:29:10 +0000";
layers = (
{
background = {
paths = (
{
closed = 1;
nodes = (
"444 -60 OFFCURVE",
"441 -36 OFFCURVE",
"441 -9 CURVE SMOOTH",
"441 39 OFFCURVE",
"451 102 OFFCURVE",
"502 235 CURVE",
"509 267 LINE",
"464 278 OFFCURVE",
"396 314 OFFCURVE",
"340 314 CURVE SMOOTH",
"305 314 OFFCURVE",
"281 300 OFFCURVE",
"272 262 CURVE",
"297 262 OFFCURVE",
"315 263 OFFCURVE",
"333 263 CURVE SMOOTH",
"359 263 OFFCURVE",
"387 261 OFFCURVE",
"436 250 CURVE",
"426 119 OFFCURVE",
"341 -53 OFFCURVE",
"236 -53 CURVE SMOOTH",
"159 -53 OFFCURVE",
"102 20 OFFCURVE",
"102 141 CURVE SMOOTH",
"102 363 OFFCURVE",
"292 689 OFFCURVE",
"436 689 CURVE SMOOTH",
"480 689 OFFCURVE",
"496 666 OFFCURVE",
"496 636 CURVE SMOOTH",
"496 582 OFFCURVE",
"446 503 OFFCURVE",
"418 483 CURVE",
"426 466 OFFCURVE",
"438 460 OFFCURVE",
"449 460 CURVE SMOOTH",
"497 460 OFFCURVE",
"537 536 OFFCURVE",
"537 606 CURVE SMOOTH",
"537 665 OFFCURVE",
"509 719 OFFCURVE",
"433 719 CURVE SMOOTH",
"243 719 OFFCURVE",
"22 418 OFFCURVE",
"22 161 CURVE SMOOTH",
"22 4 OFFCURVE",
"104 -87 OFFCURVE",
"209 -87 CURVE SMOOTH",
"288 -87 OFFCURVE",
"350 -36 OFFCURVE",
"398 31 CURVE",
"393 14 OFFCURVE",
"391 -1 OFFCURVE",
"391 -15 CURVE SMOOTH",
"391 -51 OFFCURVE",
"412 -74 OFFCURVE",
"445 -87 CURVE"
);
}
);
};
hints = (
{
place = "{22, 80}";
},
{
place = "{391, 50}";
},
{
place = "{496, 41}";
},
{
horizontal = 1;
place = "{-87, 34}";
},
{
horizontal = 1;
place = "{263, 51}";
},
{
horizontal = 1;
place = "{689, 30}";
}
);
layerId = UUID0;
paths = (
{
closed = 1;
nodes = (
"444 -60 OFFCURVE",
"441 -36 OFFCURVE",
"441 -9 CURVE SMOOTH",
"441 39 OFFCURVE",
"451 102 OFFCURVE",
"502 235 CURVE",
"509 267 LINE",
"464 278 OFFCURVE",
"396 314 OFFCURVE",
"340 314 CURVE SMOOTH",
"305 314 OFFCURVE",
"281 300 OFFCURVE",
"272 262 CURVE",
"297 262 OFFCURVE",
"315 263 OFFCURVE",
"333 263 CURVE SMOOTH",
"359 263 OFFCURVE",
"387 261 OFFCURVE",
"436 250 CURVE",
"426 119 OFFCURVE",
"341 -53 OFFCURVE",
"236 -53 CURVE SMOOTH",
"159 -53 OFFCURVE",
"102 20 OFFCURVE",
"102 141 CURVE SMOOTH",
"102 363 OFFCURVE",
"292 689 OFFCURVE",
"436 689 CURVE SMOOTH",
"480 689 OFFCURVE",
"496 666 OFFCURVE",
"496 636 CURVE SMOOTH",
"496 582 OFFCURVE",
"446 503 OFFCURVE",
"418 483 CURVE",
"426 466 OFFCURVE",
"438 460 OFFCURVE",
"449 460 CURVE SMOOTH",
"497 460 OFFCURVE",
"537 536 OFFCURVE",
"537 606 CURVE SMOOTH",
"537 665 OFFCURVE",
"509 719 OFFCURVE",
"433 719 CURVE SMOOTH",
"243 719 OFFCURVE",
"22 418 OFFCURVE",
"22 161 CURVE SMOOTH",
"22 4 OFFCURVE",
"104 -87 OFFCURVE",
"209 -87 CURVE SMOOTH",
"288 -87 OFFCURVE",
"350 -36 OFFCURVE",
"398 31 CURVE",
"393 14 OFFCURVE",
"391 -1 OFFCURVE",
"391 -15 CURVE SMOOTH",
"391 -51 OFFCURVE",
"412 -74 OFFCURVE",
"445 -87 CURVE"
);
}
);
width = 555;
},
{
background = {
paths = (
{
closed = 1;
nodes = (
"452 -60 OFFCURVE",
"449 -36 OFFCURVE",
"449 -9 CURVE SMOOTH",
"449 39 OFFCURVE",
"459 102 OFFCURVE",
"510 235 CURVE",
"517 267 LINE",
"472 278 OFFCURVE",
"404 314 OFFCURVE",
"348 314 CURVE SMOOTH",
"313 314 OFFCURVE",
"289 300 OFFCURVE",
"280 262 CURVE",
"305 262 OFFCURVE",
"323 263 OFFCURVE",
"341 263 CURVE SMOOTH",
"367 263 OFFCURVE",
"395 261 OFFCURVE",
"444 250 CURVE",
"434 119 OFFCURVE",
"349 -53 OFFCURVE",
"244 -53 CURVE SMOOTH",
"167 -53 OFFCURVE",
"110 20 OFFCURVE",
"110 141 CURVE SMOOTH",
"110 363 OFFCURVE",
"300 689 OFFCURVE",
"444 689 CURVE SMOOTH",
"488 689 OFFCURVE",
"504 666 OFFCURVE",
"504 636 CURVE SMOOTH",
"504 582 OFFCURVE",
"454 503 OFFCURVE",
"426 483 CURVE",
"434 466 OFFCURVE",
"446 460 OFFCURVE",
"457 460 CURVE SMOOTH",
"505 460 OFFCURVE",
"545 536 OFFCURVE",
"545 606 CURVE SMOOTH",
"545 665 OFFCURVE",
"517 719 OFFCURVE",
"441 719 CURVE SMOOTH",
"251 719 OFFCURVE",
"30 418 OFFCURVE",
"30 161 CURVE SMOOTH",
"30 4 OFFCURVE",
"112 -87 OFFCURVE",
"217 -87 CURVE SMOOTH",
"296 -87 OFFCURVE",
"358 -36 OFFCURVE",
"406 31 CURVE",
"401 14 OFFCURVE",
"399 -1 OFFCURVE",
"399 -15 CURVE SMOOTH",
"399 -51 OFFCURVE",
"420 -74 OFFCURVE",
"453 -87 CURVE"
);
}
);
};
hints = (
{
place = "{32, 96}";
},
{
place = "{517, 56}";
},
{
horizontal = 1;
place = "{-87, 48}";
},
{
horizontal = 1;
place = "{256, 66}";
},
{
horizontal = 1;
place = "{675, 44}";
},
{
horizontal = 1;
place = "{-93, 21}";
target = up;
type = BottomGhost;
}
);
layerId = "FCB63FBD-5C4C-469B-B6FC-091C423BF597";
paths = (
{
closed = 1;
nodes = (
"487 -52 OFFCURVE",
"485 -26 OFFCURVE",
"485 1 CURVE SMOOTH",
"485 64 OFFCURVE",
"496 101 OFFCURVE",
"552 274 CURVE",
"491 287 OFFCURVE",
"427 322 OFFCURVE",
"368 322 CURVE SMOOTH",
"325 322 OFFCURVE",
"300 301 OFFCURVE",
"288 254 CURVE",
"312 255 OFFCURVE",
"333 256 OFFCURVE",
"354 256 CURVE SMOOTH",
"393 256 OFFCURVE",
"427 253 OFFCURVE",
"461 246 CURVE",
"450 119 OFFCURVE",
"372 -39 OFFCURVE",
"262 -39 CURVE SMOOTH",
"188 -39 OFFCURVE",
"128 32 OFFCURVE",
"128 153 CURVE SMOOTH",
"128 365 OFFCURVE",
"312 675 OFFCURVE",
"463 675 CURVE SMOOTH",
"501 675 OFFCURVE",
"517 655 OFFCURVE",
"517 628 CURVE SMOOTH",
"517 579 OFFCURVE",
"466 503 OFFCURVE",
"437 483 CURVE",
"450 458 OFFCURVE",
"463 450 OFFCURVE",
"479 450 CURVE SMOOTH",
"531 450 OFFCURVE",
"573 530 OFFCURVE",
"573 601 CURVE SMOOTH",
"573 663 OFFCURVE",
"541 719 OFFCURVE",
"454 719 CURVE SMOOTH",
"252 719 OFFCURVE",
"32 421 OFFCURVE",
"32 164 CURVE SMOOTH",
"32 5 OFFCURVE",
"125 -87 OFFCURVE",
"238 -87 CURVE SMOOTH",
"314 -87 OFFCURVE",
"374 -46 OFFCURVE",
"421 11 CURVE",
"420 4 OFFCURVE",
"420 -2 OFFCURVE",
"420 -9 CURVE SMOOTH",
"420 -43 OFFCURVE",
"427 -86 OFFCURVE",
"488 -93 CURVE"
);
}
);
width = 586;
}
);
unicode = 0047;
},
{
glyphname = H;
lastChange = "2016-08-08 09:29:10 +0000";
layers = (
{
background = {
paths = (
{
closed = 1;
nodes = (
"603 720 OFFCURVE",
"584 683 OFFCURVE",
"577 668 CURVE SMOOTH",
"559 630 OFFCURVE",
"515 496 OFFCURVE",
"476 368 CURVE",
"425 373 OFFCURVE",
"369 377 OFFCURVE",
"306 377 CURVE SMOOTH",
"286 377 OFFCURVE",
"266 376 OFFCURVE",
"248 375 CURVE",
"326 629 LINE SMOOTH",
"330 642 OFFCURVE",
"334 657 OFFCURVE",
"334 672 CURVE SMOOTH",
"334 696 OFFCURVE",
"324 720 OFFCURVE",
"288 720 CURVE SMOOTH",
"213 720 OFFCURVE",
"88 618 OFFCURVE",
"88 527 CURVE SMOOTH",
"88 495 OFFCURVE",
"104 470 OFFCURVE",
"148 470 CURVE",
"145 479 OFFCURVE",
"143 492 OFFCURVE",
"143 504 CURVE SMOOTH",
"143 570 OFFCURVE",
"202 692 OFFCURVE",
"267 692 CURVE SMOOTH",
"279 692 OFFCURVE",
"281 688 OFFCURVE",
"281 678 CURVE SMOOTH",
"281 658 OFFCURVE",
"272 634 OFFCURVE",
"267 619 CURVE SMOOTH",
"233 521 OFFCURVE",
"205 438 OFFCURVE",
"182 368 CURVE",
"133 358 OFFCURVE",
"100 340 OFFCURVE",
"99 307 CURVE",
"165 314 LINE",
"94 96 OFFCURVE",
"71 5 OFFCURVE",
"55 -87 CURVE",
"76 -87 OFFCURVE",
"110 -69 OFFCURVE",
"124 -23 CURVE SMOOTH",
"132 4 OFFCURVE",
"182 165 OFFCURVE",
"231 320 CURVE",
"290 325 OFFCURVE",
"342 326 OFFCURVE",
"464 327 CURVE",
"441 252 OFFCURVE",
"421 182 OFFCURVE",
"411 142 CURVE SMOOTH",
"395 80 OFFCURVE",
"387 26 OFFCURVE",
"387 -9 CURVE SMOOTH",
"387 -60 OFFCURVE",
"404 -82 OFFCURVE",
"456 -87 CURVE",
"455 -78 OFFCURVE",
"454 -67 OFFCURVE",
"454 -51 CURVE SMOOTH",
"454 -2 OFFCURVE",
"463 77 OFFCURVE",
"487 191 CURVE SMOOTH",
"495 232 OFFCURVE",
"506 279 OFFCURVE",
"518 328 CURVE",
"544 328 OFFCURVE",
"572 329 OFFCURVE",
"602 360 CURVE",
"578 360 OFFCURVE",
"553 363 OFFCURVE",
"527 364 CURVE",
"562 500 OFFCURVE",
"604 646 OFFCURVE",
"632 720 CURVE"
);
}
);
};
hints = (
{
place = "{88, 55}";
},
{
place = "{281, 53}";
},
{
place = "{387, 67}";
},
{
horizontal = 1;
place = "{327, 37}";
},
{
horizontal = 1;
place = "{470, 250}";
},
{
horizontal = 1;
place = "{692, 28}";
},
{
horizontal = 1;
place = "{327, 50}";
},
{
horizontal = 1;
place = "{-87, 21}";
target = up;
type = BottomGhost;
},
{
horizontal = 1;
place = "{360, -20}";
target = down;
type = TopGhost;
},
{
horizontal = 1;
place = "{328, -20}";
target = down;
type = TopGhost;
}
);
layerId = UUID0;
paths = (
{
closed = 1;
nodes = (
"603 720 OFFCURVE",
"584 683 OFFCURVE",
"577 668 CURVE SMOOTH",
"559 630 OFFCURVE",
"515 496 OFFCURVE",
"476 368 CURVE",
"425 373 OFFCURVE",
"369 377 OFFCURVE",
"306 377 CURVE SMOOTH",
"286 377 OFFCURVE",
"266 376 OFFCURVE",
"248 375 CURVE",
"326 629 LINE SMOOTH",
"330 642 OFFCURVE",
"334 657 OFFCURVE",
"334 672 CURVE SMOOTH",
"334 696 OFFCURVE",
"324 720 OFFCURVE",
"288 720 CURVE SMOOTH",
"213 720 OFFCURVE",
"88 618 OFFCURVE",
"88 527 CURVE SMOOTH",
"88 495 OFFCURVE",
"104 470 OFFCURVE",
"148 470 CURVE",
"145 479 OFFCURVE",
"143 492 OFFCURVE",
"143 504 CURVE SMOOTH",
"143 570 OFFCURVE",
"202 692 OFFCURVE",
"267 692 CURVE SMOOTH",
"279 692 OFFCURVE",
"281 688 OFFCURVE",
"281 678 CURVE SMOOTH",
"281 658 OFFCURVE",
"272 634 OFFCURVE",
"267 619 CURVE SMOOTH",
"233 521 OFFCURVE",
"205 438 OFFCURVE",
"182 368 CURVE",
"133 358 OFFCURVE",
"100 340 OFFCURVE",
"99 307 CURVE",
"165 314 LINE",
"94 96 OFFCURVE",
"71 5 OFFCURVE",
"55 -87 CURVE",
"76 -87 OFFCURVE",
"110 -69 OFFCURVE",
"124 -23 CURVE SMOOTH",
"132 4 OFFCURVE",
"182 165 OFFCURVE",
"231 320 CURVE",
"290 325 OFFCURVE",
"342 326 OFFCURVE",
"464 327 CURVE",
"441 252 OFFCURVE",
"421 182 OFFCURVE",
"411 142 CURVE SMOOTH",
"395 80 OFFCURVE",
"387 26 OFFCURVE",
"387 -9 CURVE SMOOTH",
"387 -60 OFFCURVE",
"404 -82 OFFCURVE",
"456 -87 CURVE",
"455 -78 OFFCURVE",
"454 -67 OFFCURVE",
"454 -51 CURVE SMOOTH",
"454 -2 OFFCURVE",
"463 77 OFFCURVE",
"487 191 CURVE SMOOTH",
"495 232 OFFCURVE",
"506 279 OFFCURVE",
"518 328 CURVE",
"544 328 OFFCURVE",
"572 329 OFFCURVE",
"602 360 CURVE",
"578 360 OFFCURVE",
"553 363 OFFCURVE",
"527 364 CURVE",
"562 500 OFFCURVE",
"604 646 OFFCURVE",
"632 720 CURVE"
);
}
);
width = 618;
},
{
background = {
paths = (
{
closed = 1;
nodes = (
"618 720 OFFCURVE",
"599 683 OFFCURVE",
"592 668 CURVE SMOOTH",
"574 630 OFFCURVE",
"530 496 OFFCURVE",
"491 368 CURVE",
"440 373 OFFCURVE",
"384 377 OFFCURVE",
"321 377 CURVE SMOOTH",
"301 377 OFFCURVE",
"281 376 OFFCURVE",
"263 375 CURVE",
"341 629 LINE SMOOTH",
"345 642 OFFCURVE",
"349 657 OFFCURVE",
"349 672 CURVE SMOOTH",
"349 696 OFFCURVE",
"339 720 OFFCURVE",
"303 720 CURVE SMOOTH",
"228 720 OFFCURVE",
"103 618 OFFCURVE",
"103 527 CURVE SMOOTH",
"103 495 OFFCURVE",
"119 470 OFFCURVE",
"163 470 CURVE",
"160 479 OFFCURVE",
"158 492 OFFCURVE",
"158 504 CURVE SMOOTH",
"158 570 OFFCURVE",
"217 692 OFFCURVE",
"282 692 CURVE SMOOTH",
"294 692 OFFCURVE",
"296 688 OFFCURVE",
"296 678 CURVE SMOOTH",
"296 658 OFFCURVE",
"287 634 OFFCURVE",
"282 619 CURVE SMOOTH",
"248 521 OFFCURVE",
"220 438 OFFCURVE",
"197 368 CURVE",
"148 358 OFFCURVE",
"115 340 OFFCURVE",
"114 307 CURVE",
"180 314 LINE",
"109 96 OFFCURVE",
"86 5 OFFCURVE",
"70 -87 CURVE",
"91 -87 OFFCURVE",
"125 -69 OFFCURVE",
"139 -23 CURVE SMOOTH",
"147 4 OFFCURVE",
"197 165 OFFCURVE",
"246 320 CURVE",
"305 325 OFFCURVE",
"357 326 OFFCURVE",
"479 327 CURVE",
"456 252 OFFCURVE",
"436 182 OFFCURVE",
"426 142 CURVE SMOOTH",
"410 80 OFFCURVE",
"402 26 OFFCURVE",
"402 -9 CURVE SMOOTH",
"402 -60 OFFCURVE",
"419 -82 OFFCURVE",
"471 -87 CURVE",
"470 -78 OFFCURVE",
"469 -67 OFFCURVE",
"469 -51 CURVE SMOOTH",
"469 -2 OFFCURVE",
"478 77 OFFCURVE",
"502 191 CURVE SMOOTH",
"510 232 OFFCURVE",
"521 279 OFFCURVE",
"533 328 CURVE",
"559 328 OFFCURVE",
"587 329 OFFCURVE",
"617 360 CURVE",
"593 360 OFFCURVE",
"568 363 OFFCURVE",
"542 364 CURVE",
"577 500 OFFCURVE",
"619 646 OFFCURVE",
"647 720 CURVE"
);
}
);
};
hints = (
{
place = "{96, 69}";
},
{
place = "{293, 69}";
},
{
place = "{418, 83}";
},
{
horizontal = 1;
place = "{320, 47}";
},
{
horizontal = 1;
place = "{678, 42}";
},
{
horizontal = 1;
place = "{320, 63}";
},
{
horizontal = 1;
place = "{721, -20}";
target = down;
type = TopGhost;
},
{
horizontal = 1;
place = "{-87, 21}";
target = up;
type = BottomGhost;
},
{
horizontal = 1;
place = "{321, -20}";
target = down;
type = TopGhost;
},
{
horizontal = 1;
place = "{370, -20}";
target = down;
type = TopGhost;
}
);
layerId = "FCB63FBD-5C4C-469B-B6FC-091C423BF597";
paths = (
{
closed = 1;
nodes = (
"628 721 OFFCURVE",
"611 681 OFFCURVE",
"604 665 CURVE SMOOTH",
"581 611 OFFCURVE",
"556 542 OFFCURVE",
"506 375 CURVE",
"453 380 OFFCURVE",
"396 383 OFFCURVE",
"331 383 CURVE SMOOTH",
"314 383 OFFCURVE",
"297 383 OFFCURVE",
"281 382 CURVE",
"354 622 LINE SMOOTH",
"358 635 OFFCURVE",
"362 650 OFFCURVE",
"362 665 CURVE SMOOTH",
"362 693 OFFCURVE",
"349 720 OFFCURVE",
"306 720 CURVE SMOOTH",
"223 720 OFFCURVE",
"96 616 OFFCURVE",
"96 526 CURVE SMOOTH",
"96 487 OFFCURVE",
"119 460 OFFCURVE",
"175 460 CURVE",
"167 483 OFFCURVE",
"165 494 OFFCURVE",
"165 505 CURVE SMOOTH",
"165 566 OFFCURVE",
"226 678 OFFCURVE",
"280 678 CURVE SMOOTH",
"290 678 OFFCURVE",
"293 674 OFFCURVE",
"293 664 CURVE SMOOTH",
"293 646 OFFCURVE",
"283 622 OFFCURVE",
"281 616 CURVE SMOOTH",
"207 398 OFFCURVE",
"213 419 OFFCURVE",
"198 374 CURVE",
"146 363 OFFCURVE",
"111 342 OFFCURVE",
"111 300 CURVE",
"131 301 OFFCURVE",
"156 304 OFFCURVE",
"176 306 CURVE",
"109 100 OFFCURVE",
"87 8 OFFCURVE",
"72 -87 CURVE",
"97 -87 OFFCURVE",
"141 -68 OFFCURVE",
"156 -19 CURVE SMOOTH",
"246 268 OFFCURVE",
"255 301 OFFCURVE",
"259 313 CURVE",
"319 318 OFFCURVE",
"368 319 OFFCURVE",
"490 320 CURVE",
"434 143 OFFCURVE",
"418 64 OFFCURVE",
"418 6 CURVE SMOOTH",
"418 -59 OFFCURVE",
"438 -80 OFFCURVE",
"506 -87 CURVE",
"503 -71 OFFCURVE",
"501 -55 OFFCURVE",
"501 -34 CURVE SMOOTH",
"501 28 OFFCURVE",
"518 149 OFFCURVE",
"559 321 CURVE",
"586 321 OFFCURVE",
"616 325 OFFCURVE",
"658 367 CURVE",
"629 367 OFFCURVE",
"590 370 OFFCURVE",
"571 370 CURVE",
"604 501 OFFCURVE",
"650 650 OFFCURVE",
"676 721 CURVE"
);
}
);
width = 664;
}
);
unicode = 0048;
},
{
glyphname = I;
lastChange = "2016-08-08 09:29:10 +0000";
layers = (
{
background = {
paths = (
{
closed = 1;
nodes = (
"156 655 OFFCURVE",
"203 659 OFFCURVE",
"307 661 CURVE",
"266 544 OFFCURVE",
"198 149 OFFCURVE",
"125 -8 CURVE",
"41 -8 OFFCURVE",
"-31 -15 OFFCURVE",
"-38 -88 CURVE",
"59 -69 OFFCURVE",
"155 -72 OFFCURVE",
"263 -71 CURVE SMOOTH",
"291 -71 OFFCURVE",
"337 -67 OFFCURVE",
"376 -28 CURVE",
"313 -27 OFFCURVE",
"228 -13 OFFCURVE",
"159 -9 CURVE",
"196 16 OFFCURVE",
"221 76 OFFCURVE",
"243 162 CURVE SMOOTH",
"276 295 OFFCURVE",
"329 591 OFFCURVE",
"342 661 CURVE",
"373 662 OFFCURVE",
"409 662 OFFCURVE",
"451 662 CURVE SMOOTH",
"478 662 OFFCURVE",
"516 665 OFFCURVE",
"548 697 CURVE",
"501 704 OFFCURVE",
"385 718 OFFCURVE",
"286 718 CURVE SMOOTH",
"151 718 OFFCURVE",
"91 692 OFFCURVE",
"82 641 CURVE"
);
}
);
};
hints = (
{
horizontal = 1;
place = "{-71, 43}";
},
{
horizontal = 1;
place = "{661, 57}";
},
{
horizontal = 1;
place = "{-71, 63}";
},
{
horizontal = 1;
place = "{-88, 21}";
target = up;
type = BottomGhost;
}
);
layerId = UUID0;
paths = (
{
closed = 1;
nodes = (
"156 655 OFFCURVE",
"203 659 OFFCURVE",
"307 661 CURVE",
"266 544 OFFCURVE",
"198 149 OFFCURVE",
"125 -8 CURVE",
"41 -8 OFFCURVE",
"-31 -15 OFFCURVE",
"-38 -88 CURVE",
"59 -69 OFFCURVE",
"155 -72 OFFCURVE",
"263 -71 CURVE SMOOTH",
"291 -71 OFFCURVE",
"337 -67 OFFCURVE",
"376 -28 CURVE",
"313 -27 OFFCURVE",
"228 -13 OFFCURVE",
"159 -9 CURVE",
"196 16 OFFCURVE",
"221 76 OFFCURVE",
"243 162 CURVE SMOOTH",
"276 295 OFFCURVE",
"329 591 OFFCURVE",
"342 661 CURVE",
"373 662 OFFCURVE",
"409 662 OFFCURVE",
"451 662 CURVE SMOOTH",
"478 662 OFFCURVE",
"516 665 OFFCURVE",
"548 697 CURVE",
"501 704 OFFCURVE",
"385 718 OFFCURVE",
"286 718 CURVE SMOOTH",
"151 718 OFFCURVE",
"91 692 OFFCURVE",
"82 641 CURVE"
);
}
);
width = 460;
},
{
background = {
paths = (
{
closed = 1;
nodes = (
"174 655 OFFCURVE",
"221 659 OFFCURVE",
"325 661 CURVE",
"284 544 OFFCURVE",
"216 149 OFFCURVE",
"143 -8 CURVE",
"59 -8 OFFCURVE",
"-13 -15 OFFCURVE",
"-20 -88 CURVE",
"77 -69 OFFCURVE",
"173 -72 OFFCURVE",
"281 -71 CURVE SMOOTH",
"309 -71 OFFCURVE",
"355 -67 OFFCURVE",
"394 -28 CURVE",
"331 -27 OFFCURVE",
"246 -13 OFFCURVE",
"177 -9 CURVE",
"214 16 OFFCURVE",
"239 76 OFFCURVE",
"261 162 CURVE SMOOTH",
"294 295 OFFCURVE",
"347 591 OFFCURVE",
"360 661 CURVE",
"391 662 OFFCURVE",
"427 662 OFFCURVE",
"469 662 CURVE SMOOTH",
"496 662 OFFCURVE",
"534 665 OFFCURVE",
"566 697 CURVE",
"519 704 OFFCURVE",
"403 718 OFFCURVE",
"304 718 CURVE SMOOTH",
"169 718 OFFCURVE",
"109 692 OFFCURVE",
"100 641 CURVE"
);
}
);
};
hints = (
{
horizontal = 1;
place = "{-70, 56}";
},
{
horizontal = 1;
place = "{649, 70}";
},
{
horizontal = 1;
place = "{-70, 76}";
},
{
horizontal = 1;
place = "{-88, 21}";
target = up;
type = BottomGhost;
}
);
layerId = "FCB63FBD-5C4C-469B-B6FC-091C423BF597";
paths = (
{
closed = 1;
nodes = (
"163 639 OFFCURVE",
"224 647 OFFCURVE",
"326 649 CURVE",
"283 521 OFFCURVE",
"225 159 OFFCURVE",
"154 6 CURVE",
"65 6 OFFCURVE",
"-11 -3 OFFCURVE",
"-18 -88 CURVE",
"83 -71 OFFCURVE",
"125 -70 OFFCURVE",
"303 -70 CURVE SMOOTH",
"334 -70 OFFCURVE",
"385 -64 OFFCURVE",
"438 -14 CURVE",
"351 -12 OFFCURVE",
"282 -1 OFFCURVE",
"212 4 CURVE",
"243 33 OFFCURVE",
"267 95 OFFCURVE",
"284 164 CURVE SMOOTH",
"311 272 OFFCURVE",
"353 530 OFFCURVE",
"371 619 CURVE SMOOTH",
"377 649 LINE",
"409 650 OFFCURVE",
"441 650 OFFCURVE",
"485 650 CURVE SMOOTH",
"514 650 OFFCURVE",
"556 654 OFFCURVE",
"601 697 CURVE",
"547 704 OFFCURVE",
"417 719 OFFCURVE",
"311 719 CURVE SMOOTH",
"168 719 OFFCURVE",
"103 692 OFFCURVE",
"89 625 CURVE"
);
}
);
width = 504;
}
);
leftKerningGroup = I;
rightKerningGroup = I;
unicode = 0049;
},
{
glyphname = Iacute;
lastChange = "2016-08-08 09:29:10 +0000";
layers = (
{
background = {
paths = (
{
closed = 1;
nodes = (
"156 655 OFFCURVE",
"203 659 OFFCURVE",
"307 661 CURVE",
"266 544 OFFCURVE",
"198 149 OFFCURVE",
"125 -8 CURVE",
"41 -8 OFFCURVE",
"-31 -15 OFFCURVE",
"-38 -88 CURVE",
"59 -69 OFFCURVE",
"155 -72 OFFCURVE",
"263 -71 CURVE SMOOTH",
"291 -71 OFFCURVE",
"337 -67 OFFCURVE",
"376 -28 CURVE",
"313 -27 OFFCURVE",
"228 -13 OFFCURVE",
"159 -9 CURVE",
"196 16 OFFCURVE",
"221 76 OFFCURVE",
"243 162 CURVE SMOOTH",
"276 295 OFFCURVE",
"329 591 OFFCURVE",
"342 661 CURVE",
"373 662 OFFCURVE",
"409 662 OFFCURVE",
"451 662 CURVE SMOOTH",
"478 662 OFFCURVE",
"516 665 OFFCURVE",
"548 697 CURVE",
"501 704 OFFCURVE",
"385 718 OFFCURVE",
"286 718 CURVE SMOOTH",
"151 718 OFFCURVE",
"91 692 OFFCURVE",
"82 641 CURVE"
);
},
{
closed = 1;
nodes = (
"466 888 OFFCURVE",
"457 895 OFFCURVE",
"446 895 CURVE SMOOTH",
"406 895 OFFCURVE",
"342 797 OFFCURVE",
"342 774 CURVE SMOOTH",
"342 768 OFFCURVE",
"346 753 OFFCURVE",
"356 748 CURVE",
"385 787 OFFCURVE",
"420 822 OFFCURVE",
"468 864 CURVE"
);
}
);
};
hints = (
{
horizontal = 1;
place = "{-71, 43}";
},
{
horizontal = 1;
place = "{661, 57}";
},
{
horizontal = 1;
place = "{661, 234}";
},
{
horizontal = 1;
place = "{-71, 63}";
},
{
horizontal = 1;
place = "{-88, 21}";
target = up;
type = BottomGhost;
}
);
layerId = UUID0;
paths = (
{
closed = 1;
nodes = (
"156 655 OFFCURVE",
"203 659 OFFCURVE",
"307 661 CURVE",
"266 544 OFFCURVE",
"198 149 OFFCURVE",
"125 -8 CURVE",
"41 -8 OFFCURVE",
"-31 -15 OFFCURVE",
"-38 -88 CURVE",
"59 -69 OFFCURVE",
"155 -72 OFFCURVE",
"263 -71 CURVE SMOOTH",
"291 -71 OFFCURVE",
"337 -67 OFFCURVE",
"376 -28 CURVE",
"313 -27 OFFCURVE",
"228 -13 OFFCURVE",
"159 -9 CURVE",
"196 16 OFFCURVE",
"221 76 OFFCURVE",
"243 162 CURVE SMOOTH",
"276 295 OFFCURVE",
"329 591 OFFCURVE",
"342 661 CURVE",
"373 662 OFFCURVE",
"409 662 OFFCURVE",
"451 662 CURVE SMOOTH",
"478 662 OFFCURVE",
"516 665 OFFCURVE",
"548 697 CURVE",
"501 704 OFFCURVE",
"385 718 OFFCURVE",
"286 718 CURVE SMOOTH",
"151 718 OFFCURVE",
"91 692 OFFCURVE",
"82 641 CURVE"
);
},
{
closed = 1;
nodes = (
"466 888 OFFCURVE",
"457 895 OFFCURVE",
"446 895 CURVE SMOOTH",
"406 895 OFFCURVE",
"342 797 OFFCURVE",
"342 774 CURVE SMOOTH",
"342 768 OFFCURVE",
"346 753 OFFCURVE",
"356 748 CURVE",
"385 787 OFFCURVE",
"420 822 OFFCURVE",
"468 864 CURVE"
);
}
);
width = 460;
},
{
hints = (
{
horizontal = 1;
place = "{-70, 56}";
},
{
horizontal = 1;
place = "{649, 70}";
},
{
horizontal = 1;
place = "{-70, 76}";
},
{
horizontal = 1;
place = "{-88, 21}";
target = up;
type = BottomGhost;
},
{
horizontal = 1;
place = "{946, -20}";
target = down;
type = TopGhost;
}
);
layerId = "FCB63FBD-5C4C-469B-B6FC-091C423BF597";
paths = (
{
closed = 1;
nodes = (
"163 639 OFFCURVE",
"224 647 OFFCURVE",
"326 649 CURVE",
"283 521 OFFCURVE",
"225 159 OFFCURVE",
"154 6 CURVE",
"65 6 OFFCURVE",
"-11 -3 OFFCURVE",
"-18 -88 CURVE",
"83 -71 OFFCURVE",
"125 -70 OFFCURVE",
"303 -70 CURVE SMOOTH",
"334 -70 OFFCURVE",
"385 -64 OFFCURVE",
"438 -14 CURVE",
"351 -12 OFFCURVE",
"282 -1 OFFCURVE",
"212 4 CURVE",
"243 33 OFFCURVE",
"267 95 OFFCURVE",
"284 164 CURVE SMOOTH",
"311 272 OFFCURVE",
"353 530 OFFCURVE",
"371 619 CURVE SMOOTH",
"377 649 LINE",
"409 650 OFFCURVE",
"441 650 OFFCURVE",
"485 650 CURVE SMOOTH",
"514 650 OFFCURVE",
"556 654 OFFCURVE",
"601 697 CURVE",
"547 704 OFFCURVE",
"417 719 OFFCURVE",
"311 719 CURVE SMOOTH",
"168 719 OFFCURVE",
"103 692 OFFCURVE",
"89 625 CURVE"
);
},
{
closed = 1;
nodes = (
"501 938 OFFCURVE",
"489 946 OFFCURVE",
"474 946 CURVE SMOOTH",
"432 946 OFFCURVE",
"371 853 OFFCURVE",
"371 831 CURVE SMOOTH",
"371 824 OFFCURVE",
"378 805 OFFCURVE",
"395 798 CURVE",
"423 835 OFFCURVE",
"457 866 OFFCURVE",
"504 911 CURVE"
);
}
);
width = 504;
}
);
leftKerningGroup = I;
rightKerningGroup = I;
unicode = 00CD;
},
{
glyphname = Icircumflex;
lastChange = "2016-08-08 09:29:10 +0000";
layers = (
{
background = {
paths = (
{
closed = 1;
nodes = (
"156 655 OFFCURVE",
"203 659 OFFCURVE",
"307 661 CURVE",
"266 544 OFFCURVE",
"198 149 OFFCURVE",
"125 -8 CURVE",
"41 -8 OFFCURVE",
"-31 -15 OFFCURVE",
"-38 -88 CURVE",
"59 -69 OFFCURVE",
"155 -72 OFFCURVE",
"263 -71 CURVE SMOOTH",
"291 -71 OFFCURVE",
"337 -67 OFFCURVE",
"376 -28 CURVE",
"313 -27 OFFCURVE",
"228 -13 OFFCURVE",
"159 -9 CURVE",
"196 16 OFFCURVE",
"221 76 OFFCURVE",
"243 162 CURVE SMOOTH",
"276 295 OFFCURVE",
"329 591 OFFCURVE",
"342 661 CURVE",
"373 662 OFFCURVE",
"409 662 OFFCURVE",
"451 662 CURVE SMOOTH",
"478 662 OFFCURVE",
"516 665 OFFCURVE",
"548 697 CURVE",
"501 704 OFFCURVE",
"385 718 OFFCURVE",
"286 718 CURVE SMOOTH",
"151 718 OFFCURVE",
"91 692 OFFCURVE",
"82 641 CURVE"
);
},
{
closed = 1;
nodes = (
"304 806 OFFCURVE",
"336 821 OFFCURVE",
"377 836 CURVE",
"409 806 OFFCURVE",
"432 782 OFFCURVE",
"451 744 CURVE",
"463 750 OFFCURVE",
"468 762 OFFCURVE",
"468 775 CURVE SMOOTH",
"468 818 OFFCURVE",
"410 886 OFFCURVE",
"378 886 CURVE SMOOTH",
"351 886 OFFCURVE",
"264 837 OFFCURVE",
"264 798 CURVE SMOOTH",
"264 792 OFFCURVE",
"266 784 OFFCURVE",
"274 779 CURVE"
);
}
);
};
hints = (
{
place = "{264, 204}";
},
{
horizontal = 1;
place = "{-71, 43}";
},
{
horizontal = 1;
place = "{661, 57}";
},
{
horizontal = 1;
place = "{661, 225}";
},
{
horizontal = 1;
place = "{-71, 63}";
},
{
horizontal = 1;
place = "{-88, 21}";
target = up;
type = BottomGhost;
}
);
layerId = UUID0;
paths = (
{
closed = 1;
nodes = (
"156 655 OFFCURVE",
"203 659 OFFCURVE",
"307 661 CURVE",
"266 544 OFFCURVE",
"198 149 OFFCURVE",
"125 -8 CURVE",
"41 -8 OFFCURVE",
"-31 -15 OFFCURVE",
"-38 -88 CURVE",
"59 -69 OFFCURVE",
"155 -72 OFFCURVE",
"263 -71 CURVE SMOOTH",
"291 -71 OFFCURVE",
"337 -67 OFFCURVE",
"376 -28 CURVE",
"313 -27 OFFCURVE",
"228 -13 OFFCURVE",
"159 -9 CURVE",
"196 16 OFFCURVE",
"221 76 OFFCURVE",
"243 162 CURVE SMOOTH",
"276 295 OFFCURVE",
"329 591 OFFCURVE",
"342 661 CURVE",
"373 662 OFFCURVE",
"409 662 OFFCURVE",
"451 662 CURVE SMOOTH",
"478 662 OFFCURVE",
"516 665 OFFCURVE",
"548 697 CURVE",
"501 704 OFFCURVE",
"385 718 OFFCURVE",
"286 718 CURVE SMOOTH",
"151 718 OFFCURVE",
"91 692 OFFCURVE",
"82 641 CURVE"
);
},
{
closed = 1;
nodes = (
"304 806 OFFCURVE",
"336 821 OFFCURVE",
"377 836 CURVE",
"409 806 OFFCURVE",
"432 782 OFFCURVE",
"451 744 CURVE",
"463 750 OFFCURVE",
"468 762 OFFCURVE",
"468 775 CURVE SMOOTH",
"468 818 OFFCURVE",
"410 886 OFFCURVE",
"378 886 CURVE SMOOTH",
"351 886 OFFCURVE",
"264 837 OFFCURVE",
"264 798 CURVE SMOOTH",
"264 792 OFFCURVE",
"266 784 OFFCURVE",
"274 779 CURVE"
);
}
);
width = 460;
},
{
hints = (
{
place = "{294, 212}";
},
{
horizontal = 1;
place = "{-70, 56}";
},
{
horizontal = 1;
place = "{649, 70}";
},
{
horizontal = 1;
place = "{-70, 76}";
},
{
horizontal = 1;
place = "{-88, 21}";
target = up;
type = BottomGhost;
},
{
horizontal = 1;
place = "{938, -20}";
target = down;
type = TopGhost;
}
);
layerId = "FCB63FBD-5C4C-469B-B6FC-091C423BF597";
paths = (
{
closed = 1;
nodes = (
"163 639 OFFCURVE",
"224 647 OFFCURVE",
"326 649 CURVE",
"283 521 OFFCURVE",
"225 159 OFFCURVE",
"154 6 CURVE",
"65 6 OFFCURVE",
"-11 -3 OFFCURVE",
"-18 -88 CURVE",
"83 -71 OFFCURVE",
"125 -70 OFFCURVE",
"303 -70 CURVE SMOOTH",
"334 -70 OFFCURVE",
"385 -64 OFFCURVE",
"438 -14 CURVE",
"351 -12 OFFCURVE",
"282 -1 OFFCURVE",
"212 4 CURVE",
"243 33 OFFCURVE",
"267 95 OFFCURVE",
"284 164 CURVE SMOOTH",
"311 272 OFFCURVE",
"353 530 OFFCURVE",
"371 619 CURVE SMOOTH",
"377 649 LINE",
"409 650 OFFCURVE",
"441 650 OFFCURVE",
"485 650 CURVE SMOOTH",
"514 650 OFFCURVE",
"556 654 OFFCURVE",
"601 697 CURVE",
"547 704 OFFCURVE",
"417 719 OFFCURVE",
"311 719 CURVE SMOOTH",
"168 719 OFFCURVE",
"103 692 OFFCURVE",
"89 625 CURVE"
);
},
{
closed = 1;
nodes = (
"342 847 OFFCURVE",
"373 864 OFFCURVE",
"409 876 CURVE",
"437 851 OFFCURVE",
"460 829 OFFCURVE",
"481 793 CURVE",
"499 802 OFFCURVE",
"506 818 OFFCURVE",
"506 832 CURVE SMOOTH",
"506 873 OFFCURVE",
"442 938 OFFCURVE",
"410 938 CURVE SMOOTH",
"381 938 OFFCURVE",
"294 891 OFFCURVE",
"294 852 CURVE SMOOTH",
"294 845 OFFCURVE",
"297 830 OFFCURVE",
"307 824 CURVE"
);
}
);
width = 504;
}
);
leftKerningGroup = I;
rightKerningGroup = I;
unicode = 00CE;
},
{
glyphname = Idieresis;
lastChange = "2016-08-08 09:29:10 +0000";
layers = (
{
background = {
paths = (
{
closed = 1;
nodes = (
"156 655 OFFCURVE",
"203 659 OFFCURVE",
"307 661 CURVE",
"266 544 OFFCURVE",
"198 149 OFFCURVE",
"125 -8 CURVE",
"41 -8 OFFCURVE",
"-31 -15 OFFCURVE",
"-38 -88 CURVE",
"59 -69 OFFCURVE",
"155 -72 OFFCURVE",
"263 -71 CURVE SMOOTH",
"291 -71 OFFCURVE",
"337 -67 OFFCURVE",
"376 -28 CURVE",
"313 -27 OFFCURVE",
"228 -13 OFFCURVE",
"159 -9 CURVE",
"196 16 OFFCURVE",
"221 76 OFFCURVE",
"243 162 CURVE SMOOTH",
"276 295 OFFCURVE",
"329 591 OFFCURVE",
"342 661 CURVE",
"373 662 OFFCURVE",
"409 662 OFFCURVE",
"451 662 CURVE SMOOTH",
"478 662 OFFCURVE",
"516 665 OFFCURVE",
"548 697 CURVE",
"501 704 OFFCURVE",
"385 718 OFFCURVE",
"286 718 CURVE SMOOTH",
"151 718 OFFCURVE",
"91 692 OFFCURVE",
"82 641 CURVE"
);
},
{
closed = 1;
nodes = (
"307 774 OFFCURVE",
"337 800 OFFCURVE",
"337 823 CURVE SMOOTH",
"337 844 OFFCURVE",
"325 851 OFFCURVE",
"307 851 CURVE SMOOTH",
"278 851 OFFCURVE",
"241 829 OFFCURVE",
"241 804 CURVE SMOOTH",
"241 783 OFFCURVE",
"258 774 OFFCURVE",
"278 774 CURVE SMOOTH"
);
},
{
closed = 1;
nodes = (
"451 753 OFFCURVE",
"481 779 OFFCURVE",
"481 802 CURVE SMOOTH",
"481 823 OFFCURVE",
"469 830 OFFCURVE",
"451 830 CURVE SMOOTH",
"422 830 OFFCURVE",
"385 808 OFFCURVE",
"385 783 CURVE SMOOTH",
"385 762 OFFCURVE",
"402 753 OFFCURVE",
"422 753 CURVE SMOOTH"
);
}
);
};
hints = (
{
place = "{241, 96}";
},
{
place = "{385, 96}";
},
{
horizontal = 1;
place = "{-71, 43}";
},
{
horizontal = 1;
place = "{661, 57}";
},
{
horizontal = 1;
place = "{753, 77}";
},
{
horizontal = 1;
place = "{774, 77}";
},
{
horizontal = 1;
place = "{-71, 63}";
},
{
horizontal = 1;
place = "{-88, 21}";
target = up;
type = BottomGhost;
}
);
layerId = UUID0;
paths = (
{
closed = 1;
nodes = (
"156 655 OFFCURVE",
"203 659 OFFCURVE",
"307 661 CURVE",
"266 544 OFFCURVE",
"198 149 OFFCURVE",
"125 -8 CURVE",
"41 -8 OFFCURVE",
"-31 -15 OFFCURVE",
"-38 -88 CURVE",
"59 -69 OFFCURVE",
"155 -72 OFFCURVE",
"263 -71 CURVE SMOOTH",
"291 -71 OFFCURVE",
"337 -67 OFFCURVE",
"376 -28 CURVE",
"313 -27 OFFCURVE",
"228 -13 OFFCURVE",
"159 -9 CURVE",
"196 16 OFFCURVE",
"221 76 OFFCURVE",
"243 162 CURVE SMOOTH",
"276 295 OFFCURVE",
"329 591 OFFCURVE",
"342 661 CURVE",
"373 662 OFFCURVE",
"409 662 OFFCURVE",
"451 662 CURVE SMOOTH",
"478 662 OFFCURVE",
"516 665 OFFCURVE",
"548 697 CURVE",
"501 704 OFFCURVE",
"385 718 OFFCURVE",
"286 718 CURVE SMOOTH",
"151 718 OFFCURVE",
"91 692 OFFCURVE",
"82 641 CURVE"
);
},
{
closed = 1;
nodes = (
"307 774 OFFCURVE",
"337 800 OFFCURVE",
"337 823 CURVE SMOOTH",
"337 844 OFFCURVE",
"325 851 OFFCURVE",
"307 851 CURVE SMOOTH",
"278 851 OFFCURVE",
"241 829 OFFCURVE",
"241 804 CURVE SMOOTH",
"241 783 OFFCURVE",
"258 774 OFFCURVE",
"278 774 CURVE SMOOTH"
);
},
{
closed = 1;
nodes = (
"451 753 OFFCURVE",
"481 779 OFFCURVE",
"481 802 CURVE SMOOTH",
"481 823 OFFCURVE",
"469 830 OFFCURVE",
"451 830 CURVE SMOOTH",
"422 830 OFFCURVE",
"385 808 OFFCURVE",
"385 783 CURVE SMOOTH",
"385 762 OFFCURVE",
"402 753 OFFCURVE",
"422 753 CURVE SMOOTH"
);
}
);
width = 460;
},
{
hints = (
{
place = "{293, 103}";
},
{
place = "{438, 104}";
},
{
horizontal = 1;
place = "{-70, 56}";
},
{
horizontal = 1;
place = "{649, 70}";
},
{
horizontal = 1;
place = "{803, 82}";
},
{
horizontal = 1;
place = "{823, 82}";
},
{
horizontal = 1;
place = "{-70, 76}";
},
{
horizontal = 1;
place = "{-88, 21}";
target = up;
type = BottomGhost;
}
);
layerId = "FCB63FBD-5C4C-469B-B6FC-091C423BF597";
paths = (
{
closed = 1;
nodes = (
"163 639 OFFCURVE",
"224 647 OFFCURVE",
"326 649 CURVE",
"283 521 OFFCURVE",
"225 159 OFFCURVE",
"154 6 CURVE",
"65 6 OFFCURVE",
"-11 -3 OFFCURVE",
"-18 -88 CURVE",
"83 -71 OFFCURVE",
"125 -70 OFFCURVE",
"303 -70 CURVE SMOOTH",
"334 -70 OFFCURVE",
"385 -64 OFFCURVE",
"438 -14 CURVE",
"351 -12 OFFCURVE",
"282 -1 OFFCURVE",
"212 4 CURVE",
"243 33 OFFCURVE",
"267 95 OFFCURVE",
"284 164 CURVE SMOOTH",
"311 272 OFFCURVE",
"353 530 OFFCURVE",
"371 619 CURVE SMOOTH",
"377 649 LINE",
"409 650 OFFCURVE",
"441 650 OFFCURVE",
"485 650 CURVE SMOOTH",
"514 650 OFFCURVE",
"556 654 OFFCURVE",
"601 697 CURVE",
"547 704 OFFCURVE",
"417 719 OFFCURVE",
"311 719 CURVE SMOOTH",
"168 719 OFFCURVE",
"103 692 OFFCURVE",
"89 625 CURVE"
);
},
{
closed = 1;
nodes = (
"366 823 OFFCURVE",
"396 850 OFFCURVE",
"396 873 CURVE SMOOTH",
"396 897 OFFCURVE",
"381 905 OFFCURVE",
"360 905 CURVE SMOOTH",
"330 905 OFFCURVE",
"293 882 OFFCURVE",
"293 857 CURVE SMOOTH",
"293 833 OFFCURVE",
"315 823 OFFCURVE",
"336 823 CURVE SMOOTH"
);
},
{
closed = 1;
nodes = (
"511 803 OFFCURVE",
"542 829 OFFCURVE",
"542 852 CURVE SMOOTH",
"542 877 OFFCURVE",
"525 885 OFFCURVE",
"505 885 CURVE SMOOTH",
"475 885 OFFCURVE",
"438 863 OFFCURVE",
"438 837 CURVE SMOOTH",
"438 814 OFFCURVE",
"459 803 OFFCURVE",
"480 803 CURVE SMOOTH"
);
}
);
width = 504;
}
);
leftKerningGroup = I;
rightKerningGroup = I;
unicode = 00CF;
},
{
glyphname = Igrave;
lastChange = "2016-08-08 09:29:10 +0000";
layers = (
{
background = {
paths = (
{
closed = 1;
nodes = (
"156 655 OFFCURVE",
"203 659 OFFCURVE",
"307 661 CURVE",
"266 544 OFFCURVE",
"198 149 OFFCURVE",
"125 -8 CURVE",
"41 -8 OFFCURVE",
"-31 -15 OFFCURVE",
"-38 -88 CURVE",
"59 -69 OFFCURVE",
"155 -72 OFFCURVE",
"263 -71 CURVE SMOOTH",
"291 -71 OFFCURVE",
"337 -67 OFFCURVE",
"376 -28 CURVE",
"313 -27 OFFCURVE",
"228 -13 OFFCURVE",
"159 -9 CURVE",
"196 16 OFFCURVE",
"221 76 OFFCURVE",
"243 162 CURVE SMOOTH",
"276 295 OFFCURVE",
"329 591 OFFCURVE",
"342 661 CURVE",
"373 662 OFFCURVE",
"409 662 OFFCURVE",
"451 662 CURVE SMOOTH",
"478 662 OFFCURVE",
"516 665 OFFCURVE",
"548 697 CURVE",
"501 704 OFFCURVE",
"385 718 OFFCURVE",
"286 718 CURVE SMOOTH",
"151 718 OFFCURVE",
"91 692 OFFCURVE",
"82 641 CURVE"
);
},
{
closed = 1;
nodes = (
"282 822 OFFCURVE",
"317 787 OFFCURVE",
"346 748 CURVE",
"356 753 OFFCURVE",
"360 768 OFFCURVE",
"360 774 CURVE SMOOTH",
"360 797 OFFCURVE",
"296 895 OFFCURVE",
"256 895 CURVE SMOOTH",
"245 895 OFFCURVE",
"236 888 OFFCURVE",
"234 864 CURVE"
);
}
);
};
hints = (
{
horizontal = 1;
place = "{-71, 43}";
},
{
horizontal = 1;
place = "{661, 57}";
},
{
horizontal = 1;
place = "{661, 234}";
},
{
horizontal = 1;
place = "{-71, 63}";
},
{
horizontal = 1;
place = "{-88, 21}";
target = up;
type = BottomGhost;
}
);
layerId = UUID0;
paths = (
{
closed = 1;
nodes = (
"156 655 OFFCURVE",
"203 659 OFFCURVE",
"307 661 CURVE",
"266 544 OFFCURVE",
"198 149 OFFCURVE",
"125 -8 CURVE",
"41 -8 OFFCURVE",
"-31 -15 OFFCURVE",
"-38 -88 CURVE",
"59 -69 OFFCURVE",
"155 -72 OFFCURVE",
"263 -71 CURVE SMOOTH",
"291 -71 OFFCURVE",
"337 -67 OFFCURVE",
"376 -28 CURVE",
"313 -27 OFFCURVE",
"228 -13 OFFCURVE",
"159 -9 CURVE",
"196 16 OFFCURVE",
"221 76 OFFCURVE",
"243 162 CURVE SMOOTH",
"276 295 OFFCURVE",
"329 591 OFFCURVE",
"342 661 CURVE",
"373 662 OFFCURVE",
"409 662 OFFCURVE",
"451 662 CURVE SMOOTH",
"478 662 OFFCURVE",
"516 665 OFFCURVE",
"548 697 CURVE",
"501 704 OFFCURVE",
"385 718 OFFCURVE",
"286 718 CURVE SMOOTH",
"151 718 OFFCURVE",
"91 692 OFFCURVE",
"82 641 CURVE"
);
},
{
closed = 1;
nodes = (
"282 822 OFFCURVE",
"317 787 OFFCURVE",
"346 748 CURVE",
"356 753 OFFCURVE",
"360 768 OFFCURVE",
"360 774 CURVE SMOOTH",
"360 797 OFFCURVE",
"296 895 OFFCURVE",
"256 895 CURVE SMOOTH",
"245 895 OFFCURVE",
"236 888 OFFCURVE",
"234 864 CURVE"
);
}
);
width = 460;
},
{
hints = (
{
horizontal = 1;
place = "{-70, 56}";
},
{
horizontal = 1;
place = "{649, 70}";
},
{
horizontal = 1;
place = "{-70, 76}";
},
{
horizontal = 1;
place = "{-88, 21}";
target = up;
type = BottomGhost;
},
{
horizontal = 1;
place = "{946, -20}";
target = down;
type = TopGhost;
}
);
layerId = "FCB63FBD-5C4C-469B-B6FC-091C423BF597";
paths = (
{
closed = 1;
nodes = (
"163 639 OFFCURVE",
"224 647 OFFCURVE",
"326 649 CURVE",
"283 521 OFFCURVE",
"225 159 OFFCURVE",
"154 6 CURVE",
"65 6 OFFCURVE",
"-11 -3 OFFCURVE",
"-18 -88 CURVE",
"83 -71 OFFCURVE",
"125 -70 OFFCURVE",
"303 -70 CURVE SMOOTH",
"334 -70 OFFCURVE",
"385 -64 OFFCURVE",
"438 -14 CURVE",
"351 -12 OFFCURVE",
"282 -1 OFFCURVE",
"212 4 CURVE",
"243 33 OFFCURVE",
"267 95 OFFCURVE",
"284 164 CURVE SMOOTH",
"311 272 OFFCURVE",
"353 530 OFFCURVE",
"371 619 CURVE SMOOTH",
"377 649 LINE",
"409 650 OFFCURVE",
"441 650 OFFCURVE",
"485 650 CURVE SMOOTH",
"514 650 OFFCURVE",
"556 654 OFFCURVE",
"601 697 CURVE",
"547 704 OFFCURVE",
"417 719 OFFCURVE",
"311 719 CURVE SMOOTH",
"168 719 OFFCURVE",
"103 692 OFFCURVE",
"89 625 CURVE"
);
},
{
closed = 1;
nodes = (
"341 866 OFFCURVE",
"373 834 OFFCURVE",
"404 797 CURVE",
"420 804 OFFCURVE",
"429 823 OFFCURVE",
"429 833 CURVE SMOOTH",
"429 858 OFFCURVE",
"360 946 OFFCURVE",
"319 946 CURVE SMOOTH",
"304 946 OFFCURVE",
"289 934 OFFCURVE",
"287 907 CURVE"
);
}
);
width = 504;
}
);
leftKerningGroup = I;
rightKerningGroup = I;
unicode = 00CC;
},
{
glyphname = J;
lastChange = "2016-08-08 09:29:10 +0000";
layers = (
{
background = {
paths = (
{
closed = 1;
nodes = (
"201 662 OFFCURVE",
"241 666 OFFCURVE",
"340 667 CURVE",
"315 535 OFFCURVE",
"242 200 OFFCURVE",
"189 54 CURVE SMOOTH",
"159 -28 OFFCURVE",
"134 -51 OFFCURVE",
"100 -51 CURVE SMOOTH",
"59 -51 OFFCURVE",
"37 -16 OFFCURVE",
"37 44 CURVE SMOOTH",
"37 89 OFFCURVE",
"49 143 OFFCURVE",
"73 204 CURVE",
"63 209 OFFCURVE",
"54 212 OFFCURVE",
"45 212 CURVE SMOOTH",
"-2 212 OFFCURVE",
"-31 122 OFFCURVE",
"-31 44 CURVE SMOOTH",
"-31 -68 OFFCURVE",
"30 -86 OFFCURVE",
"77 -86 CURVE SMOOTH",
"136 -86 OFFCURVE",
"188 -58 OFFCURVE",
"241 61 CURVE SMOOTH",
"320 237 OFFCURVE",
"383 576 OFFCURVE",
"383 620 CURVE SMOOTH",
"383 635 OFFCURVE",
"376 656 OFFCURVE",
"362 667 CURVE",
"383 667 OFFCURVE",
"406 668 OFFCURVE",
"433 668 CURVE SMOOTH",
"454 668 OFFCURVE",
"495 672 OFFCURVE",
"510 697 CURVE",
"473 704 OFFCURVE",
"380 718 OFFCURVE",
"301 718 CURVE SMOOTH",
"193 718 OFFCURVE",
"145 692 OFFCURVE",
"138 647 CURVE"
);
}
);
};
hints = (
{
place = "{-31, 68}";
},
{
horizontal = 1;
place = "{-86, 35}";
},
{
horizontal = 1;
place = "{667, 51}";
}
);
layerId = UUID0;
paths = (
{
closed = 1;
nodes = (
"201 662 OFFCURVE",
"241 666 OFFCURVE",
"340 667 CURVE",
"315 535 OFFCURVE",
"242 200 OFFCURVE",
"189 54 CURVE SMOOTH",
"159 -28 OFFCURVE",
"134 -51 OFFCURVE",
"100 -51 CURVE SMOOTH",
"59 -51 OFFCURVE",
"37 -16 OFFCURVE",
"37 44 CURVE SMOOTH",
"37 89 OFFCURVE",
"49 143 OFFCURVE",
"73 204 CURVE",
"63 209 OFFCURVE",
"54 212 OFFCURVE",
"45 212 CURVE SMOOTH",
"-2 212 OFFCURVE",
"-31 122 OFFCURVE",
"-31 44 CURVE SMOOTH",
"-31 -68 OFFCURVE",
"30 -86 OFFCURVE",
"77 -86 CURVE SMOOTH",
"136 -86 OFFCURVE",
"188 -58 OFFCURVE",
"241 61 CURVE SMOOTH",
"320 237 OFFCURVE",
"383 576 OFFCURVE",
"383 620 CURVE SMOOTH",
"383 635 OFFCURVE",
"376 656 OFFCURVE",
"362 667 CURVE",
"383 667 OFFCURVE",
"406 668 OFFCURVE",
"433 668 CURVE SMOOTH",
"454 668 OFFCURVE",
"495 672 OFFCURVE",
"510 697 CURVE",
"473 704 OFFCURVE",
"380 718 OFFCURVE",
"301 718 CURVE SMOOTH",
"193 718 OFFCURVE",
"145 692 OFFCURVE",
"138 647 CURVE"
);
}
);
width = 412;
},
{
background = {
paths = (
{
closed = 1;
nodes = (
"212 662 OFFCURVE",
"252 666 OFFCURVE",
"351 667 CURVE",
"326 535 OFFCURVE",
"253 200 OFFCURVE",
"200 54 CURVE SMOOTH",
"170 -28 OFFCURVE",
"145 -51 OFFCURVE",
"111 -51 CURVE SMOOTH",
"70 -51 OFFCURVE",
"48 -16 OFFCURVE",
"48 44 CURVE SMOOTH",
"48 89 OFFCURVE",
"60 143 OFFCURVE",
"84 204 CURVE",
"74 209 OFFCURVE",
"65 212 OFFCURVE",
"56 212 CURVE SMOOTH",
"9 212 OFFCURVE",
"-20 122 OFFCURVE",
"-20 44 CURVE SMOOTH",
"-20 -68 OFFCURVE",
"41 -86 OFFCURVE",
"88 -86 CURVE SMOOTH",
"147 -86 OFFCURVE",
"199 -58 OFFCURVE",
"252 61 CURVE SMOOTH",
"331 237 OFFCURVE",
"394 576 OFFCURVE",
"394 620 CURVE SMOOTH",
"394 635 OFFCURVE",
"387 656 OFFCURVE",
"373 667 CURVE",
"394 667 OFFCURVE",
"417 668 OFFCURVE",
"444 668 CURVE SMOOTH",
"465 668 OFFCURVE",
"506 672 OFFCURVE",
"521 697 CURVE",
"484 704 OFFCURVE",
"391 718 OFFCURVE",
"312 718 CURVE SMOOTH",
"204 718 OFFCURVE",
"156 692 OFFCURVE",
"149 647 CURVE"
);
}
);
};
hints = (
{
place = "{-18, 83}";
},
{
horizontal = 1;
place = "{-86, 49}";
},
{
horizontal = 1;
place = "{654, 64}";
}
);
layerId = "FCB63FBD-5C4C-469B-B6FC-091C423BF597";
paths = (
{
closed = 1;
nodes = (
"205 645 OFFCURVE",
"259 652 OFFCURVE",
"356 654 CURVE",
"332 521 OFFCURVE",
"263 204 OFFCURVE",
"212 61 CURVE SMOOTH",
"185 -13 OFFCURVE",
"159 -37 OFFCURVE",
"127 -37 CURVE SMOOTH",
"89 -37 OFFCURVE",
"65 -5 OFFCURVE",
"65 49 CURVE SMOOTH",
"65 92 OFFCURVE",
"77 147 OFFCURVE",
"103 210 CURVE",
"87 217 OFFCURVE",
"74 221 OFFCURVE",
"64 221 CURVE SMOOTH",
"10 221 OFFCURVE",
"-18 129 OFFCURVE",
"-18 49 CURVE SMOOTH",
"-18 -67 OFFCURVE",
"52 -86 OFFCURVE",
"104 -86 CURVE SMOOTH",
"166 -86 OFFCURVE",
"225 -54 OFFCURVE",
"278 63 CURVE SMOOTH",
"357 238 OFFCURVE",
"415 571 OFFCURVE",
"416 615 CURVE SMOOTH",
"416 627 OFFCURVE",
"412 642 OFFCURVE",
"403 654 CURVE",
"414 654 OFFCURVE",
"440 655 OFFCURVE",
"461 655 CURVE SMOOTH",
"485 655 OFFCURVE",
"530 660 OFFCURVE",
"552 696 CURVE",
"510 703 OFFCURVE",
"405 718 OFFCURVE",
"322 718 CURVE SMOOTH",
"206 718 OFFCURVE",
"151 694 OFFCURVE",
"142 631 CURVE"
);
}
);
width = 441;
}
);
unicode = 004A;
},
{
glyphname = K;
lastChange = "2016-08-08 09:29:10 +0000";
layers = (
{
background = {
paths = (
{
closed = 1;
nodes = (
"534 621 OFFCURVE",
"412 504 OFFCURVE",
"323 433 CURVE SMOOTH",
"287 404 OFFCURVE",
"256 383 OFFCURVE",
"237 357 CURVE",
"321 629 LINE SMOOTH",
"325 642 OFFCURVE",
"329 657 OFFCURVE",
"329 672 CURVE SMOOTH",
"329 696 OFFCURVE",
"319 720 OFFCURVE",
"283 720 CURVE SMOOTH",
"208 720 OFFCURVE",
"83 618 OFFCURVE",
"83 527 CURVE SMOOTH",
"83 495 OFFCURVE",
"99 470 OFFCURVE",
"143 470 CURVE",
"140 479 OFFCURVE",
"138 492 OFFCURVE",
"138 504 CURVE SMOOTH",
"138 570 OFFCURVE",
"197 692 OFFCURVE",
"262 692 CURVE SMOOTH",
"280 692 OFFCURVE",
"286 682 OFFCURVE",
"286 668 CURVE SMOOTH",
"286 652 OFFCURVE",
"277 630 OFFCURVE",
"273 619 CURVE SMOOTH",
"116 161 OFFCURVE",
"72 24 OFFCURVE",
"30 -69 CURVE",
"63 -69 OFFCURVE",
"105 -69 OFFCURVE",
"119 -23 CURVE SMOOTH",
"216 291 LINE",
"275 160 OFFCURVE",
"422 -87 OFFCURVE",
"495 -87 CURVE SMOOTH",
"518 -87 OFFCURVE",
"540 -72 OFFCURVE",
"549 -54 CURVE",
"378 86 OFFCURVE",
"322 185 OFFCURVE",
"241 322 CURVE",
"366 406 OFFCURVE",
"605 574 OFFCURVE",
"605 676 CURVE SMOOTH",
"605 687 OFFCURVE",
"602 712 OFFCURVE",
"596 720 CURVE"
);
}
);
};
hints = (
{
place = "{83, 55}";
},
{
place = "{286, 43}";
},
{
horizontal = 1;
place = "{470, 250}";
},
{
horizontal = 1;
place = "{692, 28}";
},
{
horizontal = 1;
place = "{-87, 21}";
target = up;
type = BottomGhost;
},
{
horizontal = 1;
place = "{-69, 21}";
target = up;
type = BottomGhost;
}
);
layerId = UUID0;
paths = (
{
closed = 1;
nodes = (
"534 621 OFFCURVE",
"412 504 OFFCURVE",
"323 433 CURVE SMOOTH",
"287 404 OFFCURVE",
"256 383 OFFCURVE",
"237 357 CURVE",
"321 629 LINE SMOOTH",
"325 642 OFFCURVE",
"329 657 OFFCURVE",
"329 672 CURVE SMOOTH",
"329 696 OFFCURVE",
"319 720 OFFCURVE",
"283 720 CURVE SMOOTH",
"208 720 OFFCURVE",
"83 618 OFFCURVE",
"83 527 CURVE SMOOTH",
"83 495 OFFCURVE",
"99 470 OFFCURVE",
"143 470 CURVE",
"140 479 OFFCURVE",
"138 492 OFFCURVE",
"138 504 CURVE SMOOTH",
"138 570 OFFCURVE",
"197 692 OFFCURVE",
"262 692 CURVE SMOOTH",
"280 692 OFFCURVE",
"286 682 OFFCURVE",
"286 668 CURVE SMOOTH",
"286 652 OFFCURVE",
"277 630 OFFCURVE",
"273 619 CURVE SMOOTH",
"116 161 OFFCURVE",
"72 24 OFFCURVE",
"30 -69 CURVE",
"63 -69 OFFCURVE",
"105 -69 OFFCURVE",
"119 -23 CURVE SMOOTH",
"216 291 LINE",
"275 160 OFFCURVE",
"422 -87 OFFCURVE",
"495 -87 CURVE SMOOTH",
"518 -87 OFFCURVE",
"540 -72 OFFCURVE",
"549 -54 CURVE",
"378 86 OFFCURVE",
"322 185 OFFCURVE",
"241 322 CURVE",
"366 406 OFFCURVE",
"605 574 OFFCURVE",
"605 676 CURVE SMOOTH",
"605 687 OFFCURVE",
"602 712 OFFCURVE",
"596 720 CURVE"
);
}
);
width = 591;
},
{
background = {
paths = (
{
closed = 1;
nodes = (
"546 621 OFFCURVE",
"424 504 OFFCURVE",
"335 433 CURVE SMOOTH",
"299 404 OFFCURVE",
"268 383 OFFCURVE",
"249 357 CURVE",
"333 629 LINE SMOOTH",
"337 642 OFFCURVE",
"341 657 OFFCURVE",
"341 672 CURVE SMOOTH",
"341 696 OFFCURVE",
"331 720 OFFCURVE",
"295 720 CURVE SMOOTH",
"220 720 OFFCURVE",
"95 618 OFFCURVE",
"95 527 CURVE SMOOTH",
"95 495 OFFCURVE",
"111 470 OFFCURVE",
"155 470 CURVE",
"152 479 OFFCURVE",
"150 492 OFFCURVE",
"150 504 CURVE SMOOTH",
"150 570 OFFCURVE",
"209 692 OFFCURVE",
"274 692 CURVE SMOOTH",
"292 692 OFFCURVE",
"298 682 OFFCURVE",
"298 668 CURVE SMOOTH",
"298 652 OFFCURVE",
"289 630 OFFCURVE",
"285 619 CURVE SMOOTH",
"128 161 OFFCURVE",
"84 24 OFFCURVE",
"42 -69 CURVE",
"75 -69 OFFCURVE",
"117 -69 OFFCURVE",
"131 -23 CURVE SMOOTH",
"228 291 LINE",
"287 160 OFFCURVE",
"434 -87 OFFCURVE",
"507 -87 CURVE SMOOTH",
"530 -87 OFFCURVE",
"552 -72 OFFCURVE",
"561 -54 CURVE",
"390 86 OFFCURVE",
"334 185 OFFCURVE",
"253 322 CURVE",
"378 406 OFFCURVE",
"617 574 OFFCURVE",
"617 676 CURVE SMOOTH",
"617 687 OFFCURVE",
"614 712 OFFCURVE",
"608 720 CURVE"
);
}
);
};
hints = (
{
place = "{91, 70}";
},
{
place = "{300, 57}";
},
{
horizontal = 1;
place = "{678, 42}";
},
{
horizontal = 1;
place = "{723, -20}";
target = down;
type = TopGhost;
},
{
horizontal = 1;
place = "{-69, 21}";
target = up;
type = BottomGhost;
},
{
horizontal = 1;
place = "{-87, 21}";
target = up;
type = BottomGhost;
}
);
layerId = "FCB63FBD-5C4C-469B-B6FC-091C423BF597";
paths = (
{
closed = 1;
nodes = (
"560 625 OFFCURVE",
"457 520 OFFCURVE",
"345 433 CURVE SMOOTH",
"306 403 OFFCURVE",
"291 391 OFFCURVE",
"276 382 CURVE",
"350 622 LINE SMOOTH",
"354 634 OFFCURVE",
"357 647 OFFCURVE",
"357 662 CURVE SMOOTH",
"357 690 OFFCURVE",
"347 720 OFFCURVE",
"302 720 CURVE SMOOTH",
"219 720 OFFCURVE",
"91 615 OFFCURVE",
"91 525 CURVE SMOOTH",
"91 487 OFFCURVE",
"114 460 OFFCURVE",
"171 460 CURVE",
"165 474 OFFCURVE",
"161 491 OFFCURVE",
"161 506 CURVE SMOOTH",
"161 564 OFFCURVE",
"217 678 OFFCURVE",
"280 678 CURVE SMOOTH",
"295 678 OFFCURVE",
"300 671 OFFCURVE",
"300 659 CURVE SMOOTH",
"300 644 OFFCURVE",
"291 625 OFFCURVE",
"288 616 CURVE SMOOTH",
"121 153 OFFCURVE",
"91 33 OFFCURVE",
"43 -69 CURVE",
"83 -69 OFFCURVE",
"136 -67 OFFCURVE",
"151 -19 CURVE SMOOTH",
"242 275 LINE",
"312 142 OFFCURVE",
"463 -87 OFFCURVE",
"542 -87 CURVE SMOOTH",
"565 -87 OFFCURVE",
"592 -68 OFFCURVE",
"604 -45 CURVE",
"422 94 OFFCURVE",
"360 189 OFFCURVE",
"276 320 CURVE",
"406 403 OFFCURVE",
"645 566 OFFCURVE",
"645 669 CURVE SMOOTH",
"645 682 OFFCURVE",
"641 708 OFFCURVE",
"625 723 CURVE"
);
}
);
width = 638;
}
);
unicode = 004B;
},
{
glyphname = L;
lastChange = "2016-08-08 09:29:10 +0000";
layers = (
{
background = {
paths = (
{
closed = 1;
nodes = (
"68 -53 OFFCURVE",
"104 -31 OFFCURVE",
"137 6 CURVE",
"227 -34 OFFCURVE",
"324 -87 OFFCURVE",
"397 -87 CURVE SMOOTH",
"445 -87 OFFCURVE",
"480 -64 OFFCURVE",
"502 -2 CURVE",
"481 -13 OFFCURVE",
"459 -18 OFFCURVE",
"431 -18 CURVE SMOOTH",
"357 -18 OFFCURVE",
"258 16 OFFCURVE",
"166 44 CURVE",
"224 131 OFFCURVE",
"269 265 OFFCURVE",
"310 388 CURVE",
"326 388 LINE SMOOTH",
"491 388 OFFCURVE",
"566 526 OFFCURVE",
"566 618 CURVE SMOOTH",
"566 698 OFFCURVE",
"509 720 OFFCURVE",
"469 720 CURVE SMOOTH",
"368 720 OFFCURVE",
"306 580 OFFCURVE",
"254 421 CURVE",
"221 439 OFFCURVE",
"197 473 OFFCURVE",
"197 524 CURVE SMOOTH",
"197 542 OFFCURVE",
"200 572 OFFCURVE",
"210 586 CURVE",
"172 586 OFFCURVE",
"148 542 OFFCURVE",
"148 507 CURVE SMOOTH",
"148 462 OFFCURVE",
"185 420 OFFCURVE",
"247 400 CURVE",
"206 274 OFFCURVE",
"169 140 OFFCURVE",
"122 57 CURVE",
"77 69 OFFCURVE",
"34 78 OFFCURVE",
"-1 78 CURVE SMOOTH",
"-55 78 OFFCURVE",
"-74 58 OFFCURVE",
"-74 34 CURVE SMOOTH",
"-74 1 OFFCURVE",
"-39 -53 OFFCURVE",
"26 -53 CURVE SMOOTH"
);
},
{
closed = 1;
nodes = (
"495 695 OFFCURVE",
"512 683 OFFCURVE",
"512 645 CURVE SMOOTH",
"512 566 OFFCURVE",
"437 408 OFFCURVE",
"316 407 CURVE",
"367 561 OFFCURVE",
"414 695 OFFCURVE",
"476 695 CURVE SMOOTH"
);
},
{
closed = 1;
nodes = (
"-19 -24 OFFCURVE",
"-48 10 OFFCURVE",
"-48 33 CURVE SMOOTH",
"-48 45 OFFCURVE",
"-40 52 OFFCURVE",
"-15 52 CURVE SMOOTH",
"17 52 OFFCURVE",
"57 39 OFFCURVE",
"99 22 CURVE",
"77 -7 OFFCURVE",
"51 -24 OFFCURVE",
"22 -24 CURVE SMOOTH"
);
}
);
};
hints = (
{
place = "{-74, 26}";
},
{
place = "{148, 49}";
},
{
place = "{512, 54}";
},
{
horizontal = 1;
place = "{-87, 69}";
},
{
horizontal = 1;
place = "{-53, 35}";
},
{
horizontal = 1;
place = "{52, 26}";
},
{
horizontal = 1;
place = "{695, 25}";
},
{
horizontal = 1;
place = "{388, -20}";
target = down;
type = TopGhost;
},
{
horizontal = 1;
place = "{-24, 21}";
target = up;
type = BottomGhost;
}
);
layerId = UUID0;
paths = (
{
closed = 1;
nodes = (
"68 -53 OFFCURVE",
"104 -31 OFFCURVE",
"137 6 CURVE",
"227 -34 OFFCURVE",
"324 -87 OFFCURVE",
"397 -87 CURVE SMOOTH",
"445 -87 OFFCURVE",
"480 -64 OFFCURVE",
"502 -2 CURVE",
"481 -13 OFFCURVE",
"459 -18 OFFCURVE",
"431 -18 CURVE SMOOTH",
"357 -18 OFFCURVE",
"258 16 OFFCURVE",
"166 44 CURVE",
"224 131 OFFCURVE",
"269 265 OFFCURVE",
"310 388 CURVE",
"326 388 LINE SMOOTH",
"491 388 OFFCURVE",
"566 526 OFFCURVE",
"566 618 CURVE SMOOTH",
"566 698 OFFCURVE",
"509 720 OFFCURVE",
"469 720 CURVE SMOOTH",
"368 720 OFFCURVE",
"306 580 OFFCURVE",
"254 421 CURVE",
"221 439 OFFCURVE",
"197 473 OFFCURVE",
"197 524 CURVE SMOOTH",
"197 542 OFFCURVE",
"200 572 OFFCURVE",
"210 586 CURVE",
"172 586 OFFCURVE",
"148 542 OFFCURVE",
"148 507 CURVE SMOOTH",
"148 462 OFFCURVE",
"185 420 OFFCURVE",
"247 400 CURVE",
"206 274 OFFCURVE",
"169 140 OFFCURVE",
"122 57 CURVE",
"77 69 OFFCURVE",
"34 78 OFFCURVE",
"-1 78 CURVE SMOOTH",
"-55 78 OFFCURVE",
"-74 58 OFFCURVE",
"-74 34 CURVE SMOOTH",
"-74 1 OFFCURVE",
"-39 -53 OFFCURVE",
"26 -53 CURVE SMOOTH"
);
},
{
closed = 1;
nodes = (
"495 695 OFFCURVE",
"512 683 OFFCURVE",
"512 645 CURVE SMOOTH",
"512 566 OFFCURVE",
"437 408 OFFCURVE",
"316 407 CURVE",
"367 561 OFFCURVE",
"414 695 OFFCURVE",
"476 695 CURVE SMOOTH"
);
},
{
closed = 1;
nodes = (
"-19 -24 OFFCURVE",
"-48 10 OFFCURVE",
"-48 33 CURVE SMOOTH",
"-48 45 OFFCURVE",
"-40 52 OFFCURVE",
"-15 52 CURVE SMOOTH",
"17 52 OFFCURVE",
"57 39 OFFCURVE",
"99 22 CURVE",
"77 -7 OFFCURVE",
"51 -24 OFFCURVE",
"22 -24 CURVE SMOOTH"
);
}
);
width = 571;
},
{
background = {
paths = (
{
closed = 1;
nodes = (
"75 -53 OFFCURVE",
"111 -31 OFFCURVE",
"144 6 CURVE",
"234 -34 OFFCURVE",
"331 -87 OFFCURVE",
"404 -87 CURVE SMOOTH",
"452 -87 OFFCURVE",
"487 -64 OFFCURVE",
"509 -2 CURVE",
"488 -13 OFFCURVE",
"466 -18 OFFCURVE",
"438 -18 CURVE SMOOTH",
"364 -18 OFFCURVE",
"265 16 OFFCURVE",
"173 44 CURVE",
"231 131 OFFCURVE",
"276 265 OFFCURVE",
"317 388 CURVE",
"333 388 LINE SMOOTH",
"498 388 OFFCURVE",
"573 526 OFFCURVE",
"573 618 CURVE SMOOTH",
"573 698 OFFCURVE",
"516 720 OFFCURVE",
"476 720 CURVE SMOOTH",
"375 720 OFFCURVE",
"313 580 OFFCURVE",
"261 421 CURVE",
"228 439 OFFCURVE",
"204 473 OFFCURVE",
"204 524 CURVE SMOOTH",
"204 542 OFFCURVE",
"207 572 OFFCURVE",
"217 586 CURVE",
"179 586 OFFCURVE",
"155 542 OFFCURVE",
"155 507 CURVE SMOOTH",
"155 462 OFFCURVE",
"192 420 OFFCURVE",
"254 400 CURVE",
"213 274 OFFCURVE",
"176 140 OFFCURVE",
"129 57 CURVE",
"84 69 OFFCURVE",
"41 78 OFFCURVE",
"6 78 CURVE SMOOTH",
"-48 78 OFFCURVE",
"-67 58 OFFCURVE",
"-67 34 CURVE SMOOTH",
"-67 1 OFFCURVE",
"-32 -53 OFFCURVE",
"33 -53 CURVE SMOOTH"
);
},
{
closed = 1;
nodes = (
"502 695 OFFCURVE",
"519 683 OFFCURVE",
"519 645 CURVE SMOOTH",
"519 566 OFFCURVE",
"444 408 OFFCURVE",
"323 407 CURVE",
"374 561 OFFCURVE",
"421 695 OFFCURVE",
"483 695 CURVE SMOOTH"
);
},
{
closed = 1;
nodes = (
"-12 -24 OFFCURVE",
"-41 10 OFFCURVE",
"-41 33 CURVE SMOOTH",
"-41 45 OFFCURVE",
"-33 52 OFFCURVE",
"-8 52 CURVE SMOOTH",
"24 52 OFFCURVE",
"64 39 OFFCURVE",
"106 22 CURVE",
"84 -7 OFFCURVE",
"58 -24 OFFCURVE",
"29 -24 CURVE SMOOTH"
);
}
);
};
hints = (
{
place = "{-64, 36}";
},
{
place = "{159, 64}";
},
{
place = "{537, 70}";
},
{
horizontal = 1;
place = "{-87, 83}";
},
{
horizontal = 1;
place = "{-53, 37}";
},
{
horizontal = 1;
place = "{50, 40}";
},
{
horizontal = 1;
place = "{380, 33}";
},
{
horizontal = 1;
place = "{681, 39}";
}
);
layerId = "FCB63FBD-5C4C-469B-B6FC-091C423BF597";
paths = (
{
closed = 1;
nodes = (
"93 -53 OFFCURVE",
"131 -32 OFFCURVE",
"165 4 CURVE",
"256 -34 OFFCURVE",
"363 -87 OFFCURVE",
"437 -87 CURVE SMOOTH",
"492 -87 OFFCURVE",
"530 -57 OFFCURVE",
"557 18 CURVE",
"526 3 OFFCURVE",
"501 -4 OFFCURVE",
"469 -4 CURVE SMOOTH",
"396 -4 OFFCURVE",
"281 31 OFFCURVE",
"204 54 CURVE",
"259 138 OFFCURVE",
"303 264 OFFCURVE",
"341 380 CURVE",
"531 380 OFFCURVE",
"607 520 OFFCURVE",
"607 612 CURVE SMOOTH",
"607 697 OFFCURVE",
"541 720 OFFCURVE",
"496 720 CURVE SMOOTH",
"387 720 OFFCURVE",
"325 581 OFFCURVE",
"275 429 CURVE",
"246 446 OFFCURVE",
"223 477 OFFCURVE",
"223 521 CURVE SMOOTH",
"223 537 OFFCURVE",
"226 567 OFFCURVE",
"243 589 CURVE",
"190 589 OFFCURVE",
"159 542 OFFCURVE",
"159 503 CURVE SMOOTH",
"159 461 OFFCURVE",
"196 416 OFFCURVE",
"263 394 CURVE",
"225 280 OFFCURVE",
"189 150 OFFCURVE",
"144 70 CURVE",
"98 82 OFFCURVE",
"54 90 OFFCURVE",
"18 90 CURVE SMOOTH",
"-44 90 OFFCURVE",
"-64 66 OFFCURVE",
"-64 40 CURVE SMOOTH",
"-64 3 OFFCURVE",
"-22 -53 OFFCURVE",
"49 -53 CURVE SMOOTH"
);
},
{
closed = 1;
nodes = (
"521 681 OFFCURVE",
"537 671 OFFCURVE",
"537 636 CURVE SMOOTH",
"537 564 OFFCURVE",
"468 422 OFFCURVE",
"352 413 CURVE",
"400 558 OFFCURVE",
"445 681 OFFCURVE",
"504 681 CURVE SMOOTH"
);
},
{
closed = 1;
nodes = (
"3 -16 OFFCURVE",
"-28 4 OFFCURVE",
"-28 26 CURVE SMOOTH",
"-28 39 OFFCURVE",
"-18 50 OFFCURVE",
"8 50 CURVE SMOOTH",
"34 50 OFFCURVE",
"72 39 OFFCURVE",
"113 24 CURVE",
"91 1 OFFCURVE",
"73 -16 OFFCURVE",
"39 -16 CURVE SMOOTH"
);
}
);
width = 611;
}
);
unicode = 004C;
},
{
glyphname = M;
lastChange = "2016-08-08 09:29:10 +0000";
layers = (
{
background = {
paths = (
{
closed = 1;
nodes = (
"730 705 OFFCURVE",
"719 707 OFFCURVE",
"711 707 CURVE SMOOTH",
"689 707 OFFCURVE",
"679 692 OFFCURVE",
"661 666 CURVE SMOOTH",
"616 600 OFFCURVE",
"429 306 OFFCURVE",
"376 102 CURVE",
"380 214 OFFCURVE",
"397 371 OFFCURVE",
"397 496 CURVE SMOOTH",
"397 677 OFFCURVE",
"361 720 OFFCURVE",
"296 720 CURVE SMOOTH",
"208 720 OFFCURVE",
"101 640 OFFCURVE",
"101 552 CURVE SMOOTH",
"101 519 OFFCURVE",
"116 470 OFFCURVE",
"154 470 CURVE",
"153 479 OFFCURVE",
"152 488 OFFCURVE",
"152 501 CURVE SMOOTH",
"152 582 OFFCURVE",
"191 683 OFFCURVE",
"276 683 CURVE SMOOTH",
"304 683 OFFCURVE",
"310 672 OFFCURVE",
"310 657 CURVE SMOOTH",
"310 642 OFFCURVE",
"304 625 OFFCURVE",
"300 616 CURVE SMOOTH",
"138 252 OFFCURVE",
"-1 -51 OFFCURVE",
"-17 -87 CURVE",
"56 -87 OFFCURVE",
"114 105 OFFCURVE",
"327 602 CURVE",
"328 588 OFFCURVE",
"329 572 OFFCURVE",
"329 546 CURVE SMOOTH",
"329 440 OFFCURVE",
"313 231 OFFCURVE",
"313 121 CURVE SMOOTH",
"313 44 OFFCURVE",
"321 -1 OFFCURVE",
"357 -1 CURVE SMOOTH",
"363 -1 OFFCURVE",
"364 0 OFFCURVE",
"372 3 CURVE",
"413 125 OFFCURVE",
"544 441 OFFCURVE",
"640 564 CURVE",
"588 368 OFFCURVE",
"540 184 OFFCURVE",
"540 25 CURVE SMOOTH",
"540 -57 OFFCURVE",
"553 -87 OFFCURVE",
"622 -87 CURVE",
"613 -54 OFFCURVE",
"607 -50 OFFCURVE",
"607 -5 CURVE SMOOTH",
"607 122 OFFCURVE",
"656 396 OFFCURVE",
"698 560 CURVE SMOOTH",
"715 628 OFFCURVE",
"733 676 OFFCURVE",
"743 700 CURVE"
);
}
);
};
hints = (
{
place = "{101, 51}";
},
{
place = "{313, 63}";
},
{
place = "{329, 68}";
},
{
place = "{540, 67}";
},
{
horizontal = 1;
place = "{683, 37}";
},
{
horizontal = 1;
place = "{-87, 21}";
target = up;
type = BottomGhost;
},
{
horizontal = 1;
place = "{707, -20}";
target = down;
type = TopGhost;
},
{
horizontal = 1;
place = "{-1, 21}";
target = up;
type = BottomGhost;
}
);
layerId = UUID0;
paths = (
{
closed = 1;
nodes = (
"730 705 OFFCURVE",
"719 707 OFFCURVE",
"711 707 CURVE SMOOTH",
"689 707 OFFCURVE",
"679 692 OFFCURVE",
"661 666 CURVE SMOOTH",
"616 600 OFFCURVE",
"429 306 OFFCURVE",
"376 102 CURVE",
"380 214 OFFCURVE",
"397 371 OFFCURVE",
"397 496 CURVE SMOOTH",
"397 677 OFFCURVE",
"361 720 OFFCURVE",
"296 720 CURVE SMOOTH",
"208 720 OFFCURVE",
"101 640 OFFCURVE",
"101 552 CURVE SMOOTH",
"101 519 OFFCURVE",
"116 470 OFFCURVE",
"154 470 CURVE",
"153 479 OFFCURVE",
"152 488 OFFCURVE",
"152 501 CURVE SMOOTH",
"152 582 OFFCURVE",
"191 683 OFFCURVE",
"276 683 CURVE SMOOTH",
"304 683 OFFCURVE",
"310 672 OFFCURVE",
"310 657 CURVE SMOOTH",
"310 642 OFFCURVE",
"304 625 OFFCURVE",
"300 616 CURVE SMOOTH",
"138 252 OFFCURVE",
"-1 -51 OFFCURVE",
"-17 -87 CURVE",
"56 -87 OFFCURVE",
"114 105 OFFCURVE",
"327 602 CURVE",
"328 588 OFFCURVE",
"329 572 OFFCURVE",
"329 546 CURVE SMOOTH",
"329 440 OFFCURVE",
"313 231 OFFCURVE",
"313 121 CURVE SMOOTH",
"313 44 OFFCURVE",
"321 -1 OFFCURVE",
"357 -1 CURVE SMOOTH",
"363 -1 OFFCURVE",
"364 0 OFFCURVE",
"372 3 CURVE",
"413 125 OFFCURVE",
"544 441 OFFCURVE",
"640 564 CURVE",
"588 368 OFFCURVE",
"540 184 OFFCURVE",
"540 25 CURVE SMOOTH",
"540 -57 OFFCURVE",
"553 -87 OFFCURVE",
"622 -87 CURVE",
"613 -54 OFFCURVE",
"607 -50 OFFCURVE",
"607 -5 CURVE SMOOTH",
"607 122 OFFCURVE",
"656 396 OFFCURVE",
"698 560 CURVE SMOOTH",
"715 628 OFFCURVE",
"733 676 OFFCURVE",
"743 700 CURVE"
);
}
);
width = 764;
},
{
background = {
paths = (
{
closed = 1;
nodes = (
"741 705 OFFCURVE",
"730 707 OFFCURVE",
"722 707 CURVE SMOOTH",
"700 707 OFFCURVE",
"690 692 OFFCURVE",
"672 666 CURVE SMOOTH",
"627 600 OFFCURVE",
"440 306 OFFCURVE",
"387 102 CURVE",
"391 214 OFFCURVE",
"408 371 OFFCURVE",
"408 496 CURVE SMOOTH",
"408 677 OFFCURVE",
"372 720 OFFCURVE",
"307 720 CURVE SMOOTH",
"219 720 OFFCURVE",
"112 640 OFFCURVE",
"112 552 CURVE SMOOTH",
"112 519 OFFCURVE",
"127 470 OFFCURVE",
"165 470 CURVE",
"164 479 OFFCURVE",
"163 488 OFFCURVE",
"163 501 CURVE SMOOTH",
"163 582 OFFCURVE",
"202 683 OFFCURVE",
"287 683 CURVE SMOOTH",
"315 683 OFFCURVE",
"321 672 OFFCURVE",
"321 657 CURVE SMOOTH",
"321 642 OFFCURVE",
"315 625 OFFCURVE",
"311 616 CURVE SMOOTH",
"149 252 OFFCURVE",
"10 -51 OFFCURVE",
"-6 -87 CURVE",
"67 -87 OFFCURVE",
"125 105 OFFCURVE",
"338 602 CURVE",
"339 588 OFFCURVE",
"340 572 OFFCURVE",
"340 546 CURVE SMOOTH",
"340 440 OFFCURVE",
"324 231 OFFCURVE",
"324 121 CURVE SMOOTH",
"324 44 OFFCURVE",
"332 -1 OFFCURVE",
"368 -1 CURVE SMOOTH",
"374 -1 OFFCURVE",
"375 0 OFFCURVE",
"383 3 CURVE",
"424 125 OFFCURVE",
"555 441 OFFCURVE",
"651 564 CURVE",
"599 368 OFFCURVE",
"551 184 OFFCURVE",
"551 25 CURVE SMOOTH",
"551 -57 OFFCURVE",
"564 -87 OFFCURVE",
"633 -87 CURVE",
"624 -54 OFFCURVE",
"618 -50 OFFCURVE",
"618 -5 CURVE SMOOTH",
"618 122 OFFCURVE",
"667 396 OFFCURVE",
"709 560 CURVE SMOOTH",
"726 628 OFFCURVE",
"744 676 OFFCURVE",
"754 700 CURVE"
);
}
);
};
hints = (
{
place = "{109, 67}";
},
{
place = "{347, 66}";
},
{
place = "{578, 83}";
},
{
place = "{347, 85}";
},
{
horizontal = 1;
place = "{669, 51}";
},
{
horizontal = 1;
place = "{708, -20}";
target = down;
type = TopGhost;
},
{
horizontal = 1;
place = "{-87, 21}";
target = up;
type = BottomGhost;
},
{
horizontal = 1;
place = "{-2, 21}";
target = up;
type = BottomGhost;
}
);
layerId = "FCB63FBD-5C4C-469B-B6FC-091C423BF597";
paths = (
{
closed = 1;
nodes = (
"770 705 OFFCURVE",
"759 708 OFFCURVE",
"748 708 CURVE SMOOTH",
"723 708 OFFCURVE",
"712 693 OFFCURVE",
"693 664 CURVE SMOOTH",
"646 594 OFFCURVE",
"479 315 OFFCURVE",
"413 117 CURVE",
"413 199 OFFCURVE",
"432 341 OFFCURVE",
"432 472 CURVE SMOOTH",
"432 671 OFFCURVE",
"388 720 OFFCURVE",
"315 720 CURVE SMOOTH",
"219 720 OFFCURVE",
"109 636 OFFCURVE",
"109 551 CURVE SMOOTH",
"109 512 OFFCURVE",
"132 460 OFFCURVE",
"180 460 CURVE",
"177 480 OFFCURVE",
"176 496 OFFCURVE",
"176 508 CURVE SMOOTH",
"176 579 OFFCURVE",
"213 669 OFFCURVE",
"296 669 CURVE SMOOTH",
"318 669 OFFCURVE",
"325 660 OFFCURVE",
"325 647 CURVE SMOOTH",
"325 637 OFFCURVE",
"321 625 OFFCURVE",
"316 614 CURVE SMOOTH",
"128 202 OFFCURVE",
"9 -46 OFFCURVE",
"-5 -87 CURVE",
"86 -87 OFFCURVE",
"142 98 OFFCURVE",
"346 571 CURVE",
"346 552 OFFCURVE",
"347 532 OFFCURVE",
"347 512 CURVE SMOOTH",
"347 399 OFFCURVE",
"339 262 OFFCURVE",
"339 157 CURVE SMOOTH",
"339 58 OFFCURVE",
"346 -2 OFFCURVE",
"393 -2 CURVE SMOOTH",
"399 -2 OFFCURVE",
"402 -1 OFFCURVE",
"407 1 CURVE",
"414 3 LINE",
"452 115 OFFCURVE",
"569 395 OFFCURVE",
"663 529 CURVE",
"618 355 OFFCURVE",
"578 191 OFFCURVE",
"578 43 CURVE SMOOTH",
"578 -51 OFFCURVE",
"594 -87 OFFCURVE",
"681 -87 CURVE",
"668 -52 OFFCURVE",
"661 -43 OFFCURVE",
"661 10 CURVE SMOOTH",
"661 201 OFFCURVE",
"753 613 OFFCURVE",
"792 697 CURVE"
);
}
);
width = 807;
}
);
unicode = 004D;
},
{
glyphname = M.salt;
lastChange = "2016-08-08 09:29:10 +0000";
layers = (
{
background = {
paths = (
{
closed = 1;
nodes = (
"642 261 OFFCURVE",
"780 556 OFFCURVE",
"873 641 CURVE",
"871 657 OFFCURVE",
"859 670 OFFCURVE",
"843 670 CURVE SMOOTH",
"753 670 OFFCURVE",
"516 288 OFFCURVE",
"446 141 CURVE",
"454 190 OFFCURVE",
"461 306 OFFCURVE",
"461 381 CURVE SMOOTH",
"461 599 OFFCURVE",
"401 720 OFFCURVE",
"290 720 CURVE SMOOTH",
"204 720 OFFCURVE",
"152 648 OFFCURVE",
"152 584 CURVE SMOOTH",
"152 544 OFFCURVE",
"172 507 OFFCURVE",
"218 491 CURVE",
"209 507 OFFCURVE",
"205 531 OFFCURVE",
"205 556 CURVE SMOOTH",
"205 621 OFFCURVE",
"231 698 OFFCURVE",
"289 698 CURVE SMOOTH",
"337 698 OFFCURVE",
"378 645 OFFCURVE",
"378 570 CURVE SMOOTH",
"378 441 OFFCURVE",
"259 202 OFFCURVE",
"179 85 CURVE SMOOTH",
"131 15 OFFCURVE",
"75 -46 OFFCURVE",
"0 -46 CURVE SMOOTH",
"-43 -46 OFFCURVE",
"-72 -26 OFFCURVE",
"-92 5 CURVE",
"-100 -5 OFFCURVE",
"-103 -19 OFFCURVE",
"-103 -31 CURVE SMOOTH",
"-103 -70 OFFCURVE",
"-71 -103 OFFCURVE",
"-19 -103 CURVE SMOOTH",
"176 -103 OFFCURVE",
"365 365 OFFCURVE",
"395 489 CURVE",
"401 441 OFFCURVE",
"403 393 OFFCURVE",
"403 346 CURVE SMOOTH",
"403 184 OFFCURVE",
"379 71 OFFCURVE",
"379 35 CURVE SMOOTH",
"379 -2 OFFCURVE",
"404 -13 OFFCURVE",
"407 -13 CURVE SMOOTH",
"411 -13 OFFCURVE",
"424 8 OFFCURVE",
"428 19 CURVE SMOOTH",
"491 181 OFFCURVE",
"510 226 OFFCURVE",
"689 485 CURVE",
"640 380 OFFCURVE",
"574 207 OFFCURVE",
"574 91 CURVE SMOOTH",
"574 -14 OFFCURVE",
"628 -68 OFFCURVE",
"687 -68 CURVE SMOOTH",
"763 -68 OFFCURVE",
"859 20 OFFCURVE",
"913 152 CURVE",
"902 162 LINE",
"848 38 OFFCURVE",
"757 -41 OFFCURVE",
"697 -41 CURVE SMOOTH",
"656 -41 OFFCURVE",
"642 -4 OFFCURVE",
"642 60 CURVE SMOOTH"
);
}
);
};
hints = (
{
place = "{152, 53}";
},
{
place = "{378, 83}";
},
{
place = "{403, 58}";
},
{
place = "{574, 68}";
},
{
horizontal = 1;
place = "{-103, 57}";
},
{
horizontal = 1;
place = "{-68, 22}";
},
{
horizontal = 1;
place = "{698, 22}";
},
{
horizontal = 1;
place = "{-13, 21}";
target = up;
type = BottomGhost;
},
{
horizontal = 1;
place = "{-41, 21}";
target = up;
type = BottomGhost;
}
);
layerId = UUID0;
paths = (
{
closed = 1;
nodes = (
"642 261 OFFCURVE",
"780 556 OFFCURVE",
"873 641 CURVE",
"871 657 OFFCURVE",
"859 670 OFFCURVE",
"843 670 CURVE SMOOTH",
"753 670 OFFCURVE",
"516 288 OFFCURVE",
"446 141 CURVE",
"454 190 OFFCURVE",
"461 306 OFFCURVE",
"461 381 CURVE SMOOTH",
"461 599 OFFCURVE",
"401 720 OFFCURVE",
"290 720 CURVE SMOOTH",
"204 720 OFFCURVE",
"152 648 OFFCURVE",
"152 584 CURVE SMOOTH",
"152 544 OFFCURVE",
"172 507 OFFCURVE",
"218 491 CURVE",
"209 507 OFFCURVE",
"205 531 OFFCURVE",
"205 556 CURVE SMOOTH",
"205 621 OFFCURVE",
"231 698 OFFCURVE",
"289 698 CURVE SMOOTH",
"337 698 OFFCURVE",
"378 645 OFFCURVE",
"378 570 CURVE SMOOTH",
"378 441 OFFCURVE",
"259 202 OFFCURVE",
"179 85 CURVE SMOOTH",
"131 15 OFFCURVE",
"75 -46 OFFCURVE",
"0 -46 CURVE SMOOTH",
"-43 -46 OFFCURVE",
"-72 -26 OFFCURVE",
"-92 5 CURVE",
"-100 -5 OFFCURVE",
"-103 -19 OFFCURVE",
"-103 -31 CURVE SMOOTH",
"-103 -70 OFFCURVE",
"-71 -103 OFFCURVE",
"-19 -103 CURVE SMOOTH",
"176 -103 OFFCURVE",
"365 365 OFFCURVE",
"395 489 CURVE",
"401 441 OFFCURVE",
"403 393 OFFCURVE",
"403 346 CURVE SMOOTH",
"403 184 OFFCURVE",
"379 71 OFFCURVE",
"379 35 CURVE SMOOTH",
"379 -2 OFFCURVE",
"404 -13 OFFCURVE",
"407 -13 CURVE SMOOTH",
"411 -13 OFFCURVE",
"424 8 OFFCURVE",
"428 19 CURVE SMOOTH",
"491 181 OFFCURVE",
"510 226 OFFCURVE",
"689 485 CURVE",
"640 380 OFFCURVE",
"574 207 OFFCURVE",
"574 91 CURVE SMOOTH",
"574 -14 OFFCURVE",
"628 -68 OFFCURVE",
"687 -68 CURVE SMOOTH",
"763 -68 OFFCURVE",
"859 20 OFFCURVE",
"913 152 CURVE",
"902 162 LINE",
"848 38 OFFCURVE",
"757 -41 OFFCURVE",
"697 -41 CURVE SMOOTH",
"656 -41 OFFCURVE",
"642 -4 OFFCURVE",
"642 60 CURVE SMOOTH"
);
}
);
width = 944;
},
{
background = {
paths = (
{
closed = 1;
nodes = (
"664 261 OFFCURVE",
"802 556 OFFCURVE",
"895 641 CURVE",
"893 657 OFFCURVE",
"881 670 OFFCURVE",
"865 670 CURVE SMOOTH",
"775 670 OFFCURVE",
"538 288 OFFCURVE",
"468 141 CURVE",
"476 190 OFFCURVE",
"483 306 OFFCURVE",
"483 381 CURVE SMOOTH",
"483 599 OFFCURVE",
"423 720 OFFCURVE",
"312 720 CURVE SMOOTH",
"226 720 OFFCURVE",
"174 648 OFFCURVE",
"174 584 CURVE SMOOTH",
"174 544 OFFCURVE",
"194 507 OFFCURVE",
"240 491 CURVE",
"231 507 OFFCURVE",
"227 531 OFFCURVE",
"227 556 CURVE SMOOTH",
"227 621 OFFCURVE",
"253 698 OFFCURVE",
"311 698 CURVE SMOOTH",
"359 698 OFFCURVE",
"400 645 OFFCURVE",
"400 570 CURVE SMOOTH",
"400 441 OFFCURVE",
"281 202 OFFCURVE",
"201 85 CURVE SMOOTH",
"153 15 OFFCURVE",
"97 -46 OFFCURVE",
"22 -46 CURVE SMOOTH",
"-21 -46 OFFCURVE",
"-50 -26 OFFCURVE",
"-70 5 CURVE",
"-78 -5 OFFCURVE",
"-81 -19 OFFCURVE",
"-81 -31 CURVE SMOOTH",
"-81 -70 OFFCURVE",
"-49 -103 OFFCURVE",
"3 -103 CURVE SMOOTH",
"198 -103 OFFCURVE",
"387 365 OFFCURVE",
"417 489 CURVE",
"423 441 OFFCURVE",
"425 393 OFFCURVE",
"425 346 CURVE SMOOTH",
"425 184 OFFCURVE",
"401 71 OFFCURVE",
"401 35 CURVE SMOOTH",
"401 -2 OFFCURVE",
"426 -13 OFFCURVE",
"429 -13 CURVE SMOOTH",
"433 -13 OFFCURVE",
"446 8 OFFCURVE",
"450 19 CURVE SMOOTH",
"513 181 OFFCURVE",
"532 226 OFFCURVE",
"711 485 CURVE",
"662 380 OFFCURVE",
"596 207 OFFCURVE",
"596 91 CURVE SMOOTH",
"596 -14 OFFCURVE",
"650 -68 OFFCURVE",
"709 -68 CURVE SMOOTH",
"785 -68 OFFCURVE",
"881 20 OFFCURVE",
"935 152 CURVE",
"924 162 LINE",
"870 38 OFFCURVE",
"779 -41 OFFCURVE",
"719 -41 CURVE SMOOTH",
"678 -41 OFFCURVE",
"664 -4 OFFCURVE",
"664 60 CURVE SMOOTH"
);
}
);
};
hints = (
{
place = "{165, 68}";
},
{
place = "{401, 103}";
},
{
place = "{431, 73}";
},
{
place = "{615, 84}";
},
{
horizontal = 1;
place = "{-103, 70}";
},
{
horizontal = 1;
place = "{-69, 36}";
},
{
horizontal = 1;
place = "{687, 32}";
},
{
horizontal = 1;
place = "{-15, 21}";
target = up;
type = BottomGhost;
},
{
horizontal = 1;
place = "{-28, 21}";
target = up;
type = BottomGhost;
}
);
layerId = "FCB63FBD-5C4C-469B-B6FC-091C423BF597";
paths = (
{
closed = 1;
nodes = (
"699 259 OFFCURVE",
"831 546 OFFCURVE",
"930 632 CURVE",
"926 653 OFFCURVE",
"910 670 OFFCURVE",
"890 670 CURVE SMOOTH",
"800 670 OFFCURVE",
"583 340 OFFCURVE",
"497 178 CURVE",
"501 224 OFFCURVE",
"504 291 OFFCURVE",
"504 343 CURVE SMOOTH",
"504 585 OFFCURVE",
"440 719 OFFCURVE",
"313 719 CURVE SMOOTH",
"218 719 OFFCURVE",
"165 644 OFFCURVE",
"165 581 CURVE SMOOTH",
"165 535 OFFCURVE",
"194 495 OFFCURVE",
"257 475 CURVE",
"240 502 OFFCURVE",
"233 529 OFFCURVE",
"233 558 CURVE SMOOTH",
"233 613 OFFCURVE",
"257 687 OFFCURVE",
"312 687 CURVE SMOOTH",
"359 687 OFFCURVE",
"401 633 OFFCURVE",
"401 560 CURVE SMOOTH",
"401 437 OFFCURVE",
"283 206 OFFCURVE",
"204 93 CURVE SMOOTH",
"155 23 OFFCURVE",
"99 -33 OFFCURVE",
"26 -33 CURVE SMOOTH",
"-18 -33 OFFCURVE",
"-49 -12 OFFCURVE",
"-72 21 CURVE",
"-85 5 OFFCURVE",
"-90 -12 OFFCURVE",
"-90 -27 CURVE SMOOTH",
"-90 -67 OFFCURVE",
"-51 -103 OFFCURVE",
"5 -103 CURVE SMOOTH",
"200 -103 OFFCURVE",
"381 325 OFFCURVE",
"424 478 CURVE",
"429 428 OFFCURVE",
"431 353 OFFCURVE",
"431 308 CURVE SMOOTH",
"431 169 OFFCURVE",
"412 74 OFFCURVE",
"412 41 CURVE SMOOTH",
"412 -4 OFFCURVE",
"446 -15 OFFCURVE",
"449 -15 CURVE SMOOTH",
"455 -15 OFFCURVE",
"474 12 OFFCURVE",
"477 21 CURVE",
"533 167 OFFCURVE",
"559 236 OFFCURVE",
"706 443 CURVE",
"661 341 OFFCURVE",
"615 189 OFFCURVE",
"615 95 CURVE SMOOTH",
"615 -14 OFFCURVE",
"678 -69 OFFCURVE",
"741 -69 CURVE SMOOTH",
"824 -69 OFFCURVE",
"921 26 OFFCURVE",
"977 161 CURVE",
"960 175 LINE",
"905 47 OFFCURVE",
"814 -28 OFFCURVE",
"753 -28 CURVE SMOOTH",
"713 -28 OFFCURVE",
"699 5 OFFCURVE",
"699 67 CURVE SMOOTH"
);
}
);
width = 996;
}
);
},
{
glyphname = N;
lastChange = "2016-08-08 09:29:10 +0000";
layers = (
{
background = {
paths = (
{
closed = 1;
nodes = (
"633 720 OFFCURVE",
"607 688 OFFCURVE",
"600 671 CURVE SMOOTH",
"584 634 OFFCURVE",
"467 260 OFFCURVE",
"439 72 CURVE",
"429 137 OFFCURVE",
"410 275 OFFCURVE",
"395 408 CURVE SMOOTH",
"377 569 OFFCURVE",
"359 720 OFFCURVE",
"279 720 CURVE SMOOTH",
"202 720 OFFCURVE",
"79 618 OFFCURVE",
"79 527 CURVE SMOOTH",
"79 495 OFFCURVE",
"95 470 OFFCURVE",
"139 470 CURVE",
"136 479 OFFCURVE",
"134 492 OFFCURVE",
"134 505 CURVE SMOOTH",
"134 570 OFFCURVE",
"185 683 OFFCURVE",
"250 683 CURVE SMOOTH",
"261 683 OFFCURVE",
"265 673 OFFCURVE",
"265 660 CURVE SMOOTH",
"265 645 OFFCURVE",
"260 626 OFFCURVE",
"258 619 CURVE SMOOTH",
"138 211 OFFCURVE",
"79 40 OFFCURVE",
"46 -87 CURVE",
"107 -87 OFFCURVE",
"134 12 OFFCURVE",
"295 589 CURVE",
"313 462 OFFCURVE",
"366 100 OFFCURVE",
"386 -6 CURVE SMOOTH",
"397 -66 OFFCURVE",
"422 -87 OFFCURVE",
"464 -87 CURVE",
"466 69 OFFCURVE",
"593 535 OFFCURVE",
"663 720 CURVE"
);
}
);
};
hints = (
{
place = "{79, 55}";
},
{
horizontal = 1;
place = "{470, 250}";
},
{
horizontal = 1;
place = "{683, 37}";
},
{
horizontal = 1;
place = "{-87, 21}";
target = up;
type = BottomGhost;
}
);
layerId = UUID0;
paths = (
{
closed = 1;
nodes = (
"633 720 OFFCURVE",
"607 688 OFFCURVE",
"600 671 CURVE SMOOTH",
"584 634 OFFCURVE",
"467 260 OFFCURVE",
"439 72 CURVE",
"429 137 OFFCURVE",
"410 275 OFFCURVE",
"395 408 CURVE SMOOTH",
"377 569 OFFCURVE",
"359 720 OFFCURVE",
"279 720 CURVE SMOOTH",
"202 720 OFFCURVE",
"79 618 OFFCURVE",
"79 527 CURVE SMOOTH",
"79 495 OFFCURVE",
"95 470 OFFCURVE",
"139 470 CURVE",
"136 479 OFFCURVE",
"134 492 OFFCURVE",
"134 505 CURVE SMOOTH",
"134 570 OFFCURVE",
"185 683 OFFCURVE",
"250 683 CURVE SMOOTH",
"261 683 OFFCURVE",
"265 673 OFFCURVE",
"265 660 CURVE SMOOTH",
"265 645 OFFCURVE",
"260 626 OFFCURVE",
"258 619 CURVE SMOOTH",
"138 211 OFFCURVE",
"79 40 OFFCURVE",
"46 -87 CURVE",
"107 -87 OFFCURVE",
"134 12 OFFCURVE",
"295 589 CURVE",
"313 462 OFFCURVE",
"366 100 OFFCURVE",
"386 -6 CURVE SMOOTH",
"397 -66 OFFCURVE",
"422 -87 OFFCURVE",
"464 -87 CURVE",
"466 69 OFFCURVE",
"593 535 OFFCURVE",
"663 720 CURVE"
);
}
);
width = 641;
},
{
background = {
paths = (
{
closed = 1;
nodes = (
"644 720 OFFCURVE",
"618 688 OFFCURVE",
"611 671 CURVE SMOOTH",
"595 634 OFFCURVE",
"478 260 OFFCURVE",
"450 72 CURVE",
"440 137 OFFCURVE",
"421 275 OFFCURVE",
"406 408 CURVE SMOOTH",
"388 569 OFFCURVE",
"370 720 OFFCURVE",
"290 720 CURVE SMOOTH",
"213 720 OFFCURVE",
"90 618 OFFCURVE",
"90 527 CURVE SMOOTH",
"90 495 OFFCURVE",
"106 470 OFFCURVE",
"150 470 CURVE",
"147 479 OFFCURVE",
"145 492 OFFCURVE",
"145 505 CURVE SMOOTH",
"145 570 OFFCURVE",
"196 683 OFFCURVE",
"261 683 CURVE SMOOTH",
"272 683 OFFCURVE",
"276 673 OFFCURVE",
"276 660 CURVE SMOOTH",
"276 645 OFFCURVE",
"271 626 OFFCURVE",
"269 619 CURVE SMOOTH",
"149 211 OFFCURVE",
"90 40 OFFCURVE",
"57 -87 CURVE",
"118 -87 OFFCURVE",
"145 12 OFFCURVE",
"306 589 CURVE",
"324 462 OFFCURVE",
"377 100 OFFCURVE",
"397 -6 CURVE SMOOTH",
"408 -66 OFFCURVE",
"433 -87 OFFCURVE",
"475 -87 CURVE",
"477 69 OFFCURVE",
"604 535 OFFCURVE",
"674 720 CURVE"
);
}
);
};
hints = (
{
place = "{84, 70}";
},
{
horizontal = 1;
place = "{669, 51}";
},
{
horizontal = 1;
place = "{721, -20}";
target = down;
type = TopGhost;
},
{
horizontal = 1;
place = "{-87, 21}";
target = up;
type = BottomGhost;
}
);
layerId = "FCB63FBD-5C4C-469B-B6FC-091C423BF597";
paths = (
{
closed = 1;
nodes = (
"663 721 OFFCURVE",
"638 689 OFFCURVE",
"626 668 CURVE SMOOTH",
"578 585 OFFCURVE",
"523 306 OFFCURVE",
"475 114 CURVE",
"463 177 OFFCURVE",
"460 193 OFFCURVE",
"429 407 CURVE SMOOTH",
"405 571 OFFCURVE",
"383 720 OFFCURVE",
"291 720 CURVE SMOOTH",
"214 720 OFFCURVE",
"84 616 OFFCURVE",
"84 525 CURVE SMOOTH",
"84 488 OFFCURVE",
"105 460 OFFCURVE",
"164 460 CURVE",
"158 474 OFFCURVE",
"154 491 OFFCURVE",
"154 507 CURVE SMOOTH",
"154 565 OFFCURVE",
"205 669 OFFCURVE",
"262 669 CURVE SMOOTH",
"273 669 OFFCURVE",
"275 665 OFFCURVE",
"275 655 CURVE SMOOTH",
"275 639 OFFCURVE",
"269 620 OFFCURVE",
"268 616 CURVE",
"152 213 OFFCURVE",
"97 45 OFFCURVE",
"56 -87 CURVE",
"132 -87 OFFCURVE",
"162 8 OFFCURVE",
"312 555 CURVE",
"330 457 OFFCURVE",
"399 66 OFFCURVE",
"415 -1 CURVE SMOOTH",
"431 -69 OFFCURVE",
"462 -87 OFFCURVE",
"511 -87 CURVE",
"511 70 OFFCURVE",
"637 539 OFFCURVE",
"707 721 CURVE"
);
}
);
width = 675;
}
);
leftKerningGroup = N;
rightKerningGroup = N;
unicode = 004E;
},
{
glyphname = Ntilde;
lastChange = "2016-08-08 09:29:10 +0000";
layers = (
{
background = {
paths = (
{
closed = 1;
nodes = (
"633 720 OFFCURVE",
"607 688 OFFCURVE",
"600 671 CURVE SMOOTH",
"584 634 OFFCURVE",
"467 260 OFFCURVE",
"439 72 CURVE",
"429 137 OFFCURVE",
"410 275 OFFCURVE",
"395 408 CURVE SMOOTH",
"377 569 OFFCURVE",
"359 720 OFFCURVE",
"279 720 CURVE SMOOTH",
"202 720 OFFCURVE",
"79 618 OFFCURVE",
"79 527 CURVE SMOOTH",
"79 495 OFFCURVE",
"95 470 OFFCURVE",
"139 470 CURVE",
"136 479 OFFCURVE",
"134 492 OFFCURVE",
"134 505 CURVE SMOOTH",
"134 570 OFFCURVE",
"185 683 OFFCURVE",
"250 683 CURVE SMOOTH",
"261 683 OFFCURVE",
"265 673 OFFCURVE",
"265 660 CURVE SMOOTH",
"265 645 OFFCURVE",
"260 626 OFFCURVE",
"258 619 CURVE SMOOTH",
"138 211 OFFCURVE",
"79 40 OFFCURVE",
"46 -87 CURVE",
"107 -87 OFFCURVE",
"134 12 OFFCURVE",
"295 589 CURVE",
"313 462 OFFCURVE",
"366 100 OFFCURVE",
"386 -6 CURVE SMOOTH",
"397 -66 OFFCURVE",
"422 -87 OFFCURVE",
"464 -87 CURVE",
"466 69 OFFCURVE",
"593 535 OFFCURVE",
"663 720 CURVE"
);
},
{
closed = 1;
nodes = (
"325 765 OFFCURVE",
"340 767 OFFCURVE",
"356 767 CURVE SMOOTH",
"419 767 OFFCURVE",
"482 728 OFFCURVE",
"539 728 CURVE SMOOTH",
"567 728 OFFCURVE",
"593 737 OFFCURVE",
"617 764 CURVE",
"607 762 OFFCURVE",
"597 761 OFFCURVE",
"587 761 CURVE SMOOTH",
"513 761 OFFCURVE",
"449 805 OFFCURVE",
"393 805 CURVE SMOOTH",
"363 805 OFFCURVE",
"336 793 OFFCURVE",
"310 759 CURVE"
);
}
);
};
hints = (
{
place = "{79, 55}";
},
{
horizontal = 1;
place = "{470, 250}";
},
{
horizontal = 1;
place = "{683, 37}";
},
{
horizontal = 1;
place = "{728, 33}";
},
{
horizontal = 1;
place = "{767, 38}";
},
{
horizontal = 1;
place = "{-87, 21}";
target = up;
type = BottomGhost;
}
);
layerId = UUID0;
paths = (
{
closed = 1;
nodes = (
"633 720 OFFCURVE",
"607 688 OFFCURVE",
"600 671 CURVE SMOOTH",
"584 634 OFFCURVE",
"467 260 OFFCURVE",
"439 72 CURVE",
"429 137 OFFCURVE",
"410 275 OFFCURVE",
"395 408 CURVE SMOOTH",
"377 569 OFFCURVE",
"359 720 OFFCURVE",
"279 720 CURVE SMOOTH",
"202 720 OFFCURVE",
"79 618 OFFCURVE",
"79 527 CURVE SMOOTH",
"79 495 OFFCURVE",
"95 470 OFFCURVE",
"139 470 CURVE",
"136 479 OFFCURVE",
"134 492 OFFCURVE",
"134 505 CURVE SMOOTH",
"134 570 OFFCURVE",
"185 683 OFFCURVE",
"250 683 CURVE SMOOTH",
"261 683 OFFCURVE",
"265 673 OFFCURVE",
"265 660 CURVE SMOOTH",
"265 645 OFFCURVE",
"260 626 OFFCURVE",
"258 619 CURVE SMOOTH",
"138 211 OFFCURVE",
"79 40 OFFCURVE",
"46 -87 CURVE",
"107 -87 OFFCURVE",
"134 12 OFFCURVE",
"295 589 CURVE",
"313 462 OFFCURVE",
"366 100 OFFCURVE",
"386 -6 CURVE SMOOTH",
"397 -66 OFFCURVE",
"422 -87 OFFCURVE",
"464 -87 CURVE",
"466 69 OFFCURVE",
"593 535 OFFCURVE",
"663 720 CURVE"
);
},
{
closed = 1;
nodes = (
"325 765 OFFCURVE",
"340 767 OFFCURVE",
"356 767 CURVE SMOOTH",
"419 767 OFFCURVE",
"482 728 OFFCURVE",
"539 728 CURVE SMOOTH",
"567 728 OFFCURVE",
"593 737 OFFCURVE",
"617 764 CURVE",
"607 762 OFFCURVE",
"597 761 OFFCURVE",
"587 761 CURVE SMOOTH",
"513 761 OFFCURVE",
"449 805 OFFCURVE",
"393 805 CURVE SMOOTH",
"363 805 OFFCURVE",
"336 793 OFFCURVE",
"310 759 CURVE"
);
}
);
width = 641;
},
{
hints = (
{
place = "{84, 70}";
},
{
horizontal = 1;
place = "{669, 51}";
},
{
horizontal = 1;
place = "{772, 47}";
},
{
horizontal = 1;
place = "{810, 49}";
},
{
horizontal = 1;
place = "{721, -20}";
target = down;
type = TopGhost;
},
{
horizontal = 1;
place = "{-87, 21}";
target = up;
type = BottomGhost;
}
);
layerId = "FCB63FBD-5C4C-469B-B6FC-091C423BF597";
paths = (
{
closed = 1;
nodes = (
"663 721 OFFCURVE",
"638 689 OFFCURVE",
"626 668 CURVE SMOOTH",
"578 585 OFFCURVE",
"523 306 OFFCURVE",
"475 114 CURVE",
"463 177 OFFCURVE",
"460 193 OFFCURVE",
"429 407 CURVE SMOOTH",
"405 571 OFFCURVE",
"383 720 OFFCURVE",
"291 720 CURVE SMOOTH",
"214 720 OFFCURVE",
"84 616 OFFCURVE",
"84 525 CURVE SMOOTH",
"84 488 OFFCURVE",
"105 460 OFFCURVE",
"164 460 CURVE",
"158 474 OFFCURVE",
"154 491 OFFCURVE",
"154 507 CURVE SMOOTH",
"154 565 OFFCURVE",
"205 669 OFFCURVE",
"262 669 CURVE SMOOTH",
"273 669 OFFCURVE",
"275 665 OFFCURVE",
"275 655 CURVE SMOOTH",
"275 639 OFFCURVE",
"269 620 OFFCURVE",
"268 616 CURVE",
"152 213 OFFCURVE",
"97 45 OFFCURVE",
"56 -87 CURVE",
"132 -87 OFFCURVE",
"162 8 OFFCURVE",
"312 555 CURVE",
"330 457 OFFCURVE",
"399 66 OFFCURVE",
"415 -1 CURVE SMOOTH",
"431 -69 OFFCURVE",
"462 -87 OFFCURVE",
"511 -87 CURVE",
"511 70 OFFCURVE",
"637 539 OFFCURVE",
"707 721 CURVE"
);
},
{
closed = 1;
nodes = (
"403 809 OFFCURVE",
"413 810 OFFCURVE",
"425 810 CURVE SMOOTH",
"483 810 OFFCURVE",
"555 772 OFFCURVE",
"616 772 CURVE SMOOTH",
"641 772 OFFCURVE",
"670 786 OFFCURVE",
"708 826 CURVE",
"679 821 OFFCURVE",
"648 819 OFFCURVE",
"640 819 CURVE SMOOTH",
"573 819 OFFCURVE",
"513 859 OFFCURVE",
"453 859 CURVE SMOOTH",
"426 859 OFFCURVE",
"386 829 OFFCURVE",
"363 802 CURVE"
);
}
);
width = 675;
}
);
leftKerningGroup = N;
rightKerningGroup = N;
unicode = 00D1;
},
{
glyphname = O;
lastChange = "2016-08-08 09:29:10 +0000";
layers = (
{
background = {
paths = (
{
closed = 1;
nodes = (
"495 707 LINE",
"480 715 OFFCURVE",
"460 719 OFFCURVE",
"435 719 CURVE SMOOTH",
"244 719 OFFCURVE",
"21 418 OFFCURVE",
"21 161 CURVE SMOOTH",
"21 11 OFFCURVE",
"99 -87 OFFCURVE",
"213 -87 CURVE SMOOTH",
"374 -87 OFFCURVE",
"602 113 OFFCURVE",
"602 477 CURVE SMOOTH",
"602 555 OFFCURVE",
"586 670 OFFCURVE",
"517 670 CURVE SMOOTH",
"451 670 OFFCURVE",
"336 549 OFFCURVE",
"336 478 CURVE SMOOTH",
"336 456 OFFCURVE",
"350 437 OFFCURVE",
"384 429 CURVE",
"400 504 OFFCURVE",
"470 643 OFFCURVE",
"519 643 CURVE SMOOTH",
"553 643 OFFCURVE",
"564 560 OFFCURVE",
"564 505 CURVE SMOOTH",
"564 268 OFFCURVE",
"430 -53 OFFCURVE",
"243 -53 CURVE SMOOTH",
"148 -53 OFFCURVE",
"109 40 OFFCURVE",
"109 147 CURVE SMOOTH",
"109 390 OFFCURVE",
"312 707 OFFCURVE",
"484 707 CURVE SMOOTH"
);
}
);
};
hints = (
{
place = "{21, 88}";
},
{
place = "{564, 38}";
},
{
horizontal = 1;
place = "{-87, 34}";
},
{
horizontal = 1;
place = "{643, 27}";
},
{
horizontal = 1;
place = "{643, 76}";
},
{
horizontal = 1;
place = "{707, -20}";
target = down;
type = TopGhost;
}
);
layerId = UUID0;
paths = (
{
closed = 1;
nodes = (
"495 707 LINE",
"480 715 OFFCURVE",
"460 719 OFFCURVE",
"435 719 CURVE SMOOTH",
"244 719 OFFCURVE",
"21 418 OFFCURVE",
"21 161 CURVE SMOOTH",
"21 11 OFFCURVE",
"99 -87 OFFCURVE",
"213 -87 CURVE SMOOTH",
"374 -87 OFFCURVE",
"602 113 OFFCURVE",
"602 477 CURVE SMOOTH",
"602 555 OFFCURVE",
"586 670 OFFCURVE",
"517 670 CURVE SMOOTH",
"451 670 OFFCURVE",
"336 549 OFFCURVE",
"336 478 CURVE SMOOTH",
"336 456 OFFCURVE",
"350 437 OFFCURVE",
"384 429 CURVE",
"400 504 OFFCURVE",
"470 643 OFFCURVE",
"519 643 CURVE SMOOTH",
"553 643 OFFCURVE",
"564 560 OFFCURVE",
"564 505 CURVE SMOOTH",
"564 268 OFFCURVE",
"430 -53 OFFCURVE",
"243 -53 CURVE SMOOTH",
"148 -53 OFFCURVE",
"109 40 OFFCURVE",
"109 147 CURVE SMOOTH",
"109 390 OFFCURVE",
"312 707 OFFCURVE",
"484 707 CURVE SMOOTH"
);
}
);
width = 624;
},
{
background = {
paths = (
{
closed = 1;
nodes = (
"504 707 LINE",
"489 715 OFFCURVE",
"469 719 OFFCURVE",
"444 719 CURVE SMOOTH",
"253 719 OFFCURVE",
"30 418 OFFCURVE",
"30 161 CURVE SMOOTH",
"30 11 OFFCURVE",
"108 -87 OFFCURVE",
"222 -87 CURVE SMOOTH",
"383 -87 OFFCURVE",
"611 113 OFFCURVE",
"611 477 CURVE SMOOTH",
"611 555 OFFCURVE",
"595 670 OFFCURVE",
"526 670 CURVE SMOOTH",
"460 670 OFFCURVE",
"345 549 OFFCURVE",
"345 478 CURVE SMOOTH",
"345 456 OFFCURVE",
"359 437 OFFCURVE",
"393 429 CURVE",
"409 504 OFFCURVE",
"479 643 OFFCURVE",
"528 643 CURVE SMOOTH",
"562 643 OFFCURVE",
"573 560 OFFCURVE",
"573 505 CURVE SMOOTH",
"573 268 OFFCURVE",
"439 -53 OFFCURVE",
"252 -53 CURVE SMOOTH",
"157 -53 OFFCURVE",
"118 40 OFFCURVE",
"118 147 CURVE SMOOTH",
"118 390 OFFCURVE",
"321 707 OFFCURVE",
"493 707 CURVE SMOOTH"
);
}
);
};
hints = (
{
place = "{32, 104}";
},
{
place = "{592, 52}";
},
{
horizontal = 1;
place = "{-87, 48}";
},
{
horizontal = 1;
place = "{630, 41}";
},
{
horizontal = 1;
place = "{693, 26}";
}
);
layerId = "FCB63FBD-5C4C-469B-B6FC-091C423BF597";
paths = (
{
closed = 1;
nodes = (
"512 718 OFFCURVE",
"483 719 OFFCURVE",
"470 719 CURVE SMOOTH",
"248 719 OFFCURVE",
"32 420 OFFCURVE",
"32 164 CURVE SMOOTH",
"32 8 OFFCURVE",
"125 -87 OFFCURVE",
"242 -87 CURVE SMOOTH",
"411 -87 OFFCURVE",
"644 110 OFFCURVE",
"644 450 CURVE SMOOTH",
"644 539 OFFCURVE",
"628 671 OFFCURVE",
"549 671 CURVE SMOOTH",
"472 671 OFFCURVE",
"354 548 OFFCURVE",
"354 477 CURVE SMOOTH",
"354 449 OFFCURVE",
"372 428 OFFCURVE",
"417 419 CURVE",
"433 497 OFFCURVE",
"502 630 OFFCURVE",
"547 630 CURVE SMOOTH",
"583 630 OFFCURVE",
"592 544 OFFCURVE",
"592 486 CURVE SMOOTH",
"592 267 OFFCURVE",
"461 -39 OFFCURVE",
"277 -39 CURVE SMOOTH",
"175 -39 OFFCURVE",
"136 54 OFFCURVE",
"136 158 CURVE SMOOTH",
"136 394 OFFCURVE",
"336 693 OFFCURVE",
"509 693 CURVE SMOOTH",
"519 693 OFFCURVE",
"530 692 OFFCURVE",
"538 691 CURVE"
);
}
);
width = 656;
}
);
leftKerningGroup = O;
rightKerningGroup = O;
unicode = 004F;
},
